G04 #@! TF.GenerationSoftware,KiCad,Pcbnew,(6.0.4)*
G04 #@! TF.CreationDate,2022-04-17T17:26:00-05:00*
G04 #@! TF.ProjectId,interface,696e7465-7266-4616-9365-2e6b69636164,rev?*
G04 #@! TF.SameCoordinates,Original*
G04 #@! TF.FileFunction,Legend,Top*
G04 #@! TF.FilePolarity,Positive*
%FSLAX46Y46*%
G04 Gerber Fmt 4.6, Leading zero omitted, Abs format (unit mm)*
G04 Created by KiCad (PCBNEW (6.0.4)) date 2022-04-17 17:26:00*
%MOMM*%
%LPD*%
G01*
G04 APERTURE LIST*
G04 Aperture macros list*
%AMRoundRect*
0 Rectangle with rounded corners*
0 $1 Rounding radius*
0 $2 $3 $4 $5 $6 $7 $8 $9 X,Y pos of 4 corners*
0 Add a 4 corners polygon primitive as box body*
4,1,4,$2,$3,$4,$5,$6,$7,$8,$9,$2,$3,0*
0 Add four circle primitives for the rounded corners*
1,1,$1+$1,$2,$3*
1,1,$1+$1,$4,$5*
1,1,$1+$1,$6,$7*
1,1,$1+$1,$8,$9*
0 Add four rect primitives between the rounded corners*
20,1,$1+$1,$2,$3,$4,$5,0*
20,1,$1+$1,$4,$5,$6,$7,0*
20,1,$1+$1,$6,$7,$8,$9,0*
20,1,$1+$1,$8,$9,$2,$3,0*%
G04 Aperture macros list end*
%ADD10C,0.150000*%
%ADD11C,0.300000*%
%ADD12C,0.100000*%
%ADD13C,0.200000*%
%ADD14C,0.120000*%
%ADD15C,0.127000*%
%ADD16C,0.340000*%
%ADD17C,1.402000*%
%ADD18C,2.352000*%
%ADD19C,5.502000*%
%ADD20O,1.802000X1.802000*%
%ADD21RoundRect,0.051000X-0.850000X-0.850000X0.850000X-0.850000X0.850000X0.850000X-0.850000X0.850000X0*%
%ADD22RoundRect,0.051000X0.750000X-0.525000X0.750000X0.525000X-0.750000X0.525000X-0.750000X-0.525000X0*%
%ADD23O,1.602000X1.152000*%
%ADD24RoundRect,0.288500X-0.287500X-0.237500X0.287500X-0.237500X0.287500X0.237500X-0.287500X0.237500X0*%
%ADD25RoundRect,0.288500X-0.237500X0.287500X-0.237500X-0.287500X0.237500X-0.287500X0.237500X0.287500X0*%
%ADD26RoundRect,0.288500X0.237500X-0.287500X0.237500X0.287500X-0.237500X0.287500X-0.237500X-0.287500X0*%
%ADD27RoundRect,0.288500X0.287500X0.237500X-0.287500X0.237500X-0.287500X-0.237500X0.287500X-0.237500X0*%
%ADD28RoundRect,0.051000X-0.450000X-0.400000X0.450000X-0.400000X0.450000X0.400000X-0.450000X0.400000X0*%
%ADD29RoundRect,0.051000X0.275000X0.500000X-0.275000X0.500000X-0.275000X-0.500000X0.275000X-0.500000X0*%
%ADD30RoundRect,0.051000X-0.850000X0.850000X-0.850000X-0.850000X0.850000X-0.850000X0.850000X0.850000X0*%
%ADD31RoundRect,0.051000X-0.737500X0.225000X-0.737500X-0.225000X0.737500X-0.225000X0.737500X0.225000X0*%
%ADD32RoundRect,0.051000X0.750000X-0.325000X0.750000X0.325000X-0.750000X0.325000X-0.750000X-0.325000X0*%
%ADD33O,1.702000X1.702000*%
%ADD34RoundRect,0.051000X-0.800000X0.800000X-0.800000X-0.800000X0.800000X-0.800000X0.800000X0.800000X0*%
%ADD35RoundRect,0.051000X0.800000X-0.800000X0.800000X0.800000X-0.800000X0.800000X-0.800000X-0.800000X0*%
%ADD36C,1.302000*%
%ADD37O,1.410000X2.718000*%
%ADD38O,2.718000X1.410000*%
%ADD39C,3.552000*%
%ADD40C,1.502000*%
%ADD41RoundRect,0.051000X1.250000X1.500000X-1.250000X1.500000X-1.250000X-1.500000X1.250000X-1.500000X0*%
%ADD42RoundRect,0.051000X-0.400000X0.450000X-0.400000X-0.450000X0.400000X-0.450000X0.400000X0.450000X0*%
%ADD43RoundRect,0.051000X0.425000X0.475000X-0.425000X0.475000X-0.425000X-0.475000X0.425000X-0.475000X0*%
%ADD44RoundRect,0.051000X0.850000X-0.850000X0.850000X0.850000X-0.850000X0.850000X-0.850000X-0.850000X0*%
%ADD45RoundRect,0.051000X-0.530000X-0.325000X0.530000X-0.325000X0.530000X0.325000X-0.530000X0.325000X0*%
%ADD46C,4.902000*%
%ADD47RoundRect,0.126000X-0.700000X0.075000X-0.700000X-0.075000X0.700000X-0.075000X0.700000X0.075000X0*%
%ADD48RoundRect,0.126000X-0.075000X0.700000X-0.075000X-0.700000X0.075000X-0.700000X0.075000X0.700000X0*%
%ADD49RoundRect,0.051000X0.850000X0.850000X-0.850000X0.850000X-0.850000X-0.850000X0.850000X-0.850000X0*%
G04 APERTURE END LIST*
D10*
X135787238Y-72747142D02*
X135739619Y-72794761D01*
X135596761Y-72842380D01*
X135501523Y-72842380D01*
X135358666Y-72794761D01*
X135263428Y-72699523D01*
X135215809Y-72604285D01*
X135168190Y-72413809D01*
X135168190Y-72270952D01*
X135215809Y-72080476D01*
X135263428Y-71985238D01*
X135358666Y-71890000D01*
X135501523Y-71842380D01*
X135596761Y-71842380D01*
X135739619Y-71890000D01*
X135787238Y-71937619D01*
X136215809Y-72842380D02*
X136215809Y-71842380D01*
X136215809Y-72318571D02*
X136787238Y-72318571D01*
X136787238Y-72842380D02*
X136787238Y-71842380D01*
X137215809Y-72556666D02*
X137692000Y-72556666D01*
X137120571Y-72842380D02*
X137453904Y-71842380D01*
X137787238Y-72842380D01*
X138120571Y-72842380D02*
X138120571Y-71842380D01*
X138692000Y-72842380D01*
X138692000Y-71842380D01*
X139168190Y-72842380D02*
X139168190Y-71842380D01*
X139739619Y-72842380D01*
X139739619Y-71842380D01*
X140215809Y-72318571D02*
X140549142Y-72318571D01*
X140692000Y-72842380D02*
X140215809Y-72842380D01*
X140215809Y-71842380D01*
X140692000Y-71842380D01*
X141596761Y-72842380D02*
X141120571Y-72842380D01*
X141120571Y-71842380D01*
X143120571Y-72175714D02*
X143120571Y-72842380D01*
X142882476Y-71794761D02*
X142644380Y-72509047D01*
X143263428Y-72509047D01*
X135787238Y-87733142D02*
X135739619Y-87780761D01*
X135596761Y-87828380D01*
X135501523Y-87828380D01*
X135358666Y-87780761D01*
X135263428Y-87685523D01*
X135215809Y-87590285D01*
X135168190Y-87399809D01*
X135168190Y-87256952D01*
X135215809Y-87066476D01*
X135263428Y-86971238D01*
X135358666Y-86876000D01*
X135501523Y-86828380D01*
X135596761Y-86828380D01*
X135739619Y-86876000D01*
X135787238Y-86923619D01*
X136215809Y-87828380D02*
X136215809Y-86828380D01*
X136215809Y-87304571D02*
X136787238Y-87304571D01*
X136787238Y-87828380D02*
X136787238Y-86828380D01*
X137215809Y-87542666D02*
X137692000Y-87542666D01*
X137120571Y-87828380D02*
X137453904Y-86828380D01*
X137787238Y-87828380D01*
X138120571Y-87828380D02*
X138120571Y-86828380D01*
X138692000Y-87828380D01*
X138692000Y-86828380D01*
X139168190Y-87828380D02*
X139168190Y-86828380D01*
X139739619Y-87828380D01*
X139739619Y-86828380D01*
X140215809Y-87304571D02*
X140549142Y-87304571D01*
X140692000Y-87828380D02*
X140215809Y-87828380D01*
X140215809Y-86828380D01*
X140692000Y-86828380D01*
X141596761Y-87828380D02*
X141120571Y-87828380D01*
X141120571Y-86828380D01*
X142596761Y-86828380D02*
X143215809Y-86828380D01*
X142882476Y-87209333D01*
X143025333Y-87209333D01*
X143120571Y-87256952D01*
X143168190Y-87304571D01*
X143215809Y-87399809D01*
X143215809Y-87637904D01*
X143168190Y-87733142D01*
X143120571Y-87780761D01*
X143025333Y-87828380D01*
X142739619Y-87828380D01*
X142644380Y-87780761D01*
X142596761Y-87733142D01*
X135787238Y-102719142D02*
X135739619Y-102766761D01*
X135596761Y-102814380D01*
X135501523Y-102814380D01*
X135358666Y-102766761D01*
X135263428Y-102671523D01*
X135215809Y-102576285D01*
X135168190Y-102385809D01*
X135168190Y-102242952D01*
X135215809Y-102052476D01*
X135263428Y-101957238D01*
X135358666Y-101862000D01*
X135501523Y-101814380D01*
X135596761Y-101814380D01*
X135739619Y-101862000D01*
X135787238Y-101909619D01*
X136215809Y-102814380D02*
X136215809Y-101814380D01*
X136215809Y-102290571D02*
X136787238Y-102290571D01*
X136787238Y-102814380D02*
X136787238Y-101814380D01*
X137215809Y-102528666D02*
X137692000Y-102528666D01*
X137120571Y-102814380D02*
X137453904Y-101814380D01*
X137787238Y-102814380D01*
X138120571Y-102814380D02*
X138120571Y-101814380D01*
X138692000Y-102814380D01*
X138692000Y-101814380D01*
X139168190Y-102814380D02*
X139168190Y-101814380D01*
X139739619Y-102814380D01*
X139739619Y-101814380D01*
X140215809Y-102290571D02*
X140549142Y-102290571D01*
X140692000Y-102814380D02*
X140215809Y-102814380D01*
X140215809Y-101814380D01*
X140692000Y-101814380D01*
X141596761Y-102814380D02*
X141120571Y-102814380D01*
X141120571Y-101814380D01*
X142644380Y-101909619D02*
X142692000Y-101862000D01*
X142787238Y-101814380D01*
X143025333Y-101814380D01*
X143120571Y-101862000D01*
X143168190Y-101909619D01*
X143215809Y-102004857D01*
X143215809Y-102100095D01*
X143168190Y-102242952D01*
X142596761Y-102814380D01*
X143215809Y-102814380D01*
X135787238Y-117705142D02*
X135739619Y-117752761D01*
X135596761Y-117800380D01*
X135501523Y-117800380D01*
X135358666Y-117752761D01*
X135263428Y-117657523D01*
X135215809Y-117562285D01*
X135168190Y-117371809D01*
X135168190Y-117228952D01*
X135215809Y-117038476D01*
X135263428Y-116943238D01*
X135358666Y-116848000D01*
X135501523Y-116800380D01*
X135596761Y-116800380D01*
X135739619Y-116848000D01*
X135787238Y-116895619D01*
X136215809Y-117800380D02*
X136215809Y-116800380D01*
X136215809Y-117276571D02*
X136787238Y-117276571D01*
X136787238Y-117800380D02*
X136787238Y-116800380D01*
X137215809Y-117514666D02*
X137692000Y-117514666D01*
X137120571Y-117800380D02*
X137453904Y-116800380D01*
X137787238Y-117800380D01*
X138120571Y-117800380D02*
X138120571Y-116800380D01*
X138692000Y-117800380D01*
X138692000Y-116800380D01*
X139168190Y-117800380D02*
X139168190Y-116800380D01*
X139739619Y-117800380D01*
X139739619Y-116800380D01*
X140215809Y-117276571D02*
X140549142Y-117276571D01*
X140692000Y-117800380D02*
X140215809Y-117800380D01*
X140215809Y-116800380D01*
X140692000Y-116800380D01*
X141596761Y-117800380D02*
X141120571Y-117800380D01*
X141120571Y-116800380D01*
X143215809Y-117800380D02*
X142644380Y-117800380D01*
X142930095Y-117800380D02*
X142930095Y-116800380D01*
X142834857Y-116943238D01*
X142739619Y-117038476D01*
X142644380Y-117086095D01*
D11*
X135763428Y-109308523D02*
X136049142Y-109403761D01*
X136525333Y-109403761D01*
X136715809Y-109308523D01*
X136811047Y-109213285D01*
X136906285Y-109022809D01*
X136906285Y-108832333D01*
X136811047Y-108641857D01*
X136715809Y-108546619D01*
X136525333Y-108451380D01*
X136144380Y-108356142D01*
X135953904Y-108260904D01*
X135858666Y-108165666D01*
X135763428Y-107975190D01*
X135763428Y-107784714D01*
X135858666Y-107594238D01*
X135953904Y-107499000D01*
X136144380Y-107403761D01*
X136620571Y-107403761D01*
X136906285Y-107499000D01*
X137763428Y-107403761D02*
X137763428Y-109022809D01*
X137858666Y-109213285D01*
X137953904Y-109308523D01*
X138144380Y-109403761D01*
X138525333Y-109403761D01*
X138715809Y-109308523D01*
X138811047Y-109213285D01*
X138906285Y-109022809D01*
X138906285Y-107403761D01*
X139763428Y-109308523D02*
X140049142Y-109403761D01*
X140525333Y-109403761D01*
X140715809Y-109308523D01*
X140811047Y-109213285D01*
X140906285Y-109022809D01*
X140906285Y-108832333D01*
X140811047Y-108641857D01*
X140715809Y-108546619D01*
X140525333Y-108451380D01*
X140144380Y-108356142D01*
X139953904Y-108260904D01*
X139858666Y-108165666D01*
X139763428Y-107975190D01*
X139763428Y-107784714D01*
X139858666Y-107594238D01*
X139953904Y-107499000D01*
X140144380Y-107403761D01*
X140620571Y-107403761D01*
X140906285Y-107499000D01*
X142144380Y-108451380D02*
X142144380Y-109403761D01*
X141477714Y-107403761D02*
X142144380Y-108451380D01*
X142811047Y-107403761D01*
X136334857Y-112623761D02*
X135668190Y-111671380D01*
X135192000Y-112623761D02*
X135192000Y-110623761D01*
X135953904Y-110623761D01*
X136144380Y-110719000D01*
X136239619Y-110814238D01*
X136334857Y-111004714D01*
X136334857Y-111290428D01*
X136239619Y-111480904D01*
X136144380Y-111576142D01*
X135953904Y-111671380D01*
X135192000Y-111671380D01*
X137192000Y-111576142D02*
X137858666Y-111576142D01*
X138144380Y-112623761D02*
X137192000Y-112623761D01*
X137192000Y-110623761D01*
X138144380Y-110623761D01*
X138715809Y-110623761D02*
X139382476Y-112623761D01*
X140049142Y-110623761D01*
X143287238Y-112623761D02*
X142144380Y-112623761D01*
X142715809Y-112623761D02*
X142715809Y-110623761D01*
X142525333Y-110909476D01*
X142334857Y-111099952D01*
X142144380Y-111195190D01*
D12*
X106131000Y-128347000D02*
X106831000Y-128347000D01*
X106131000Y-119747000D02*
X106131000Y-128347000D01*
X106831000Y-119747000D02*
X106131000Y-119747000D01*
X110531000Y-128347000D02*
X109831000Y-128347000D01*
X110531000Y-119747000D02*
X110531000Y-128347000D01*
X109831000Y-119747000D02*
X110531000Y-119747000D01*
D13*
X111081000Y-122147000D02*
X111081000Y-122147000D01*
X111081000Y-121947000D02*
X111081000Y-121947000D01*
X111081000Y-121947000D02*
G75*
G03*
X111081000Y-122147000I0J-100000D01*
G01*
X111081000Y-122147000D02*
G75*
G03*
X111081000Y-121947000I0J100000D01*
G01*
D14*
X215332000Y-103826000D02*
X216662000Y-103826000D01*
X215332000Y-105156000D02*
X215332000Y-103826000D01*
X217932000Y-103826000D02*
X220532000Y-103826000D01*
X217932000Y-106426000D02*
X217932000Y-103826000D01*
X215332000Y-106426000D02*
X217932000Y-106426000D01*
X220532000Y-103826000D02*
X220532000Y-114106000D01*
X215332000Y-106426000D02*
X215332000Y-114106000D01*
X215332000Y-114106000D02*
X220532000Y-114106000D01*
X215332000Y-73981000D02*
X216662000Y-73981000D01*
X215332000Y-75311000D02*
X215332000Y-73981000D01*
X217932000Y-73981000D02*
X220532000Y-73981000D01*
X217932000Y-76581000D02*
X217932000Y-73981000D01*
X215332000Y-76581000D02*
X217932000Y-76581000D01*
X220532000Y-73981000D02*
X220532000Y-84261000D01*
X215332000Y-76581000D02*
X215332000Y-84261000D01*
X215332000Y-84261000D02*
X220532000Y-84261000D01*
X189932000Y-103826000D02*
X191262000Y-103826000D01*
X189932000Y-105156000D02*
X189932000Y-103826000D01*
X189932000Y-106426000D02*
X192592000Y-106426000D01*
X192592000Y-106426000D02*
X192592000Y-114106000D01*
X189932000Y-106426000D02*
X189932000Y-114106000D01*
X189932000Y-114106000D02*
X192592000Y-114106000D01*
X148916000Y-94383000D02*
X148916000Y-90783000D01*
X148904478Y-90744522D02*
G75*
G03*
X144466000Y-92583000I-1838478J-1838478D01*
G01*
X144465999Y-92583000D02*
G75*
G03*
X148904478Y-94421478I2600001J0D01*
G01*
X134004233Y-94172500D02*
X134346767Y-94172500D01*
X134004233Y-93152500D02*
X134346767Y-93152500D01*
X133094000Y-97364733D02*
X133094000Y-97707267D01*
X134114000Y-97364733D02*
X134114000Y-97707267D01*
X135638000Y-97707267D02*
X135638000Y-97364733D01*
X134618000Y-97707267D02*
X134618000Y-97364733D01*
X134004233Y-95633000D02*
X134346767Y-95633000D01*
X134004233Y-94613000D02*
X134346767Y-94613000D01*
X135464733Y-100459000D02*
X135807267Y-100459000D01*
X135464733Y-99439000D02*
X135807267Y-99439000D01*
X139147733Y-100459000D02*
X139490267Y-100459000D01*
X139147733Y-99439000D02*
X139490267Y-99439000D01*
X142449733Y-100459000D02*
X142792267Y-100459000D01*
X142449733Y-99439000D02*
X142792267Y-99439000D01*
X147068000Y-97199267D02*
X147068000Y-96856733D01*
X146048000Y-97199267D02*
X146048000Y-96856733D01*
X144524000Y-96856733D02*
X144524000Y-97199267D01*
X145544000Y-96856733D02*
X145544000Y-97199267D01*
X150819767Y-95565500D02*
X150477233Y-95565500D01*
X150819767Y-96585500D02*
X150477233Y-96585500D01*
X154158767Y-95565500D02*
X153816233Y-95565500D01*
X154158767Y-96585500D02*
X153816233Y-96585500D01*
X150819767Y-97089500D02*
X150477233Y-97089500D01*
X150819767Y-98109500D02*
X150477233Y-98109500D01*
X154144767Y-97089500D02*
X153802233Y-97089500D01*
X154144767Y-98109500D02*
X153802233Y-98109500D01*
X216152000Y-123653733D02*
X216152000Y-123996267D01*
X217172000Y-123653733D02*
X217172000Y-123996267D01*
X217633733Y-90295000D02*
X217976267Y-90295000D01*
X217633733Y-91315000D02*
X217976267Y-91315000D01*
X217633733Y-88263000D02*
X217976267Y-88263000D01*
X217633733Y-89283000D02*
X217976267Y-89283000D01*
X217633733Y-98423000D02*
X217976267Y-98423000D01*
X217633733Y-99443000D02*
X217976267Y-99443000D01*
X217633733Y-96391000D02*
X217976267Y-96391000D01*
X217633733Y-97411000D02*
X217976267Y-97411000D01*
X207262000Y-123399733D02*
X207262000Y-123742267D01*
X208282000Y-123399733D02*
X208282000Y-123742267D01*
X217633733Y-93347000D02*
X217976267Y-93347000D01*
X217633733Y-92327000D02*
X217976267Y-92327000D01*
X217633733Y-87251000D02*
X217976267Y-87251000D01*
X217633733Y-86231000D02*
X217976267Y-86231000D01*
X217633733Y-101475000D02*
X217976267Y-101475000D01*
X217633733Y-100455000D02*
X217976267Y-100455000D01*
X217633733Y-95379000D02*
X217976267Y-95379000D01*
X217633733Y-94359000D02*
X217976267Y-94359000D01*
X202139733Y-130304000D02*
X202482267Y-130304000D01*
X202139733Y-129284000D02*
X202482267Y-129284000D01*
X201166000Y-123399733D02*
X201166000Y-123742267D01*
X202186000Y-123399733D02*
X202186000Y-123742267D01*
X205784267Y-129284000D02*
X205441733Y-129284000D01*
X205784267Y-130304000D02*
X205441733Y-130304000D01*
X204214000Y-123399733D02*
X204214000Y-123742267D01*
X205234000Y-123399733D02*
X205234000Y-123742267D01*
X161461267Y-93279500D02*
X161118733Y-93279500D01*
X161461267Y-94299500D02*
X161118733Y-94299500D01*
X163193000Y-93046733D02*
X163193000Y-93389267D01*
X164213000Y-93046733D02*
X164213000Y-93389267D01*
X161118733Y-91819000D02*
X161461267Y-91819000D01*
X161118733Y-92839000D02*
X161461267Y-92839000D01*
X161461267Y-94994000D02*
X161118733Y-94994000D01*
X161461267Y-96014000D02*
X161118733Y-96014000D01*
X163112267Y-98423000D02*
X162769733Y-98423000D01*
X163112267Y-99443000D02*
X162769733Y-99443000D01*
X151636000Y-95115500D02*
X150176000Y-95115500D01*
X151636000Y-91955500D02*
X149476000Y-91955500D01*
X151636000Y-91955500D02*
X151636000Y-92885500D01*
X151636000Y-95115500D02*
X151636000Y-94185500D01*
D13*
X201390000Y-128450000D02*
X201390000Y-127450000D01*
X203565000Y-127100000D02*
X201565000Y-127100000D01*
X203565000Y-126900000D02*
X203565000Y-127100000D01*
X201565000Y-126900000D02*
X203565000Y-126900000D01*
X201565000Y-127100000D02*
X201565000Y-126900000D01*
X204184000Y-128450000D02*
X204184000Y-127450000D01*
X206359000Y-127100000D02*
X204359000Y-127100000D01*
X206359000Y-126900000D02*
X206359000Y-127100000D01*
X204359000Y-126900000D02*
X206359000Y-126900000D01*
X204359000Y-127100000D02*
X204359000Y-126900000D01*
D14*
X206308000Y-131004000D02*
X206308000Y-132334000D01*
X204978000Y-131004000D02*
X206308000Y-131004000D01*
X206308000Y-133604000D02*
X206308000Y-136204000D01*
X203708000Y-133604000D02*
X206308000Y-133604000D01*
X203708000Y-131004000D02*
X203708000Y-133604000D01*
X206308000Y-136204000D02*
X201108000Y-136204000D01*
X203708000Y-131004000D02*
X201108000Y-131004000D01*
X201108000Y-131004000D02*
X201108000Y-136204000D01*
X143824000Y-90427500D02*
X143824000Y-91757500D01*
X142494000Y-90427500D02*
X143824000Y-90427500D01*
X141224000Y-90427500D02*
X141224000Y-93087500D01*
X141224000Y-93087500D02*
X138624000Y-93087500D01*
X141224000Y-90427500D02*
X138624000Y-90427500D01*
X138624000Y-90427500D02*
X138624000Y-93087500D01*
D13*
X144010000Y-98918000D02*
X142535000Y-98918000D01*
X142185000Y-93893000D02*
X142185000Y-98893000D01*
X138485000Y-93893000D02*
X142185000Y-93893000D01*
X138485000Y-98893000D02*
X138485000Y-93893000D01*
X142185000Y-98893000D02*
X138485000Y-98893000D01*
X208767000Y-121562500D02*
X210267000Y-121562500D01*
X210617000Y-126592500D02*
X210617000Y-121692500D01*
X213817000Y-126592500D02*
X210617000Y-126592500D01*
X213817000Y-121692500D02*
X213817000Y-126592500D01*
X210617000Y-121692500D02*
X213817000Y-121692500D01*
D14*
X217655000Y-130306000D02*
X215415000Y-130306000D01*
X217655000Y-130546000D02*
X215415000Y-130546000D01*
X217655000Y-130426000D02*
X215415000Y-130426000D01*
X216535000Y-134596000D02*
X216535000Y-133946000D01*
X216535000Y-129056000D02*
X216535000Y-129706000D01*
X217655000Y-133946000D02*
X217655000Y-129706000D01*
X215415000Y-133946000D02*
X217655000Y-133946000D01*
X215415000Y-129706000D02*
X215415000Y-133946000D01*
X217655000Y-129706000D02*
X215415000Y-129706000D01*
X212875000Y-133346000D02*
X215115000Y-133346000D01*
X212875000Y-133106000D02*
X215115000Y-133106000D01*
X212875000Y-133226000D02*
X215115000Y-133226000D01*
X213995000Y-129056000D02*
X213995000Y-129706000D01*
X213995000Y-134596000D02*
X213995000Y-133946000D01*
X212875000Y-129706000D02*
X212875000Y-133946000D01*
X215115000Y-129706000D02*
X212875000Y-129706000D01*
X215115000Y-133946000D02*
X215115000Y-129706000D01*
X212875000Y-133946000D02*
X215115000Y-133946000D01*
X210035000Y-130306000D02*
X207795000Y-130306000D01*
X210035000Y-130546000D02*
X207795000Y-130546000D01*
X210035000Y-130426000D02*
X207795000Y-130426000D01*
X208915000Y-134596000D02*
X208915000Y-133946000D01*
X208915000Y-129056000D02*
X208915000Y-129706000D01*
X210035000Y-133946000D02*
X210035000Y-129706000D01*
X207795000Y-133946000D02*
X210035000Y-133946000D01*
X207795000Y-129706000D02*
X207795000Y-133946000D01*
X210035000Y-129706000D02*
X207795000Y-129706000D01*
X210335000Y-133346000D02*
X212575000Y-133346000D01*
X210335000Y-133106000D02*
X212575000Y-133106000D01*
X210335000Y-133226000D02*
X212575000Y-133226000D01*
X211455000Y-129056000D02*
X211455000Y-129706000D01*
X211455000Y-134596000D02*
X211455000Y-133946000D01*
X210335000Y-129706000D02*
X210335000Y-133946000D01*
X212575000Y-129706000D02*
X210335000Y-129706000D01*
X212575000Y-133946000D02*
X212575000Y-129706000D01*
X210335000Y-133946000D02*
X212575000Y-133946000D01*
X148719000Y-97199267D02*
X148719000Y-96856733D01*
X147699000Y-97199267D02*
X147699000Y-96856733D01*
X203710000Y-123742267D02*
X203710000Y-123399733D01*
X202690000Y-123742267D02*
X202690000Y-123399733D01*
X206758000Y-123742267D02*
X206758000Y-123399733D01*
X205738000Y-123742267D02*
X205738000Y-123399733D01*
X164717000Y-93046733D02*
X164717000Y-93389267D01*
X165737000Y-93046733D02*
X165737000Y-93389267D01*
X161461267Y-96518000D02*
X161118733Y-96518000D01*
X161461267Y-97538000D02*
X161118733Y-97538000D01*
D15*
X187957600Y-126434200D02*
X200357600Y-126434200D01*
X200357600Y-126434200D02*
X200357600Y-137434200D01*
X187957600Y-126434200D02*
X187957600Y-137434200D01*
X187957600Y-137434200D02*
X189657600Y-137434200D01*
X198657600Y-137434200D02*
X200357600Y-137434200D01*
X189657600Y-137434200D02*
X189657600Y-138234200D01*
X198657600Y-137434200D02*
X198657600Y-138234200D01*
D16*
X187527600Y-133934200D02*
G75*
G03*
X187527600Y-133934200I-170000J0D01*
G01*
D12*
X116761000Y-126527000D02*
X116761000Y-123827000D01*
X116761000Y-123827000D02*
X129761000Y-123827000D01*
X129761000Y-123827000D02*
X129761000Y-126527000D01*
X116761000Y-130527000D02*
X116761000Y-138427000D01*
X116761000Y-138427000D02*
X129761000Y-138427000D01*
X129761000Y-138427000D02*
X129761000Y-130527000D01*
D13*
X119661000Y-123157000D02*
X119661000Y-123157000D01*
X119861000Y-123157000D02*
X119861000Y-123157000D01*
X119861000Y-123157000D02*
G75*
G03*
X119661000Y-123157000I-100000J0D01*
G01*
X119661000Y-123157000D02*
G75*
G03*
X119861000Y-123157000I100000J0D01*
G01*
D12*
X184788000Y-80681000D02*
X176788000Y-80681000D01*
X184788000Y-85181000D02*
X176788000Y-85181000D01*
D14*
X187704000Y-98761733D02*
X187704000Y-99104267D01*
X188724000Y-98761733D02*
X188724000Y-99104267D01*
X184656000Y-104603733D02*
X184656000Y-104946267D01*
X185676000Y-104603733D02*
X185676000Y-104946267D01*
X186126000Y-103630000D02*
X186126000Y-102170000D01*
X189286000Y-103630000D02*
X189286000Y-101470000D01*
X189286000Y-103630000D02*
X188356000Y-103630000D01*
X186126000Y-103630000D02*
X187056000Y-103630000D01*
D13*
X189281000Y-104712000D02*
X186906000Y-104712000D01*
X189281000Y-106362000D02*
X189281000Y-104712000D01*
X186906000Y-106362000D02*
X189281000Y-106362000D01*
D14*
X141291000Y-124139000D02*
X141291000Y-122809000D01*
X142621000Y-124139000D02*
X141291000Y-124139000D01*
X143891000Y-124139000D02*
X143891000Y-121479000D01*
X143891000Y-121479000D02*
X146491000Y-121479000D01*
X143891000Y-124139000D02*
X146491000Y-124139000D01*
X146491000Y-124139000D02*
X146491000Y-121479000D01*
X132528000Y-124139000D02*
X132528000Y-122809000D01*
X133858000Y-124139000D02*
X132528000Y-124139000D01*
X135128000Y-124139000D02*
X135128000Y-121479000D01*
X135128000Y-121479000D02*
X140268000Y-121479000D01*
X135128000Y-124139000D02*
X140268000Y-124139000D01*
X140268000Y-124139000D02*
X140268000Y-121479000D01*
X147514000Y-124139000D02*
X147514000Y-122809000D01*
X148844000Y-124139000D02*
X147514000Y-124139000D01*
X150114000Y-124139000D02*
X150114000Y-121479000D01*
X150114000Y-121479000D02*
X152714000Y-121479000D01*
X150114000Y-124139000D02*
X152714000Y-124139000D01*
X152714000Y-124139000D02*
X152714000Y-121479000D01*
X165597000Y-98311000D02*
X167397000Y-98311000D01*
X167397000Y-95091000D02*
X164947000Y-95091000D01*
X155310000Y-95009000D02*
X157110000Y-95009000D01*
X157110000Y-91789000D02*
X154660000Y-91789000D01*
X163320000Y-96691267D02*
X163320000Y-96348733D01*
X164340000Y-96691267D02*
X164340000Y-96348733D01*
X159387000Y-93173733D02*
X159387000Y-93516267D01*
X158367000Y-93173733D02*
X158367000Y-93516267D01*
X152906000Y-93516267D02*
X152906000Y-93173733D01*
X153926000Y-93516267D02*
X153926000Y-93173733D01*
D12*
X132158000Y-138405000D02*
X132158000Y-125805000D01*
X185188000Y-138405000D02*
X132158000Y-138405000D01*
X185188000Y-125805000D02*
X185188000Y-138405000D01*
X132158000Y-125805000D02*
X185188000Y-125805000D01*
D14*
X184881000Y-88870000D02*
X184881000Y-87530000D01*
X185831000Y-88870000D02*
X184881000Y-88870000D01*
X185831000Y-89820000D02*
X185831000Y-88870000D01*
X185831000Y-99090000D02*
X184881000Y-99090000D01*
X185831000Y-98140000D02*
X185831000Y-99090000D01*
X175611000Y-88870000D02*
X176561000Y-88870000D01*
X175611000Y-89820000D02*
X175611000Y-88870000D01*
X175611000Y-99090000D02*
X176561000Y-99090000D01*
X175611000Y-98140000D02*
X175611000Y-99090000D01*
X188974000Y-91268733D02*
X188974000Y-91611267D01*
X189994000Y-91268733D02*
X189994000Y-91611267D01*
X190498000Y-91268733D02*
X190498000Y-91611267D01*
X191518000Y-91268733D02*
X191518000Y-91611267D01*
X175955000Y-105350000D02*
X173295000Y-105350000D01*
X175955000Y-110490000D02*
X175955000Y-105350000D01*
X173295000Y-110490000D02*
X173295000Y-105350000D01*
X175955000Y-110490000D02*
X173295000Y-110490000D01*
X175955000Y-111760000D02*
X175955000Y-113090000D01*
X175955000Y-113090000D02*
X174625000Y-113090000D01*
X196342000Y-72831000D02*
X196342000Y-70171000D01*
X196342000Y-72831000D02*
X214182000Y-72831000D01*
X214182000Y-72831000D02*
X214182000Y-70171000D01*
X196342000Y-70171000D02*
X214182000Y-70171000D01*
X193742000Y-70171000D02*
X195072000Y-70171000D01*
X193742000Y-71501000D02*
X193742000Y-70171000D01*
X196342000Y-87817000D02*
X196342000Y-85157000D01*
X196342000Y-87817000D02*
X214182000Y-87817000D01*
X214182000Y-87817000D02*
X214182000Y-85157000D01*
X196342000Y-85157000D02*
X214182000Y-85157000D01*
X193742000Y-85157000D02*
X195072000Y-85157000D01*
X193742000Y-86487000D02*
X193742000Y-85157000D01*
X196342000Y-102803000D02*
X196342000Y-100143000D01*
X196342000Y-102803000D02*
X214182000Y-102803000D01*
X214182000Y-102803000D02*
X214182000Y-100143000D01*
X196342000Y-100143000D02*
X214182000Y-100143000D01*
X193742000Y-100143000D02*
X195072000Y-100143000D01*
X193742000Y-101473000D02*
X193742000Y-100143000D01*
X196342000Y-117789000D02*
X196342000Y-115129000D01*
X196342000Y-117789000D02*
X214182000Y-117789000D01*
X214182000Y-117789000D02*
X214182000Y-115129000D01*
X196342000Y-115129000D02*
X214182000Y-115129000D01*
X193742000Y-115129000D02*
X195072000Y-115129000D01*
X193742000Y-116459000D02*
X193742000Y-115129000D01*
X149987000Y-72831000D02*
X149987000Y-70171000D01*
X149987000Y-72831000D02*
X167827000Y-72831000D01*
X167827000Y-72831000D02*
X167827000Y-70171000D01*
X149987000Y-70171000D02*
X167827000Y-70171000D01*
X147387000Y-70171000D02*
X148717000Y-70171000D01*
X147387000Y-71501000D02*
X147387000Y-70171000D01*
X147387000Y-86487000D02*
X147387000Y-85157000D01*
X147387000Y-85157000D02*
X148717000Y-85157000D01*
X149987000Y-85157000D02*
X167827000Y-85157000D01*
X167827000Y-87817000D02*
X167827000Y-85157000D01*
X149987000Y-87817000D02*
X167827000Y-87817000D01*
X149987000Y-87817000D02*
X149987000Y-85157000D01*
X149987000Y-102803000D02*
X149987000Y-100143000D01*
X149987000Y-102803000D02*
X167827000Y-102803000D01*
X167827000Y-102803000D02*
X167827000Y-100143000D01*
X149987000Y-100143000D02*
X167827000Y-100143000D01*
X147387000Y-100143000D02*
X148717000Y-100143000D01*
X147387000Y-101473000D02*
X147387000Y-100143000D01*
X147387000Y-116459000D02*
X147387000Y-115129000D01*
X147387000Y-115129000D02*
X148717000Y-115129000D01*
X149987000Y-115129000D02*
X167827000Y-115129000D01*
X167827000Y-117789000D02*
X167827000Y-115129000D01*
X149987000Y-117789000D02*
X167827000Y-117789000D01*
X149987000Y-117789000D02*
X149987000Y-115129000D01*
X118491000Y-72831000D02*
X118491000Y-70171000D01*
X118491000Y-72831000D02*
X131251000Y-72831000D01*
X131251000Y-72831000D02*
X131251000Y-70171000D01*
X118491000Y-70171000D02*
X131251000Y-70171000D01*
X115891000Y-70171000D02*
X117221000Y-70171000D01*
X115891000Y-71501000D02*
X115891000Y-70171000D01*
X118491000Y-102803000D02*
X118491000Y-100143000D01*
X118491000Y-102803000D02*
X131251000Y-102803000D01*
X131251000Y-102803000D02*
X131251000Y-100143000D01*
X118491000Y-100143000D02*
X131251000Y-100143000D01*
X115891000Y-100143000D02*
X117221000Y-100143000D01*
X115891000Y-101473000D02*
X115891000Y-100143000D01*
X115891000Y-86487000D02*
X115891000Y-85157000D01*
X115891000Y-85157000D02*
X117221000Y-85157000D01*
X118491000Y-85157000D02*
X131251000Y-85157000D01*
X131251000Y-87817000D02*
X131251000Y-85157000D01*
X118491000Y-87817000D02*
X131251000Y-87817000D01*
X118491000Y-87817000D02*
X118491000Y-85157000D01*
X115891000Y-116459000D02*
X115891000Y-115129000D01*
X115891000Y-115129000D02*
X117221000Y-115129000D01*
X118491000Y-115129000D02*
X131251000Y-115129000D01*
X131251000Y-117789000D02*
X131251000Y-115129000D01*
X118491000Y-117789000D02*
X131251000Y-117789000D01*
X118491000Y-117789000D02*
X118491000Y-115129000D01*
%LPC*%
D17*
X108331000Y-122047000D03*
X108331000Y-124047000D03*
X108331000Y-126047000D03*
D18*
X108331000Y-119947000D03*
X108331000Y-128147000D03*
D19*
X223266000Y-70358000D03*
X110998000Y-70485000D03*
X110998000Y-133350000D03*
X223266000Y-133350000D03*
D20*
X219202000Y-112776000D03*
X216662000Y-112776000D03*
X219202000Y-110236000D03*
X216662000Y-110236000D03*
X219202000Y-107696000D03*
X216662000Y-107696000D03*
X219202000Y-105156000D03*
D21*
X216662000Y-105156000D03*
D20*
X219202000Y-82931000D03*
X216662000Y-82931000D03*
X219202000Y-80391000D03*
X216662000Y-80391000D03*
X219202000Y-77851000D03*
X216662000Y-77851000D03*
X219202000Y-75311000D03*
D21*
X216662000Y-75311000D03*
X191262000Y-105156000D03*
D20*
X191262000Y-107696000D03*
X191262000Y-110236000D03*
X191262000Y-112776000D03*
D22*
X147066000Y-93853000D03*
D23*
X147066000Y-91313000D03*
X147066000Y-92583000D03*
D24*
X135050500Y-93662500D03*
X133300500Y-93662500D03*
D25*
X133604000Y-98411000D03*
X133604000Y-96661000D03*
D26*
X135128000Y-96661000D03*
X135128000Y-98411000D03*
D24*
X135050500Y-95123000D03*
X133300500Y-95123000D03*
X136511000Y-99949000D03*
X134761000Y-99949000D03*
X140194000Y-99949000D03*
X138444000Y-99949000D03*
X143496000Y-99949000D03*
X141746000Y-99949000D03*
D26*
X146558000Y-96153000D03*
X146558000Y-97903000D03*
D25*
X145034000Y-97903000D03*
X145034000Y-96153000D03*
D27*
X149773500Y-96075500D03*
X151523500Y-96075500D03*
X153112500Y-96075500D03*
X154862500Y-96075500D03*
X149773500Y-97599500D03*
X151523500Y-97599500D03*
X153098500Y-97599500D03*
X154848500Y-97599500D03*
D25*
X216662000Y-124700000D03*
X216662000Y-122950000D03*
D24*
X216930000Y-90805000D03*
X218680000Y-90805000D03*
X216930000Y-88773000D03*
X218680000Y-88773000D03*
X216930000Y-98933000D03*
X218680000Y-98933000D03*
X216930000Y-96901000D03*
X218680000Y-96901000D03*
D25*
X207772000Y-124446000D03*
X207772000Y-122696000D03*
D24*
X218680000Y-92837000D03*
X216930000Y-92837000D03*
X218680000Y-86741000D03*
X216930000Y-86741000D03*
X218680000Y-100965000D03*
X216930000Y-100965000D03*
X218680000Y-94869000D03*
X216930000Y-94869000D03*
X203186000Y-129794000D03*
X201436000Y-129794000D03*
D25*
X201676000Y-124446000D03*
X201676000Y-122696000D03*
D27*
X204738000Y-129794000D03*
X206488000Y-129794000D03*
D25*
X204724000Y-124446000D03*
X204724000Y-122696000D03*
D27*
X160415000Y-93789500D03*
X162165000Y-93789500D03*
D25*
X163703000Y-94093000D03*
X163703000Y-92343000D03*
D24*
X160415000Y-92329000D03*
X162165000Y-92329000D03*
D27*
X160415000Y-95504000D03*
X162165000Y-95504000D03*
X162066000Y-98933000D03*
X163816000Y-98933000D03*
D28*
X151876000Y-93535500D03*
X149876000Y-94485500D03*
X149876000Y-92585500D03*
D29*
X202565000Y-126050000D03*
X203215000Y-127950000D03*
X201915000Y-127950000D03*
X205359000Y-126050000D03*
X206009000Y-127950000D03*
X204709000Y-127950000D03*
D20*
X202438000Y-134874000D03*
X202438000Y-132334000D03*
X204978000Y-134874000D03*
D30*
X204978000Y-132334000D03*
D20*
X139954000Y-91757500D03*
D30*
X142494000Y-91757500D03*
D31*
X137397000Y-98343000D03*
X137397000Y-97693000D03*
X137397000Y-97043000D03*
X137397000Y-96393000D03*
X137397000Y-95743000D03*
X137397000Y-95093000D03*
X137397000Y-94443000D03*
X143273000Y-94443000D03*
X143273000Y-95093000D03*
X143273000Y-95743000D03*
X143273000Y-96393000D03*
X143273000Y-97043000D03*
X143273000Y-97693000D03*
X143273000Y-98343000D03*
D32*
X214917000Y-122237500D03*
X214917000Y-123507500D03*
X214917000Y-124777500D03*
X214917000Y-126047500D03*
X209517000Y-126047500D03*
X209517000Y-124777500D03*
X209517000Y-123507500D03*
X209517000Y-122237500D03*
D33*
X216535000Y-135636000D03*
D34*
X216535000Y-128016000D03*
D33*
X213995000Y-128016000D03*
D35*
X213995000Y-135636000D03*
D33*
X208915000Y-135636000D03*
D34*
X208915000Y-128016000D03*
D33*
X211455000Y-128016000D03*
D35*
X211455000Y-135636000D03*
D26*
X148209000Y-96153000D03*
X148209000Y-97903000D03*
X203200000Y-122696000D03*
X203200000Y-124446000D03*
X206248000Y-122696000D03*
X206248000Y-124446000D03*
D25*
X165227000Y-94093000D03*
X165227000Y-92343000D03*
D27*
X160415000Y-97028000D03*
X162165000Y-97028000D03*
D36*
X199157600Y-133934200D03*
X199157600Y-136434200D03*
X194157600Y-128934200D03*
X189157600Y-133934200D03*
X189157600Y-136434200D03*
D37*
X189157600Y-128934200D03*
X199157600Y-128934200D03*
D38*
X194157600Y-133934200D03*
D39*
X128261000Y-128527000D03*
X118261000Y-128527000D03*
D40*
X126761000Y-125857000D03*
X124261000Y-125857000D03*
X122261000Y-125857000D03*
X119761000Y-125857000D03*
D41*
X177538000Y-82931000D03*
X184038000Y-82931000D03*
D25*
X188214000Y-99808000D03*
X188214000Y-98058000D03*
X185166000Y-105650000D03*
X185166000Y-103900000D03*
D42*
X187706000Y-103870000D03*
X186756000Y-101870000D03*
X188656000Y-101870000D03*
D43*
X186906000Y-105537000D03*
X188506000Y-105537000D03*
D20*
X145161000Y-122809000D03*
D44*
X142621000Y-122809000D03*
D20*
X138938000Y-122809000D03*
X136398000Y-122809000D03*
D44*
X133858000Y-122809000D03*
D20*
X151384000Y-122809000D03*
D44*
X148844000Y-122809000D03*
D45*
X167597000Y-95751000D03*
X167597000Y-97651000D03*
X165397000Y-97651000D03*
X165397000Y-96701000D03*
X165397000Y-95751000D03*
X157310000Y-92449000D03*
X157310000Y-94349000D03*
X155110000Y-94349000D03*
X155110000Y-93399000D03*
X155110000Y-92449000D03*
D26*
X163830000Y-95645000D03*
X163830000Y-97395000D03*
D25*
X158877000Y-94220000D03*
X158877000Y-92470000D03*
D26*
X153416000Y-92470000D03*
X153416000Y-94220000D03*
D46*
X182193000Y-129615000D03*
X135153000Y-129615000D03*
D40*
X175233000Y-128905000D03*
X173853000Y-130325000D03*
X172473000Y-128905000D03*
X171093000Y-130325000D03*
X169713000Y-128905000D03*
X168333000Y-130325000D03*
X166953000Y-128905000D03*
X165573000Y-130325000D03*
X164193000Y-128905000D03*
X162813000Y-130325000D03*
X161433000Y-128905000D03*
X160053000Y-130325000D03*
X158673000Y-128905000D03*
X157293000Y-130325000D03*
X155913000Y-128905000D03*
X154533000Y-130325000D03*
X153153000Y-128905000D03*
X151773000Y-130325000D03*
X150393000Y-128905000D03*
X149013000Y-130325000D03*
X147633000Y-128905000D03*
X146253000Y-130325000D03*
X144873000Y-128905000D03*
X143493000Y-130325000D03*
X142113000Y-128905000D03*
D47*
X186396000Y-90230000D03*
X186396000Y-90730000D03*
X186396000Y-91230000D03*
X186396000Y-91730000D03*
X186396000Y-92230000D03*
X186396000Y-92730000D03*
X186396000Y-93230000D03*
X186396000Y-93730000D03*
X186396000Y-94230000D03*
X186396000Y-94730000D03*
X186396000Y-95230000D03*
X186396000Y-95730000D03*
X186396000Y-96230000D03*
X186396000Y-96730000D03*
X186396000Y-97230000D03*
X186396000Y-97730000D03*
D48*
X184471000Y-99655000D03*
X183971000Y-99655000D03*
X183471000Y-99655000D03*
X182971000Y-99655000D03*
X182471000Y-99655000D03*
X181971000Y-99655000D03*
X181471000Y-99655000D03*
X180971000Y-99655000D03*
X180471000Y-99655000D03*
X179971000Y-99655000D03*
X179471000Y-99655000D03*
X178971000Y-99655000D03*
X178471000Y-99655000D03*
X177971000Y-99655000D03*
X177471000Y-99655000D03*
X176971000Y-99655000D03*
D47*
X175046000Y-97730000D03*
X175046000Y-97230000D03*
X175046000Y-96730000D03*
X175046000Y-96230000D03*
X175046000Y-95730000D03*
X175046000Y-95230000D03*
X175046000Y-94730000D03*
X175046000Y-94230000D03*
X175046000Y-93730000D03*
X175046000Y-93230000D03*
X175046000Y-92730000D03*
X175046000Y-92230000D03*
X175046000Y-91730000D03*
X175046000Y-91230000D03*
X175046000Y-90730000D03*
X175046000Y-90230000D03*
D48*
X176971000Y-88305000D03*
X177471000Y-88305000D03*
X177971000Y-88305000D03*
X178471000Y-88305000D03*
X178971000Y-88305000D03*
X179471000Y-88305000D03*
X179971000Y-88305000D03*
X180471000Y-88305000D03*
X180971000Y-88305000D03*
X181471000Y-88305000D03*
X181971000Y-88305000D03*
X182471000Y-88305000D03*
X182971000Y-88305000D03*
X183471000Y-88305000D03*
X183971000Y-88305000D03*
X184471000Y-88305000D03*
D25*
X189484000Y-92315000D03*
X189484000Y-90565000D03*
X191008000Y-92315000D03*
X191008000Y-90565000D03*
D49*
X174625000Y-111760000D03*
D20*
X174625000Y-109220000D03*
X174625000Y-106680000D03*
D44*
X195072000Y-71501000D03*
D20*
X197612000Y-71501000D03*
X200152000Y-71501000D03*
X202692000Y-71501000D03*
X205232000Y-71501000D03*
X207772000Y-71501000D03*
X210312000Y-71501000D03*
X212852000Y-71501000D03*
D44*
X195072000Y-86487000D03*
D20*
X197612000Y-86487000D03*
X200152000Y-86487000D03*
X202692000Y-86487000D03*
X205232000Y-86487000D03*
X207772000Y-86487000D03*
X210312000Y-86487000D03*
X212852000Y-86487000D03*
D44*
X195072000Y-101473000D03*
D20*
X197612000Y-101473000D03*
X200152000Y-101473000D03*
X202692000Y-101473000D03*
X205232000Y-101473000D03*
X207772000Y-101473000D03*
X210312000Y-101473000D03*
X212852000Y-101473000D03*
D44*
X195072000Y-116459000D03*
D20*
X197612000Y-116459000D03*
X200152000Y-116459000D03*
X202692000Y-116459000D03*
X205232000Y-116459000D03*
X207772000Y-116459000D03*
X210312000Y-116459000D03*
X212852000Y-116459000D03*
D44*
X148717000Y-71501000D03*
D20*
X151257000Y-71501000D03*
X153797000Y-71501000D03*
X156337000Y-71501000D03*
X158877000Y-71501000D03*
X161417000Y-71501000D03*
X163957000Y-71501000D03*
X166497000Y-71501000D03*
X166497000Y-86487000D03*
X163957000Y-86487000D03*
X161417000Y-86487000D03*
X158877000Y-86487000D03*
X156337000Y-86487000D03*
X153797000Y-86487000D03*
X151257000Y-86487000D03*
D44*
X148717000Y-86487000D03*
X148717000Y-101473000D03*
D20*
X151257000Y-101473000D03*
X153797000Y-101473000D03*
X156337000Y-101473000D03*
X158877000Y-101473000D03*
X161417000Y-101473000D03*
X163957000Y-101473000D03*
X166497000Y-101473000D03*
X166497000Y-116459000D03*
X163957000Y-116459000D03*
X161417000Y-116459000D03*
X158877000Y-116459000D03*
X156337000Y-116459000D03*
X153797000Y-116459000D03*
X151257000Y-116459000D03*
D44*
X148717000Y-116459000D03*
X117221000Y-71501000D03*
D20*
X119761000Y-71501000D03*
X122301000Y-71501000D03*
X124841000Y-71501000D03*
X127381000Y-71501000D03*
X129921000Y-71501000D03*
D44*
X117221000Y-101473000D03*
D20*
X119761000Y-101473000D03*
X122301000Y-101473000D03*
X124841000Y-101473000D03*
X127381000Y-101473000D03*
X129921000Y-101473000D03*
X129921000Y-86487000D03*
X127381000Y-86487000D03*
X124841000Y-86487000D03*
X122301000Y-86487000D03*
X119761000Y-86487000D03*
D44*
X117221000Y-86487000D03*
D20*
X129921000Y-116459000D03*
X127381000Y-116459000D03*
X124841000Y-116459000D03*
X122301000Y-116459000D03*
X119761000Y-116459000D03*
D44*
X117221000Y-116459000D03*
M02*
