M48
; DRILL file {KiCad (6.0.4)} date Sun 17 Apr 2022 05:26:50 PM CDT
; FORMAT={-:-/ absolute / inch / decimal}
; #@! TF.CreationDate,2022-04-17T17:26:50-05:00
; #@! TF.GenerationSoftware,Kicad,Pcbnew,(6.0.4)
; #@! TF.FileFunction,MixedPlating,1,2
FMAT,2
INCH
; #@! TA.AperFunction,Plated,PTH,ViaDrill
T1C0.0157
; #@! TA.AperFunction,Plated,PTH,ComponentDrill
T2C0.0295
; #@! TA.AperFunction,Plated,PTH,ComponentDrill
T3C0.0315
; #@! TA.AperFunction,Plated,PTH,ComponentDrill
T4C0.0354
; #@! TA.AperFunction,Plated,PTH,ComponentDrill
T5C0.0394
; #@! TA.AperFunction,Plated,PTH,ComponentDrill
T6C0.0591
; #@! TA.AperFunction,Plated,PTH,ComponentDrill
T7C0.0906
; #@! TA.AperFunction,Plated,PTH,ComponentDrill
T8C0.1063
; #@! TA.AperFunction,Plated,PTH,ComponentDrill
T9C0.1260
; #@! TA.AperFunction,NonPlated,NPTH,ComponentDrill
T10C0.0472
%
G90
G05
T1
X5.49Y-3.845
X5.565Y-3.845
X5.985Y-3.73
X6.04Y-3.585
X6.255Y-3.765
X6.51Y-3.9
X6.56Y-3.71
X6.65Y-3.805
X6.825Y-3.565
X6.855Y-3.935
X6.92Y-4.635
X6.92Y-4.685
X6.92Y-4.75
X6.955Y-3.61
X6.955Y-3.83
X7.015Y-3.17
X7.025Y-3.535
X7.085Y-3.535
X7.165Y-3.535
X7.165Y-3.8
X7.215Y-3.17
X7.25Y-4.635
X7.25Y-4.685
X7.25Y-4.75
X7.255Y-3.985
X7.275Y-3.54
X7.275Y-3.585
X7.31Y-3.925
X7.345Y-3.96
X7.41Y-3.62
X8.31Y-4.795
X8.31Y-4.975
X8.39Y-4.74
X8.39Y-4.79
T2
X5.79Y-3.595
X5.79Y-3.645
X5.79Y-3.695
T3
X4.265Y-4.805
X4.265Y-4.8837
X4.265Y-4.9625
X8.225Y-5.04
X8.225Y-5.34
X8.325Y-5.04
X8.325Y-5.34
X8.425Y-5.04
X8.425Y-5.34
X8.525Y-5.04
X8.525Y-5.34
T4
X4.715Y-4.955
X4.8134Y-4.955
X4.8922Y-4.955
X4.9906Y-4.955
X5.595Y-5.075
X5.6493Y-5.1309
X5.7037Y-5.075
X5.758Y-5.1309
X5.8123Y-5.075
X5.8667Y-5.1309
X5.921Y-5.075
X5.9753Y-5.1309
X6.0296Y-5.075
X6.084Y-5.1309
X6.1383Y-5.075
X6.1926Y-5.1309
X6.247Y-5.075
X6.3013Y-5.1309
X6.3556Y-5.075
X6.41Y-5.1309
X6.4643Y-5.075
X6.5186Y-5.1309
X6.573Y-5.075
X6.6273Y-5.1309
X6.6816Y-5.075
X6.7359Y-5.1309
X6.7903Y-5.075
X6.8446Y-5.1309
X6.8989Y-5.075
T5
X4.615Y-2.815
X4.615Y-3.405
X4.615Y-3.995
X4.615Y-4.585
X4.715Y-2.815
X4.715Y-3.405
X4.715Y-3.995
X4.715Y-4.585
X4.815Y-2.815
X4.815Y-3.405
X4.815Y-3.995
X4.815Y-4.585
X4.915Y-2.815
X4.915Y-3.405
X4.915Y-3.995
X4.915Y-4.585
X5.015Y-2.815
X5.015Y-3.405
X5.015Y-3.995
X5.015Y-4.585
X5.115Y-2.815
X5.115Y-3.405
X5.115Y-3.995
X5.115Y-4.585
X5.27Y-4.835
X5.37Y-4.835
X5.47Y-4.835
X5.51Y-3.6125
X5.61Y-3.6125
X5.615Y-4.835
X5.715Y-4.835
X5.855Y-2.815
X5.855Y-3.405
X5.855Y-3.995
X5.855Y-4.585
X5.86Y-4.835
X5.955Y-2.815
X5.955Y-3.405
X5.955Y-3.995
X5.955Y-4.585
X5.96Y-4.835
X6.055Y-2.815
X6.055Y-3.405
X6.055Y-3.995
X6.055Y-4.585
X6.155Y-2.815
X6.155Y-3.405
X6.155Y-3.995
X6.155Y-4.585
X6.255Y-2.815
X6.255Y-3.405
X6.255Y-3.995
X6.255Y-4.585
X6.355Y-2.815
X6.355Y-3.405
X6.355Y-3.995
X6.355Y-4.585
X6.455Y-2.815
X6.455Y-3.405
X6.455Y-3.995
X6.455Y-4.585
X6.555Y-2.815
X6.555Y-3.405
X6.555Y-3.995
X6.555Y-4.585
X6.875Y-4.2
X6.875Y-4.3
X6.875Y-4.4
X7.53Y-4.14
X7.53Y-4.24
X7.53Y-4.34
X7.53Y-4.44
X7.68Y-2.815
X7.68Y-3.405
X7.68Y-3.995
X7.68Y-4.585
X7.78Y-2.815
X7.78Y-3.405
X7.78Y-3.995
X7.78Y-4.585
X7.88Y-2.815
X7.88Y-3.405
X7.88Y-3.995
X7.88Y-4.585
X7.97Y-5.21
X7.97Y-5.31
X7.98Y-2.815
X7.98Y-3.405
X7.98Y-3.995
X7.98Y-4.585
X8.07Y-5.21
X8.07Y-5.31
X8.08Y-2.815
X8.08Y-3.405
X8.08Y-3.995
X8.08Y-4.585
X8.18Y-2.815
X8.18Y-3.405
X8.18Y-3.995
X8.18Y-4.585
X8.28Y-2.815
X8.28Y-3.405
X8.28Y-3.995
X8.28Y-4.585
X8.38Y-2.815
X8.38Y-3.405
X8.38Y-3.995
X8.38Y-4.585
X8.53Y-2.965
X8.53Y-3.065
X8.53Y-3.165
X8.53Y-3.265
X8.53Y-4.14
X8.53Y-4.24
X8.53Y-4.34
X8.53Y-4.44
X8.63Y-2.965
X8.63Y-3.065
X8.63Y-3.165
X8.63Y-3.265
X8.63Y-4.14
X8.63Y-4.24
X8.63Y-4.34
X8.63Y-4.44
T6
X4.265Y-4.7223
X4.265Y-5.0452
T7
X4.6559Y-5.0601
X5.0496Y-5.0601
T8
X4.37Y-2.775
X4.37Y-5.25
X8.79Y-2.77
X8.79Y-5.25
T9
X5.321Y-5.103
X7.173Y-5.103
T10
X7.4471Y-5.273
X7.4471Y-5.3714
X7.644Y-5.0761
X7.8409Y-5.273
X7.8409Y-5.3714
T3
G00X7.4471Y-5.0899
M15
G01X7.4471Y-5.0624
M16
G05
G00X7.6302Y-5.273
M15
G01X7.6578Y-5.273
M16
G05
G00X7.8409Y-5.0899
M15
G01X7.8409Y-5.0624
M16
G05
T0
M30
