G04 #@! TF.GenerationSoftware,KiCad,Pcbnew,(5.1.5)-3*
G04 #@! TF.CreationDate,2021-03-15T11:56:59-05:00*
G04 #@! TF.ProjectId,channel,6368616e-6e65-46c2-9e6b-696361645f70,rev?*
G04 #@! TF.SameCoordinates,Original*
G04 #@! TF.FileFunction,Copper,L2,Bot*
G04 #@! TF.FilePolarity,Positive*
%FSLAX46Y46*%
G04 Gerber Fmt 4.6, Leading zero omitted, Abs format (unit mm)*
G04 Created by KiCad (PCBNEW (5.1.5)-3) date 2021-03-15 11:56:59*
%MOMM*%
%LPD*%
G04 APERTURE LIST*
%ADD10C,0.100000*%
%ADD11O,1.700000X1.700000*%
%ADD12R,1.700000X1.700000*%
%ADD13C,0.800000*%
%ADD14C,0.250000*%
%ADD15C,0.254000*%
G04 APERTURE END LIST*
G04 #@! TA.AperFunction,SMDPad,CuDef*
D10*
G36*
X162566779Y-93136644D02*
G01*
X162589834Y-93140063D01*
X162612443Y-93145727D01*
X162634387Y-93153579D01*
X162655457Y-93163544D01*
X162675448Y-93175526D01*
X162694168Y-93189410D01*
X162711438Y-93205062D01*
X162727090Y-93222332D01*
X162740974Y-93241052D01*
X162752956Y-93261043D01*
X162762921Y-93282113D01*
X162770773Y-93304057D01*
X162776437Y-93326666D01*
X162779856Y-93349721D01*
X162781000Y-93373000D01*
X162781000Y-93973000D01*
X162779856Y-93996279D01*
X162776437Y-94019334D01*
X162770773Y-94041943D01*
X162762921Y-94063887D01*
X162752956Y-94084957D01*
X162740974Y-94104948D01*
X162727090Y-94123668D01*
X162711438Y-94140938D01*
X162694168Y-94156590D01*
X162675448Y-94170474D01*
X162655457Y-94182456D01*
X162634387Y-94192421D01*
X162612443Y-94200273D01*
X162589834Y-94205937D01*
X162566779Y-94209356D01*
X162543500Y-94210500D01*
X162068500Y-94210500D01*
X162045221Y-94209356D01*
X162022166Y-94205937D01*
X161999557Y-94200273D01*
X161977613Y-94192421D01*
X161956543Y-94182456D01*
X161936552Y-94170474D01*
X161917832Y-94156590D01*
X161900562Y-94140938D01*
X161884910Y-94123668D01*
X161871026Y-94104948D01*
X161859044Y-94084957D01*
X161849079Y-94063887D01*
X161841227Y-94041943D01*
X161835563Y-94019334D01*
X161832144Y-93996279D01*
X161831000Y-93973000D01*
X161831000Y-93373000D01*
X161832144Y-93349721D01*
X161835563Y-93326666D01*
X161841227Y-93304057D01*
X161849079Y-93282113D01*
X161859044Y-93261043D01*
X161871026Y-93241052D01*
X161884910Y-93222332D01*
X161900562Y-93205062D01*
X161917832Y-93189410D01*
X161936552Y-93175526D01*
X161956543Y-93163544D01*
X161977613Y-93153579D01*
X161999557Y-93145727D01*
X162022166Y-93140063D01*
X162045221Y-93136644D01*
X162068500Y-93135500D01*
X162543500Y-93135500D01*
X162566779Y-93136644D01*
G37*
G04 #@! TD.AperFunction*
G04 #@! TA.AperFunction,SMDPad,CuDef*
G36*
X162566779Y-91411644D02*
G01*
X162589834Y-91415063D01*
X162612443Y-91420727D01*
X162634387Y-91428579D01*
X162655457Y-91438544D01*
X162675448Y-91450526D01*
X162694168Y-91464410D01*
X162711438Y-91480062D01*
X162727090Y-91497332D01*
X162740974Y-91516052D01*
X162752956Y-91536043D01*
X162762921Y-91557113D01*
X162770773Y-91579057D01*
X162776437Y-91601666D01*
X162779856Y-91624721D01*
X162781000Y-91648000D01*
X162781000Y-92248000D01*
X162779856Y-92271279D01*
X162776437Y-92294334D01*
X162770773Y-92316943D01*
X162762921Y-92338887D01*
X162752956Y-92359957D01*
X162740974Y-92379948D01*
X162727090Y-92398668D01*
X162711438Y-92415938D01*
X162694168Y-92431590D01*
X162675448Y-92445474D01*
X162655457Y-92457456D01*
X162634387Y-92467421D01*
X162612443Y-92475273D01*
X162589834Y-92480937D01*
X162566779Y-92484356D01*
X162543500Y-92485500D01*
X162068500Y-92485500D01*
X162045221Y-92484356D01*
X162022166Y-92480937D01*
X161999557Y-92475273D01*
X161977613Y-92467421D01*
X161956543Y-92457456D01*
X161936552Y-92445474D01*
X161917832Y-92431590D01*
X161900562Y-92415938D01*
X161884910Y-92398668D01*
X161871026Y-92379948D01*
X161859044Y-92359957D01*
X161849079Y-92338887D01*
X161841227Y-92316943D01*
X161835563Y-92294334D01*
X161832144Y-92271279D01*
X161831000Y-92248000D01*
X161831000Y-91648000D01*
X161832144Y-91624721D01*
X161835563Y-91601666D01*
X161841227Y-91579057D01*
X161849079Y-91557113D01*
X161859044Y-91536043D01*
X161871026Y-91516052D01*
X161884910Y-91497332D01*
X161900562Y-91480062D01*
X161917832Y-91464410D01*
X161936552Y-91450526D01*
X161956543Y-91438544D01*
X161977613Y-91428579D01*
X161999557Y-91420727D01*
X162022166Y-91415063D01*
X162045221Y-91411644D01*
X162068500Y-91410500D01*
X162543500Y-91410500D01*
X162566779Y-91411644D01*
G37*
G04 #@! TD.AperFunction*
D11*
X118745000Y-102362000D03*
X116205000Y-102362000D03*
X118745000Y-99822000D03*
X116205000Y-99822000D03*
X118745000Y-97282000D03*
X116205000Y-97282000D03*
X118745000Y-94742000D03*
D12*
X116205000Y-94742000D03*
D11*
X99060000Y-115951000D03*
X101600000Y-115951000D03*
X104140000Y-115951000D03*
X106680000Y-115951000D03*
X109220000Y-115951000D03*
D12*
X111760000Y-115951000D03*
D11*
X130556000Y-115951000D03*
X133096000Y-115951000D03*
X135636000Y-115951000D03*
X138176000Y-115951000D03*
X140716000Y-115951000D03*
X143256000Y-115951000D03*
X145796000Y-115951000D03*
D12*
X148336000Y-115951000D03*
X190627000Y-96266000D03*
D11*
X190627000Y-98806000D03*
X188087000Y-96266000D03*
X188087000Y-98806000D03*
X185547000Y-96266000D03*
X185547000Y-98806000D03*
D12*
X174752000Y-94615000D03*
D11*
X174752000Y-97155000D03*
X172212000Y-94615000D03*
X172212000Y-97155000D03*
X169672000Y-94615000D03*
X169672000Y-97155000D03*
D12*
X163957000Y-112141000D03*
D11*
X166497000Y-112141000D03*
X163957000Y-114681000D03*
X166497000Y-114681000D03*
X163957000Y-117221000D03*
X166497000Y-117221000D03*
X145288000Y-105029000D03*
D12*
X142748000Y-105029000D03*
D11*
X176911000Y-115951000D03*
X179451000Y-115951000D03*
X181991000Y-115951000D03*
X184531000Y-115951000D03*
X187071000Y-115951000D03*
X189611000Y-115951000D03*
X192151000Y-115951000D03*
D12*
X194691000Y-115951000D03*
X152146000Y-94615000D03*
D11*
X152146000Y-97155000D03*
G04 #@! TA.AperFunction,SMDPad,CuDef*
D10*
G36*
X122307779Y-93136644D02*
G01*
X122330834Y-93140063D01*
X122353443Y-93145727D01*
X122375387Y-93153579D01*
X122396457Y-93163544D01*
X122416448Y-93175526D01*
X122435168Y-93189410D01*
X122452438Y-93205062D01*
X122468090Y-93222332D01*
X122481974Y-93241052D01*
X122493956Y-93261043D01*
X122503921Y-93282113D01*
X122511773Y-93304057D01*
X122517437Y-93326666D01*
X122520856Y-93349721D01*
X122522000Y-93373000D01*
X122522000Y-93973000D01*
X122520856Y-93996279D01*
X122517437Y-94019334D01*
X122511773Y-94041943D01*
X122503921Y-94063887D01*
X122493956Y-94084957D01*
X122481974Y-94104948D01*
X122468090Y-94123668D01*
X122452438Y-94140938D01*
X122435168Y-94156590D01*
X122416448Y-94170474D01*
X122396457Y-94182456D01*
X122375387Y-94192421D01*
X122353443Y-94200273D01*
X122330834Y-94205937D01*
X122307779Y-94209356D01*
X122284500Y-94210500D01*
X121809500Y-94210500D01*
X121786221Y-94209356D01*
X121763166Y-94205937D01*
X121740557Y-94200273D01*
X121718613Y-94192421D01*
X121697543Y-94182456D01*
X121677552Y-94170474D01*
X121658832Y-94156590D01*
X121641562Y-94140938D01*
X121625910Y-94123668D01*
X121612026Y-94104948D01*
X121600044Y-94084957D01*
X121590079Y-94063887D01*
X121582227Y-94041943D01*
X121576563Y-94019334D01*
X121573144Y-93996279D01*
X121572000Y-93973000D01*
X121572000Y-93373000D01*
X121573144Y-93349721D01*
X121576563Y-93326666D01*
X121582227Y-93304057D01*
X121590079Y-93282113D01*
X121600044Y-93261043D01*
X121612026Y-93241052D01*
X121625910Y-93222332D01*
X121641562Y-93205062D01*
X121658832Y-93189410D01*
X121677552Y-93175526D01*
X121697543Y-93163544D01*
X121718613Y-93153579D01*
X121740557Y-93145727D01*
X121763166Y-93140063D01*
X121786221Y-93136644D01*
X121809500Y-93135500D01*
X122284500Y-93135500D01*
X122307779Y-93136644D01*
G37*
G04 #@! TD.AperFunction*
G04 #@! TA.AperFunction,SMDPad,CuDef*
G36*
X122307779Y-91411644D02*
G01*
X122330834Y-91415063D01*
X122353443Y-91420727D01*
X122375387Y-91428579D01*
X122396457Y-91438544D01*
X122416448Y-91450526D01*
X122435168Y-91464410D01*
X122452438Y-91480062D01*
X122468090Y-91497332D01*
X122481974Y-91516052D01*
X122493956Y-91536043D01*
X122503921Y-91557113D01*
X122511773Y-91579057D01*
X122517437Y-91601666D01*
X122520856Y-91624721D01*
X122522000Y-91648000D01*
X122522000Y-92248000D01*
X122520856Y-92271279D01*
X122517437Y-92294334D01*
X122511773Y-92316943D01*
X122503921Y-92338887D01*
X122493956Y-92359957D01*
X122481974Y-92379948D01*
X122468090Y-92398668D01*
X122452438Y-92415938D01*
X122435168Y-92431590D01*
X122416448Y-92445474D01*
X122396457Y-92457456D01*
X122375387Y-92467421D01*
X122353443Y-92475273D01*
X122330834Y-92480937D01*
X122307779Y-92484356D01*
X122284500Y-92485500D01*
X121809500Y-92485500D01*
X121786221Y-92484356D01*
X121763166Y-92480937D01*
X121740557Y-92475273D01*
X121718613Y-92467421D01*
X121697543Y-92457456D01*
X121677552Y-92445474D01*
X121658832Y-92431590D01*
X121641562Y-92415938D01*
X121625910Y-92398668D01*
X121612026Y-92379948D01*
X121600044Y-92359957D01*
X121590079Y-92338887D01*
X121582227Y-92316943D01*
X121576563Y-92294334D01*
X121573144Y-92271279D01*
X121572000Y-92248000D01*
X121572000Y-91648000D01*
X121573144Y-91624721D01*
X121576563Y-91601666D01*
X121582227Y-91579057D01*
X121590079Y-91557113D01*
X121600044Y-91536043D01*
X121612026Y-91516052D01*
X121625910Y-91497332D01*
X121641562Y-91480062D01*
X121658832Y-91464410D01*
X121677552Y-91450526D01*
X121697543Y-91438544D01*
X121718613Y-91428579D01*
X121740557Y-91420727D01*
X121763166Y-91415063D01*
X121786221Y-91411644D01*
X121809500Y-91410500D01*
X122284500Y-91410500D01*
X122307779Y-91411644D01*
G37*
G04 #@! TD.AperFunction*
D11*
X116205000Y-106045000D03*
X118745000Y-106045000D03*
X116205000Y-108585000D03*
D12*
X118745000Y-108585000D03*
X135382000Y-110744000D03*
D11*
X135382000Y-108204000D03*
G04 #@! TA.AperFunction,SMDPad,CuDef*
D10*
G36*
X184753779Y-107476144D02*
G01*
X184776834Y-107479563D01*
X184799443Y-107485227D01*
X184821387Y-107493079D01*
X184842457Y-107503044D01*
X184862448Y-107515026D01*
X184881168Y-107528910D01*
X184898438Y-107544562D01*
X184914090Y-107561832D01*
X184927974Y-107580552D01*
X184939956Y-107600543D01*
X184949921Y-107621613D01*
X184957773Y-107643557D01*
X184963437Y-107666166D01*
X184966856Y-107689221D01*
X184968000Y-107712500D01*
X184968000Y-108187500D01*
X184966856Y-108210779D01*
X184963437Y-108233834D01*
X184957773Y-108256443D01*
X184949921Y-108278387D01*
X184939956Y-108299457D01*
X184927974Y-108319448D01*
X184914090Y-108338168D01*
X184898438Y-108355438D01*
X184881168Y-108371090D01*
X184862448Y-108384974D01*
X184842457Y-108396956D01*
X184821387Y-108406921D01*
X184799443Y-108414773D01*
X184776834Y-108420437D01*
X184753779Y-108423856D01*
X184730500Y-108425000D01*
X184130500Y-108425000D01*
X184107221Y-108423856D01*
X184084166Y-108420437D01*
X184061557Y-108414773D01*
X184039613Y-108406921D01*
X184018543Y-108396956D01*
X183998552Y-108384974D01*
X183979832Y-108371090D01*
X183962562Y-108355438D01*
X183946910Y-108338168D01*
X183933026Y-108319448D01*
X183921044Y-108299457D01*
X183911079Y-108278387D01*
X183903227Y-108256443D01*
X183897563Y-108233834D01*
X183894144Y-108210779D01*
X183893000Y-108187500D01*
X183893000Y-107712500D01*
X183894144Y-107689221D01*
X183897563Y-107666166D01*
X183903227Y-107643557D01*
X183911079Y-107621613D01*
X183921044Y-107600543D01*
X183933026Y-107580552D01*
X183946910Y-107561832D01*
X183962562Y-107544562D01*
X183979832Y-107528910D01*
X183998552Y-107515026D01*
X184018543Y-107503044D01*
X184039613Y-107493079D01*
X184061557Y-107485227D01*
X184084166Y-107479563D01*
X184107221Y-107476144D01*
X184130500Y-107475000D01*
X184730500Y-107475000D01*
X184753779Y-107476144D01*
G37*
G04 #@! TD.AperFunction*
G04 #@! TA.AperFunction,SMDPad,CuDef*
G36*
X186478779Y-107476144D02*
G01*
X186501834Y-107479563D01*
X186524443Y-107485227D01*
X186546387Y-107493079D01*
X186567457Y-107503044D01*
X186587448Y-107515026D01*
X186606168Y-107528910D01*
X186623438Y-107544562D01*
X186639090Y-107561832D01*
X186652974Y-107580552D01*
X186664956Y-107600543D01*
X186674921Y-107621613D01*
X186682773Y-107643557D01*
X186688437Y-107666166D01*
X186691856Y-107689221D01*
X186693000Y-107712500D01*
X186693000Y-108187500D01*
X186691856Y-108210779D01*
X186688437Y-108233834D01*
X186682773Y-108256443D01*
X186674921Y-108278387D01*
X186664956Y-108299457D01*
X186652974Y-108319448D01*
X186639090Y-108338168D01*
X186623438Y-108355438D01*
X186606168Y-108371090D01*
X186587448Y-108384974D01*
X186567457Y-108396956D01*
X186546387Y-108406921D01*
X186524443Y-108414773D01*
X186501834Y-108420437D01*
X186478779Y-108423856D01*
X186455500Y-108425000D01*
X185855500Y-108425000D01*
X185832221Y-108423856D01*
X185809166Y-108420437D01*
X185786557Y-108414773D01*
X185764613Y-108406921D01*
X185743543Y-108396956D01*
X185723552Y-108384974D01*
X185704832Y-108371090D01*
X185687562Y-108355438D01*
X185671910Y-108338168D01*
X185658026Y-108319448D01*
X185646044Y-108299457D01*
X185636079Y-108278387D01*
X185628227Y-108256443D01*
X185622563Y-108233834D01*
X185619144Y-108210779D01*
X185618000Y-108187500D01*
X185618000Y-107712500D01*
X185619144Y-107689221D01*
X185622563Y-107666166D01*
X185628227Y-107643557D01*
X185636079Y-107621613D01*
X185646044Y-107600543D01*
X185658026Y-107580552D01*
X185671910Y-107561832D01*
X185687562Y-107544562D01*
X185704832Y-107528910D01*
X185723552Y-107515026D01*
X185743543Y-107503044D01*
X185764613Y-107493079D01*
X185786557Y-107485227D01*
X185809166Y-107479563D01*
X185832221Y-107476144D01*
X185855500Y-107475000D01*
X186455500Y-107475000D01*
X186478779Y-107476144D01*
G37*
G04 #@! TD.AperFunction*
G04 #@! TA.AperFunction,SMDPad,CuDef*
G36*
X155289779Y-109635144D02*
G01*
X155312834Y-109638563D01*
X155335443Y-109644227D01*
X155357387Y-109652079D01*
X155378457Y-109662044D01*
X155398448Y-109674026D01*
X155417168Y-109687910D01*
X155434438Y-109703562D01*
X155450090Y-109720832D01*
X155463974Y-109739552D01*
X155475956Y-109759543D01*
X155485921Y-109780613D01*
X155493773Y-109802557D01*
X155499437Y-109825166D01*
X155502856Y-109848221D01*
X155504000Y-109871500D01*
X155504000Y-110346500D01*
X155502856Y-110369779D01*
X155499437Y-110392834D01*
X155493773Y-110415443D01*
X155485921Y-110437387D01*
X155475956Y-110458457D01*
X155463974Y-110478448D01*
X155450090Y-110497168D01*
X155434438Y-110514438D01*
X155417168Y-110530090D01*
X155398448Y-110543974D01*
X155378457Y-110555956D01*
X155357387Y-110565921D01*
X155335443Y-110573773D01*
X155312834Y-110579437D01*
X155289779Y-110582856D01*
X155266500Y-110584000D01*
X154666500Y-110584000D01*
X154643221Y-110582856D01*
X154620166Y-110579437D01*
X154597557Y-110573773D01*
X154575613Y-110565921D01*
X154554543Y-110555956D01*
X154534552Y-110543974D01*
X154515832Y-110530090D01*
X154498562Y-110514438D01*
X154482910Y-110497168D01*
X154469026Y-110478448D01*
X154457044Y-110458457D01*
X154447079Y-110437387D01*
X154439227Y-110415443D01*
X154433563Y-110392834D01*
X154430144Y-110369779D01*
X154429000Y-110346500D01*
X154429000Y-109871500D01*
X154430144Y-109848221D01*
X154433563Y-109825166D01*
X154439227Y-109802557D01*
X154447079Y-109780613D01*
X154457044Y-109759543D01*
X154469026Y-109739552D01*
X154482910Y-109720832D01*
X154498562Y-109703562D01*
X154515832Y-109687910D01*
X154534552Y-109674026D01*
X154554543Y-109662044D01*
X154575613Y-109652079D01*
X154597557Y-109644227D01*
X154620166Y-109638563D01*
X154643221Y-109635144D01*
X154666500Y-109634000D01*
X155266500Y-109634000D01*
X155289779Y-109635144D01*
G37*
G04 #@! TD.AperFunction*
G04 #@! TA.AperFunction,SMDPad,CuDef*
G36*
X157014779Y-109635144D02*
G01*
X157037834Y-109638563D01*
X157060443Y-109644227D01*
X157082387Y-109652079D01*
X157103457Y-109662044D01*
X157123448Y-109674026D01*
X157142168Y-109687910D01*
X157159438Y-109703562D01*
X157175090Y-109720832D01*
X157188974Y-109739552D01*
X157200956Y-109759543D01*
X157210921Y-109780613D01*
X157218773Y-109802557D01*
X157224437Y-109825166D01*
X157227856Y-109848221D01*
X157229000Y-109871500D01*
X157229000Y-110346500D01*
X157227856Y-110369779D01*
X157224437Y-110392834D01*
X157218773Y-110415443D01*
X157210921Y-110437387D01*
X157200956Y-110458457D01*
X157188974Y-110478448D01*
X157175090Y-110497168D01*
X157159438Y-110514438D01*
X157142168Y-110530090D01*
X157123448Y-110543974D01*
X157103457Y-110555956D01*
X157082387Y-110565921D01*
X157060443Y-110573773D01*
X157037834Y-110579437D01*
X157014779Y-110582856D01*
X156991500Y-110584000D01*
X156391500Y-110584000D01*
X156368221Y-110582856D01*
X156345166Y-110579437D01*
X156322557Y-110573773D01*
X156300613Y-110565921D01*
X156279543Y-110555956D01*
X156259552Y-110543974D01*
X156240832Y-110530090D01*
X156223562Y-110514438D01*
X156207910Y-110497168D01*
X156194026Y-110478448D01*
X156182044Y-110458457D01*
X156172079Y-110437387D01*
X156164227Y-110415443D01*
X156158563Y-110392834D01*
X156155144Y-110369779D01*
X156154000Y-110346500D01*
X156154000Y-109871500D01*
X156155144Y-109848221D01*
X156158563Y-109825166D01*
X156164227Y-109802557D01*
X156172079Y-109780613D01*
X156182044Y-109759543D01*
X156194026Y-109739552D01*
X156207910Y-109720832D01*
X156223562Y-109703562D01*
X156240832Y-109687910D01*
X156259552Y-109674026D01*
X156279543Y-109662044D01*
X156300613Y-109652079D01*
X156322557Y-109644227D01*
X156345166Y-109638563D01*
X156368221Y-109635144D01*
X156391500Y-109634000D01*
X156991500Y-109634000D01*
X157014779Y-109635144D01*
G37*
G04 #@! TD.AperFunction*
G04 #@! TA.AperFunction,SMDPad,CuDef*
G36*
X157776779Y-105063144D02*
G01*
X157799834Y-105066563D01*
X157822443Y-105072227D01*
X157844387Y-105080079D01*
X157865457Y-105090044D01*
X157885448Y-105102026D01*
X157904168Y-105115910D01*
X157921438Y-105131562D01*
X157937090Y-105148832D01*
X157950974Y-105167552D01*
X157962956Y-105187543D01*
X157972921Y-105208613D01*
X157980773Y-105230557D01*
X157986437Y-105253166D01*
X157989856Y-105276221D01*
X157991000Y-105299500D01*
X157991000Y-105774500D01*
X157989856Y-105797779D01*
X157986437Y-105820834D01*
X157980773Y-105843443D01*
X157972921Y-105865387D01*
X157962956Y-105886457D01*
X157950974Y-105906448D01*
X157937090Y-105925168D01*
X157921438Y-105942438D01*
X157904168Y-105958090D01*
X157885448Y-105971974D01*
X157865457Y-105983956D01*
X157844387Y-105993921D01*
X157822443Y-106001773D01*
X157799834Y-106007437D01*
X157776779Y-106010856D01*
X157753500Y-106012000D01*
X157153500Y-106012000D01*
X157130221Y-106010856D01*
X157107166Y-106007437D01*
X157084557Y-106001773D01*
X157062613Y-105993921D01*
X157041543Y-105983956D01*
X157021552Y-105971974D01*
X157002832Y-105958090D01*
X156985562Y-105942438D01*
X156969910Y-105925168D01*
X156956026Y-105906448D01*
X156944044Y-105886457D01*
X156934079Y-105865387D01*
X156926227Y-105843443D01*
X156920563Y-105820834D01*
X156917144Y-105797779D01*
X156916000Y-105774500D01*
X156916000Y-105299500D01*
X156917144Y-105276221D01*
X156920563Y-105253166D01*
X156926227Y-105230557D01*
X156934079Y-105208613D01*
X156944044Y-105187543D01*
X156956026Y-105167552D01*
X156969910Y-105148832D01*
X156985562Y-105131562D01*
X157002832Y-105115910D01*
X157021552Y-105102026D01*
X157041543Y-105090044D01*
X157062613Y-105080079D01*
X157084557Y-105072227D01*
X157107166Y-105066563D01*
X157130221Y-105063144D01*
X157153500Y-105062000D01*
X157753500Y-105062000D01*
X157776779Y-105063144D01*
G37*
G04 #@! TD.AperFunction*
G04 #@! TA.AperFunction,SMDPad,CuDef*
G36*
X156051779Y-105063144D02*
G01*
X156074834Y-105066563D01*
X156097443Y-105072227D01*
X156119387Y-105080079D01*
X156140457Y-105090044D01*
X156160448Y-105102026D01*
X156179168Y-105115910D01*
X156196438Y-105131562D01*
X156212090Y-105148832D01*
X156225974Y-105167552D01*
X156237956Y-105187543D01*
X156247921Y-105208613D01*
X156255773Y-105230557D01*
X156261437Y-105253166D01*
X156264856Y-105276221D01*
X156266000Y-105299500D01*
X156266000Y-105774500D01*
X156264856Y-105797779D01*
X156261437Y-105820834D01*
X156255773Y-105843443D01*
X156247921Y-105865387D01*
X156237956Y-105886457D01*
X156225974Y-105906448D01*
X156212090Y-105925168D01*
X156196438Y-105942438D01*
X156179168Y-105958090D01*
X156160448Y-105971974D01*
X156140457Y-105983956D01*
X156119387Y-105993921D01*
X156097443Y-106001773D01*
X156074834Y-106007437D01*
X156051779Y-106010856D01*
X156028500Y-106012000D01*
X155428500Y-106012000D01*
X155405221Y-106010856D01*
X155382166Y-106007437D01*
X155359557Y-106001773D01*
X155337613Y-105993921D01*
X155316543Y-105983956D01*
X155296552Y-105971974D01*
X155277832Y-105958090D01*
X155260562Y-105942438D01*
X155244910Y-105925168D01*
X155231026Y-105906448D01*
X155219044Y-105886457D01*
X155209079Y-105865387D01*
X155201227Y-105843443D01*
X155195563Y-105820834D01*
X155192144Y-105797779D01*
X155191000Y-105774500D01*
X155191000Y-105299500D01*
X155192144Y-105276221D01*
X155195563Y-105253166D01*
X155201227Y-105230557D01*
X155209079Y-105208613D01*
X155219044Y-105187543D01*
X155231026Y-105167552D01*
X155244910Y-105148832D01*
X155260562Y-105131562D01*
X155277832Y-105115910D01*
X155296552Y-105102026D01*
X155316543Y-105090044D01*
X155337613Y-105080079D01*
X155359557Y-105072227D01*
X155382166Y-105066563D01*
X155405221Y-105063144D01*
X155428500Y-105062000D01*
X156028500Y-105062000D01*
X156051779Y-105063144D01*
G37*
G04 #@! TD.AperFunction*
G04 #@! TA.AperFunction,SMDPad,CuDef*
G36*
X143679779Y-93506144D02*
G01*
X143702834Y-93509563D01*
X143725443Y-93515227D01*
X143747387Y-93523079D01*
X143768457Y-93533044D01*
X143788448Y-93545026D01*
X143807168Y-93558910D01*
X143824438Y-93574562D01*
X143840090Y-93591832D01*
X143853974Y-93610552D01*
X143865956Y-93630543D01*
X143875921Y-93651613D01*
X143883773Y-93673557D01*
X143889437Y-93696166D01*
X143892856Y-93719221D01*
X143894000Y-93742500D01*
X143894000Y-94217500D01*
X143892856Y-94240779D01*
X143889437Y-94263834D01*
X143883773Y-94286443D01*
X143875921Y-94308387D01*
X143865956Y-94329457D01*
X143853974Y-94349448D01*
X143840090Y-94368168D01*
X143824438Y-94385438D01*
X143807168Y-94401090D01*
X143788448Y-94414974D01*
X143768457Y-94426956D01*
X143747387Y-94436921D01*
X143725443Y-94444773D01*
X143702834Y-94450437D01*
X143679779Y-94453856D01*
X143656500Y-94455000D01*
X143056500Y-94455000D01*
X143033221Y-94453856D01*
X143010166Y-94450437D01*
X142987557Y-94444773D01*
X142965613Y-94436921D01*
X142944543Y-94426956D01*
X142924552Y-94414974D01*
X142905832Y-94401090D01*
X142888562Y-94385438D01*
X142872910Y-94368168D01*
X142859026Y-94349448D01*
X142847044Y-94329457D01*
X142837079Y-94308387D01*
X142829227Y-94286443D01*
X142823563Y-94263834D01*
X142820144Y-94240779D01*
X142819000Y-94217500D01*
X142819000Y-93742500D01*
X142820144Y-93719221D01*
X142823563Y-93696166D01*
X142829227Y-93673557D01*
X142837079Y-93651613D01*
X142847044Y-93630543D01*
X142859026Y-93610552D01*
X142872910Y-93591832D01*
X142888562Y-93574562D01*
X142905832Y-93558910D01*
X142924552Y-93545026D01*
X142944543Y-93533044D01*
X142965613Y-93523079D01*
X142987557Y-93515227D01*
X143010166Y-93509563D01*
X143033221Y-93506144D01*
X143056500Y-93505000D01*
X143656500Y-93505000D01*
X143679779Y-93506144D01*
G37*
G04 #@! TD.AperFunction*
G04 #@! TA.AperFunction,SMDPad,CuDef*
G36*
X141954779Y-93506144D02*
G01*
X141977834Y-93509563D01*
X142000443Y-93515227D01*
X142022387Y-93523079D01*
X142043457Y-93533044D01*
X142063448Y-93545026D01*
X142082168Y-93558910D01*
X142099438Y-93574562D01*
X142115090Y-93591832D01*
X142128974Y-93610552D01*
X142140956Y-93630543D01*
X142150921Y-93651613D01*
X142158773Y-93673557D01*
X142164437Y-93696166D01*
X142167856Y-93719221D01*
X142169000Y-93742500D01*
X142169000Y-94217500D01*
X142167856Y-94240779D01*
X142164437Y-94263834D01*
X142158773Y-94286443D01*
X142150921Y-94308387D01*
X142140956Y-94329457D01*
X142128974Y-94349448D01*
X142115090Y-94368168D01*
X142099438Y-94385438D01*
X142082168Y-94401090D01*
X142063448Y-94414974D01*
X142043457Y-94426956D01*
X142022387Y-94436921D01*
X142000443Y-94444773D01*
X141977834Y-94450437D01*
X141954779Y-94453856D01*
X141931500Y-94455000D01*
X141331500Y-94455000D01*
X141308221Y-94453856D01*
X141285166Y-94450437D01*
X141262557Y-94444773D01*
X141240613Y-94436921D01*
X141219543Y-94426956D01*
X141199552Y-94414974D01*
X141180832Y-94401090D01*
X141163562Y-94385438D01*
X141147910Y-94368168D01*
X141134026Y-94349448D01*
X141122044Y-94329457D01*
X141112079Y-94308387D01*
X141104227Y-94286443D01*
X141098563Y-94263834D01*
X141095144Y-94240779D01*
X141094000Y-94217500D01*
X141094000Y-93742500D01*
X141095144Y-93719221D01*
X141098563Y-93696166D01*
X141104227Y-93673557D01*
X141112079Y-93651613D01*
X141122044Y-93630543D01*
X141134026Y-93610552D01*
X141147910Y-93591832D01*
X141163562Y-93574562D01*
X141180832Y-93558910D01*
X141199552Y-93545026D01*
X141219543Y-93533044D01*
X141240613Y-93523079D01*
X141262557Y-93515227D01*
X141285166Y-93509563D01*
X141308221Y-93506144D01*
X141331500Y-93505000D01*
X141931500Y-93505000D01*
X141954779Y-93506144D01*
G37*
G04 #@! TD.AperFunction*
G04 #@! TA.AperFunction,SMDPad,CuDef*
G36*
X102965779Y-98332144D02*
G01*
X102988834Y-98335563D01*
X103011443Y-98341227D01*
X103033387Y-98349079D01*
X103054457Y-98359044D01*
X103074448Y-98371026D01*
X103093168Y-98384910D01*
X103110438Y-98400562D01*
X103126090Y-98417832D01*
X103139974Y-98436552D01*
X103151956Y-98456543D01*
X103161921Y-98477613D01*
X103169773Y-98499557D01*
X103175437Y-98522166D01*
X103178856Y-98545221D01*
X103180000Y-98568500D01*
X103180000Y-99043500D01*
X103178856Y-99066779D01*
X103175437Y-99089834D01*
X103169773Y-99112443D01*
X103161921Y-99134387D01*
X103151956Y-99155457D01*
X103139974Y-99175448D01*
X103126090Y-99194168D01*
X103110438Y-99211438D01*
X103093168Y-99227090D01*
X103074448Y-99240974D01*
X103054457Y-99252956D01*
X103033387Y-99262921D01*
X103011443Y-99270773D01*
X102988834Y-99276437D01*
X102965779Y-99279856D01*
X102942500Y-99281000D01*
X102342500Y-99281000D01*
X102319221Y-99279856D01*
X102296166Y-99276437D01*
X102273557Y-99270773D01*
X102251613Y-99262921D01*
X102230543Y-99252956D01*
X102210552Y-99240974D01*
X102191832Y-99227090D01*
X102174562Y-99211438D01*
X102158910Y-99194168D01*
X102145026Y-99175448D01*
X102133044Y-99155457D01*
X102123079Y-99134387D01*
X102115227Y-99112443D01*
X102109563Y-99089834D01*
X102106144Y-99066779D01*
X102105000Y-99043500D01*
X102105000Y-98568500D01*
X102106144Y-98545221D01*
X102109563Y-98522166D01*
X102115227Y-98499557D01*
X102123079Y-98477613D01*
X102133044Y-98456543D01*
X102145026Y-98436552D01*
X102158910Y-98417832D01*
X102174562Y-98400562D01*
X102191832Y-98384910D01*
X102210552Y-98371026D01*
X102230543Y-98359044D01*
X102251613Y-98349079D01*
X102273557Y-98341227D01*
X102296166Y-98335563D01*
X102319221Y-98332144D01*
X102342500Y-98331000D01*
X102942500Y-98331000D01*
X102965779Y-98332144D01*
G37*
G04 #@! TD.AperFunction*
G04 #@! TA.AperFunction,SMDPad,CuDef*
G36*
X104690779Y-98332144D02*
G01*
X104713834Y-98335563D01*
X104736443Y-98341227D01*
X104758387Y-98349079D01*
X104779457Y-98359044D01*
X104799448Y-98371026D01*
X104818168Y-98384910D01*
X104835438Y-98400562D01*
X104851090Y-98417832D01*
X104864974Y-98436552D01*
X104876956Y-98456543D01*
X104886921Y-98477613D01*
X104894773Y-98499557D01*
X104900437Y-98522166D01*
X104903856Y-98545221D01*
X104905000Y-98568500D01*
X104905000Y-99043500D01*
X104903856Y-99066779D01*
X104900437Y-99089834D01*
X104894773Y-99112443D01*
X104886921Y-99134387D01*
X104876956Y-99155457D01*
X104864974Y-99175448D01*
X104851090Y-99194168D01*
X104835438Y-99211438D01*
X104818168Y-99227090D01*
X104799448Y-99240974D01*
X104779457Y-99252956D01*
X104758387Y-99262921D01*
X104736443Y-99270773D01*
X104713834Y-99276437D01*
X104690779Y-99279856D01*
X104667500Y-99281000D01*
X104067500Y-99281000D01*
X104044221Y-99279856D01*
X104021166Y-99276437D01*
X103998557Y-99270773D01*
X103976613Y-99262921D01*
X103955543Y-99252956D01*
X103935552Y-99240974D01*
X103916832Y-99227090D01*
X103899562Y-99211438D01*
X103883910Y-99194168D01*
X103870026Y-99175448D01*
X103858044Y-99155457D01*
X103848079Y-99134387D01*
X103840227Y-99112443D01*
X103834563Y-99089834D01*
X103831144Y-99066779D01*
X103830000Y-99043500D01*
X103830000Y-98568500D01*
X103831144Y-98545221D01*
X103834563Y-98522166D01*
X103840227Y-98499557D01*
X103848079Y-98477613D01*
X103858044Y-98456543D01*
X103870026Y-98436552D01*
X103883910Y-98417832D01*
X103899562Y-98400562D01*
X103916832Y-98384910D01*
X103935552Y-98371026D01*
X103955543Y-98359044D01*
X103976613Y-98349079D01*
X103998557Y-98341227D01*
X104021166Y-98335563D01*
X104044221Y-98332144D01*
X104067500Y-98331000D01*
X104667500Y-98331000D01*
X104690779Y-98332144D01*
G37*
G04 #@! TD.AperFunction*
G04 #@! TA.AperFunction,SMDPad,CuDef*
G36*
X111385779Y-102360144D02*
G01*
X111408834Y-102363563D01*
X111431443Y-102369227D01*
X111453387Y-102377079D01*
X111474457Y-102387044D01*
X111494448Y-102399026D01*
X111513168Y-102412910D01*
X111530438Y-102428562D01*
X111546090Y-102445832D01*
X111559974Y-102464552D01*
X111571956Y-102484543D01*
X111581921Y-102505613D01*
X111589773Y-102527557D01*
X111595437Y-102550166D01*
X111598856Y-102573221D01*
X111600000Y-102596500D01*
X111600000Y-103196500D01*
X111598856Y-103219779D01*
X111595437Y-103242834D01*
X111589773Y-103265443D01*
X111581921Y-103287387D01*
X111571956Y-103308457D01*
X111559974Y-103328448D01*
X111546090Y-103347168D01*
X111530438Y-103364438D01*
X111513168Y-103380090D01*
X111494448Y-103393974D01*
X111474457Y-103405956D01*
X111453387Y-103415921D01*
X111431443Y-103423773D01*
X111408834Y-103429437D01*
X111385779Y-103432856D01*
X111362500Y-103434000D01*
X110887500Y-103434000D01*
X110864221Y-103432856D01*
X110841166Y-103429437D01*
X110818557Y-103423773D01*
X110796613Y-103415921D01*
X110775543Y-103405956D01*
X110755552Y-103393974D01*
X110736832Y-103380090D01*
X110719562Y-103364438D01*
X110703910Y-103347168D01*
X110690026Y-103328448D01*
X110678044Y-103308457D01*
X110668079Y-103287387D01*
X110660227Y-103265443D01*
X110654563Y-103242834D01*
X110651144Y-103219779D01*
X110650000Y-103196500D01*
X110650000Y-102596500D01*
X110651144Y-102573221D01*
X110654563Y-102550166D01*
X110660227Y-102527557D01*
X110668079Y-102505613D01*
X110678044Y-102484543D01*
X110690026Y-102464552D01*
X110703910Y-102445832D01*
X110719562Y-102428562D01*
X110736832Y-102412910D01*
X110755552Y-102399026D01*
X110775543Y-102387044D01*
X110796613Y-102377079D01*
X110818557Y-102369227D01*
X110841166Y-102363563D01*
X110864221Y-102360144D01*
X110887500Y-102359000D01*
X111362500Y-102359000D01*
X111385779Y-102360144D01*
G37*
G04 #@! TD.AperFunction*
G04 #@! TA.AperFunction,SMDPad,CuDef*
G36*
X111385779Y-104085144D02*
G01*
X111408834Y-104088563D01*
X111431443Y-104094227D01*
X111453387Y-104102079D01*
X111474457Y-104112044D01*
X111494448Y-104124026D01*
X111513168Y-104137910D01*
X111530438Y-104153562D01*
X111546090Y-104170832D01*
X111559974Y-104189552D01*
X111571956Y-104209543D01*
X111581921Y-104230613D01*
X111589773Y-104252557D01*
X111595437Y-104275166D01*
X111598856Y-104298221D01*
X111600000Y-104321500D01*
X111600000Y-104921500D01*
X111598856Y-104944779D01*
X111595437Y-104967834D01*
X111589773Y-104990443D01*
X111581921Y-105012387D01*
X111571956Y-105033457D01*
X111559974Y-105053448D01*
X111546090Y-105072168D01*
X111530438Y-105089438D01*
X111513168Y-105105090D01*
X111494448Y-105118974D01*
X111474457Y-105130956D01*
X111453387Y-105140921D01*
X111431443Y-105148773D01*
X111408834Y-105154437D01*
X111385779Y-105157856D01*
X111362500Y-105159000D01*
X110887500Y-105159000D01*
X110864221Y-105157856D01*
X110841166Y-105154437D01*
X110818557Y-105148773D01*
X110796613Y-105140921D01*
X110775543Y-105130956D01*
X110755552Y-105118974D01*
X110736832Y-105105090D01*
X110719562Y-105089438D01*
X110703910Y-105072168D01*
X110690026Y-105053448D01*
X110678044Y-105033457D01*
X110668079Y-105012387D01*
X110660227Y-104990443D01*
X110654563Y-104967834D01*
X110651144Y-104944779D01*
X110650000Y-104921500D01*
X110650000Y-104321500D01*
X110651144Y-104298221D01*
X110654563Y-104275166D01*
X110660227Y-104252557D01*
X110668079Y-104230613D01*
X110678044Y-104209543D01*
X110690026Y-104189552D01*
X110703910Y-104170832D01*
X110719562Y-104153562D01*
X110736832Y-104137910D01*
X110755552Y-104124026D01*
X110775543Y-104112044D01*
X110796613Y-104102079D01*
X110818557Y-104094227D01*
X110841166Y-104088563D01*
X110864221Y-104085144D01*
X110887500Y-104084000D01*
X111362500Y-104084000D01*
X111385779Y-104085144D01*
G37*
G04 #@! TD.AperFunction*
G04 #@! TA.AperFunction,SMDPad,CuDef*
G36*
X100679779Y-106587144D02*
G01*
X100702834Y-106590563D01*
X100725443Y-106596227D01*
X100747387Y-106604079D01*
X100768457Y-106614044D01*
X100788448Y-106626026D01*
X100807168Y-106639910D01*
X100824438Y-106655562D01*
X100840090Y-106672832D01*
X100853974Y-106691552D01*
X100865956Y-106711543D01*
X100875921Y-106732613D01*
X100883773Y-106754557D01*
X100889437Y-106777166D01*
X100892856Y-106800221D01*
X100894000Y-106823500D01*
X100894000Y-107298500D01*
X100892856Y-107321779D01*
X100889437Y-107344834D01*
X100883773Y-107367443D01*
X100875921Y-107389387D01*
X100865956Y-107410457D01*
X100853974Y-107430448D01*
X100840090Y-107449168D01*
X100824438Y-107466438D01*
X100807168Y-107482090D01*
X100788448Y-107495974D01*
X100768457Y-107507956D01*
X100747387Y-107517921D01*
X100725443Y-107525773D01*
X100702834Y-107531437D01*
X100679779Y-107534856D01*
X100656500Y-107536000D01*
X100056500Y-107536000D01*
X100033221Y-107534856D01*
X100010166Y-107531437D01*
X99987557Y-107525773D01*
X99965613Y-107517921D01*
X99944543Y-107507956D01*
X99924552Y-107495974D01*
X99905832Y-107482090D01*
X99888562Y-107466438D01*
X99872910Y-107449168D01*
X99859026Y-107430448D01*
X99847044Y-107410457D01*
X99837079Y-107389387D01*
X99829227Y-107367443D01*
X99823563Y-107344834D01*
X99820144Y-107321779D01*
X99819000Y-107298500D01*
X99819000Y-106823500D01*
X99820144Y-106800221D01*
X99823563Y-106777166D01*
X99829227Y-106754557D01*
X99837079Y-106732613D01*
X99847044Y-106711543D01*
X99859026Y-106691552D01*
X99872910Y-106672832D01*
X99888562Y-106655562D01*
X99905832Y-106639910D01*
X99924552Y-106626026D01*
X99944543Y-106614044D01*
X99965613Y-106604079D01*
X99987557Y-106596227D01*
X100010166Y-106590563D01*
X100033221Y-106587144D01*
X100056500Y-106586000D01*
X100656500Y-106586000D01*
X100679779Y-106587144D01*
G37*
G04 #@! TD.AperFunction*
G04 #@! TA.AperFunction,SMDPad,CuDef*
G36*
X102404779Y-106587144D02*
G01*
X102427834Y-106590563D01*
X102450443Y-106596227D01*
X102472387Y-106604079D01*
X102493457Y-106614044D01*
X102513448Y-106626026D01*
X102532168Y-106639910D01*
X102549438Y-106655562D01*
X102565090Y-106672832D01*
X102578974Y-106691552D01*
X102590956Y-106711543D01*
X102600921Y-106732613D01*
X102608773Y-106754557D01*
X102614437Y-106777166D01*
X102617856Y-106800221D01*
X102619000Y-106823500D01*
X102619000Y-107298500D01*
X102617856Y-107321779D01*
X102614437Y-107344834D01*
X102608773Y-107367443D01*
X102600921Y-107389387D01*
X102590956Y-107410457D01*
X102578974Y-107430448D01*
X102565090Y-107449168D01*
X102549438Y-107466438D01*
X102532168Y-107482090D01*
X102513448Y-107495974D01*
X102493457Y-107507956D01*
X102472387Y-107517921D01*
X102450443Y-107525773D01*
X102427834Y-107531437D01*
X102404779Y-107534856D01*
X102381500Y-107536000D01*
X101781500Y-107536000D01*
X101758221Y-107534856D01*
X101735166Y-107531437D01*
X101712557Y-107525773D01*
X101690613Y-107517921D01*
X101669543Y-107507956D01*
X101649552Y-107495974D01*
X101630832Y-107482090D01*
X101613562Y-107466438D01*
X101597910Y-107449168D01*
X101584026Y-107430448D01*
X101572044Y-107410457D01*
X101562079Y-107389387D01*
X101554227Y-107367443D01*
X101548563Y-107344834D01*
X101545144Y-107321779D01*
X101544000Y-107298500D01*
X101544000Y-106823500D01*
X101545144Y-106800221D01*
X101548563Y-106777166D01*
X101554227Y-106754557D01*
X101562079Y-106732613D01*
X101572044Y-106711543D01*
X101584026Y-106691552D01*
X101597910Y-106672832D01*
X101613562Y-106655562D01*
X101630832Y-106639910D01*
X101649552Y-106626026D01*
X101669543Y-106614044D01*
X101690613Y-106604079D01*
X101712557Y-106596227D01*
X101735166Y-106590563D01*
X101758221Y-106587144D01*
X101781500Y-106586000D01*
X102381500Y-106586000D01*
X102404779Y-106587144D01*
G37*
G04 #@! TD.AperFunction*
G04 #@! TA.AperFunction,SMDPad,CuDef*
G36*
X179965779Y-94052144D02*
G01*
X179988834Y-94055563D01*
X180011443Y-94061227D01*
X180033387Y-94069079D01*
X180054457Y-94079044D01*
X180074448Y-94091026D01*
X180093168Y-94104910D01*
X180110438Y-94120562D01*
X180126090Y-94137832D01*
X180139974Y-94156552D01*
X180151956Y-94176543D01*
X180161921Y-94197613D01*
X180169773Y-94219557D01*
X180175437Y-94242166D01*
X180178856Y-94265221D01*
X180180000Y-94288500D01*
X180180000Y-94888500D01*
X180178856Y-94911779D01*
X180175437Y-94934834D01*
X180169773Y-94957443D01*
X180161921Y-94979387D01*
X180151956Y-95000457D01*
X180139974Y-95020448D01*
X180126090Y-95039168D01*
X180110438Y-95056438D01*
X180093168Y-95072090D01*
X180074448Y-95085974D01*
X180054457Y-95097956D01*
X180033387Y-95107921D01*
X180011443Y-95115773D01*
X179988834Y-95121437D01*
X179965779Y-95124856D01*
X179942500Y-95126000D01*
X179467500Y-95126000D01*
X179444221Y-95124856D01*
X179421166Y-95121437D01*
X179398557Y-95115773D01*
X179376613Y-95107921D01*
X179355543Y-95097956D01*
X179335552Y-95085974D01*
X179316832Y-95072090D01*
X179299562Y-95056438D01*
X179283910Y-95039168D01*
X179270026Y-95020448D01*
X179258044Y-95000457D01*
X179248079Y-94979387D01*
X179240227Y-94957443D01*
X179234563Y-94934834D01*
X179231144Y-94911779D01*
X179230000Y-94888500D01*
X179230000Y-94288500D01*
X179231144Y-94265221D01*
X179234563Y-94242166D01*
X179240227Y-94219557D01*
X179248079Y-94197613D01*
X179258044Y-94176543D01*
X179270026Y-94156552D01*
X179283910Y-94137832D01*
X179299562Y-94120562D01*
X179316832Y-94104910D01*
X179335552Y-94091026D01*
X179355543Y-94079044D01*
X179376613Y-94069079D01*
X179398557Y-94061227D01*
X179421166Y-94055563D01*
X179444221Y-94052144D01*
X179467500Y-94051000D01*
X179942500Y-94051000D01*
X179965779Y-94052144D01*
G37*
G04 #@! TD.AperFunction*
G04 #@! TA.AperFunction,SMDPad,CuDef*
G36*
X179965779Y-92327144D02*
G01*
X179988834Y-92330563D01*
X180011443Y-92336227D01*
X180033387Y-92344079D01*
X180054457Y-92354044D01*
X180074448Y-92366026D01*
X180093168Y-92379910D01*
X180110438Y-92395562D01*
X180126090Y-92412832D01*
X180139974Y-92431552D01*
X180151956Y-92451543D01*
X180161921Y-92472613D01*
X180169773Y-92494557D01*
X180175437Y-92517166D01*
X180178856Y-92540221D01*
X180180000Y-92563500D01*
X180180000Y-93163500D01*
X180178856Y-93186779D01*
X180175437Y-93209834D01*
X180169773Y-93232443D01*
X180161921Y-93254387D01*
X180151956Y-93275457D01*
X180139974Y-93295448D01*
X180126090Y-93314168D01*
X180110438Y-93331438D01*
X180093168Y-93347090D01*
X180074448Y-93360974D01*
X180054457Y-93372956D01*
X180033387Y-93382921D01*
X180011443Y-93390773D01*
X179988834Y-93396437D01*
X179965779Y-93399856D01*
X179942500Y-93401000D01*
X179467500Y-93401000D01*
X179444221Y-93399856D01*
X179421166Y-93396437D01*
X179398557Y-93390773D01*
X179376613Y-93382921D01*
X179355543Y-93372956D01*
X179335552Y-93360974D01*
X179316832Y-93347090D01*
X179299562Y-93331438D01*
X179283910Y-93314168D01*
X179270026Y-93295448D01*
X179258044Y-93275457D01*
X179248079Y-93254387D01*
X179240227Y-93232443D01*
X179234563Y-93209834D01*
X179231144Y-93186779D01*
X179230000Y-93163500D01*
X179230000Y-92563500D01*
X179231144Y-92540221D01*
X179234563Y-92517166D01*
X179240227Y-92494557D01*
X179248079Y-92472613D01*
X179258044Y-92451543D01*
X179270026Y-92431552D01*
X179283910Y-92412832D01*
X179299562Y-92395562D01*
X179316832Y-92379910D01*
X179335552Y-92366026D01*
X179355543Y-92354044D01*
X179376613Y-92344079D01*
X179398557Y-92336227D01*
X179421166Y-92330563D01*
X179444221Y-92327144D01*
X179467500Y-92326000D01*
X179942500Y-92326000D01*
X179965779Y-92327144D01*
G37*
G04 #@! TD.AperFunction*
G04 #@! TA.AperFunction,SMDPad,CuDef*
G36*
X171672779Y-101253144D02*
G01*
X171695834Y-101256563D01*
X171718443Y-101262227D01*
X171740387Y-101270079D01*
X171761457Y-101280044D01*
X171781448Y-101292026D01*
X171800168Y-101305910D01*
X171817438Y-101321562D01*
X171833090Y-101338832D01*
X171846974Y-101357552D01*
X171858956Y-101377543D01*
X171868921Y-101398613D01*
X171876773Y-101420557D01*
X171882437Y-101443166D01*
X171885856Y-101466221D01*
X171887000Y-101489500D01*
X171887000Y-101964500D01*
X171885856Y-101987779D01*
X171882437Y-102010834D01*
X171876773Y-102033443D01*
X171868921Y-102055387D01*
X171858956Y-102076457D01*
X171846974Y-102096448D01*
X171833090Y-102115168D01*
X171817438Y-102132438D01*
X171800168Y-102148090D01*
X171781448Y-102161974D01*
X171761457Y-102173956D01*
X171740387Y-102183921D01*
X171718443Y-102191773D01*
X171695834Y-102197437D01*
X171672779Y-102200856D01*
X171649500Y-102202000D01*
X171049500Y-102202000D01*
X171026221Y-102200856D01*
X171003166Y-102197437D01*
X170980557Y-102191773D01*
X170958613Y-102183921D01*
X170937543Y-102173956D01*
X170917552Y-102161974D01*
X170898832Y-102148090D01*
X170881562Y-102132438D01*
X170865910Y-102115168D01*
X170852026Y-102096448D01*
X170840044Y-102076457D01*
X170830079Y-102055387D01*
X170822227Y-102033443D01*
X170816563Y-102010834D01*
X170813144Y-101987779D01*
X170812000Y-101964500D01*
X170812000Y-101489500D01*
X170813144Y-101466221D01*
X170816563Y-101443166D01*
X170822227Y-101420557D01*
X170830079Y-101398613D01*
X170840044Y-101377543D01*
X170852026Y-101357552D01*
X170865910Y-101338832D01*
X170881562Y-101321562D01*
X170898832Y-101305910D01*
X170917552Y-101292026D01*
X170937543Y-101280044D01*
X170958613Y-101270079D01*
X170980557Y-101262227D01*
X171003166Y-101256563D01*
X171026221Y-101253144D01*
X171049500Y-101252000D01*
X171649500Y-101252000D01*
X171672779Y-101253144D01*
G37*
G04 #@! TD.AperFunction*
G04 #@! TA.AperFunction,SMDPad,CuDef*
G36*
X173397779Y-101253144D02*
G01*
X173420834Y-101256563D01*
X173443443Y-101262227D01*
X173465387Y-101270079D01*
X173486457Y-101280044D01*
X173506448Y-101292026D01*
X173525168Y-101305910D01*
X173542438Y-101321562D01*
X173558090Y-101338832D01*
X173571974Y-101357552D01*
X173583956Y-101377543D01*
X173593921Y-101398613D01*
X173601773Y-101420557D01*
X173607437Y-101443166D01*
X173610856Y-101466221D01*
X173612000Y-101489500D01*
X173612000Y-101964500D01*
X173610856Y-101987779D01*
X173607437Y-102010834D01*
X173601773Y-102033443D01*
X173593921Y-102055387D01*
X173583956Y-102076457D01*
X173571974Y-102096448D01*
X173558090Y-102115168D01*
X173542438Y-102132438D01*
X173525168Y-102148090D01*
X173506448Y-102161974D01*
X173486457Y-102173956D01*
X173465387Y-102183921D01*
X173443443Y-102191773D01*
X173420834Y-102197437D01*
X173397779Y-102200856D01*
X173374500Y-102202000D01*
X172774500Y-102202000D01*
X172751221Y-102200856D01*
X172728166Y-102197437D01*
X172705557Y-102191773D01*
X172683613Y-102183921D01*
X172662543Y-102173956D01*
X172642552Y-102161974D01*
X172623832Y-102148090D01*
X172606562Y-102132438D01*
X172590910Y-102115168D01*
X172577026Y-102096448D01*
X172565044Y-102076457D01*
X172555079Y-102055387D01*
X172547227Y-102033443D01*
X172541563Y-102010834D01*
X172538144Y-101987779D01*
X172537000Y-101964500D01*
X172537000Y-101489500D01*
X172538144Y-101466221D01*
X172541563Y-101443166D01*
X172547227Y-101420557D01*
X172555079Y-101398613D01*
X172565044Y-101377543D01*
X172577026Y-101357552D01*
X172590910Y-101338832D01*
X172606562Y-101321562D01*
X172623832Y-101305910D01*
X172642552Y-101292026D01*
X172662543Y-101280044D01*
X172683613Y-101270079D01*
X172705557Y-101262227D01*
X172728166Y-101256563D01*
X172751221Y-101253144D01*
X172774500Y-101252000D01*
X173374500Y-101252000D01*
X173397779Y-101253144D01*
G37*
G04 #@! TD.AperFunction*
G04 #@! TA.AperFunction,SMDPad,CuDef*
G36*
X145584779Y-107857144D02*
G01*
X145607834Y-107860563D01*
X145630443Y-107866227D01*
X145652387Y-107874079D01*
X145673457Y-107884044D01*
X145693448Y-107896026D01*
X145712168Y-107909910D01*
X145729438Y-107925562D01*
X145745090Y-107942832D01*
X145758974Y-107961552D01*
X145770956Y-107981543D01*
X145780921Y-108002613D01*
X145788773Y-108024557D01*
X145794437Y-108047166D01*
X145797856Y-108070221D01*
X145799000Y-108093500D01*
X145799000Y-108568500D01*
X145797856Y-108591779D01*
X145794437Y-108614834D01*
X145788773Y-108637443D01*
X145780921Y-108659387D01*
X145770956Y-108680457D01*
X145758974Y-108700448D01*
X145745090Y-108719168D01*
X145729438Y-108736438D01*
X145712168Y-108752090D01*
X145693448Y-108765974D01*
X145673457Y-108777956D01*
X145652387Y-108787921D01*
X145630443Y-108795773D01*
X145607834Y-108801437D01*
X145584779Y-108804856D01*
X145561500Y-108806000D01*
X144961500Y-108806000D01*
X144938221Y-108804856D01*
X144915166Y-108801437D01*
X144892557Y-108795773D01*
X144870613Y-108787921D01*
X144849543Y-108777956D01*
X144829552Y-108765974D01*
X144810832Y-108752090D01*
X144793562Y-108736438D01*
X144777910Y-108719168D01*
X144764026Y-108700448D01*
X144752044Y-108680457D01*
X144742079Y-108659387D01*
X144734227Y-108637443D01*
X144728563Y-108614834D01*
X144725144Y-108591779D01*
X144724000Y-108568500D01*
X144724000Y-108093500D01*
X144725144Y-108070221D01*
X144728563Y-108047166D01*
X144734227Y-108024557D01*
X144742079Y-108002613D01*
X144752044Y-107981543D01*
X144764026Y-107961552D01*
X144777910Y-107942832D01*
X144793562Y-107925562D01*
X144810832Y-107909910D01*
X144829552Y-107896026D01*
X144849543Y-107884044D01*
X144870613Y-107874079D01*
X144892557Y-107866227D01*
X144915166Y-107860563D01*
X144938221Y-107857144D01*
X144961500Y-107856000D01*
X145561500Y-107856000D01*
X145584779Y-107857144D01*
G37*
G04 #@! TD.AperFunction*
G04 #@! TA.AperFunction,SMDPad,CuDef*
G36*
X143859779Y-107857144D02*
G01*
X143882834Y-107860563D01*
X143905443Y-107866227D01*
X143927387Y-107874079D01*
X143948457Y-107884044D01*
X143968448Y-107896026D01*
X143987168Y-107909910D01*
X144004438Y-107925562D01*
X144020090Y-107942832D01*
X144033974Y-107961552D01*
X144045956Y-107981543D01*
X144055921Y-108002613D01*
X144063773Y-108024557D01*
X144069437Y-108047166D01*
X144072856Y-108070221D01*
X144074000Y-108093500D01*
X144074000Y-108568500D01*
X144072856Y-108591779D01*
X144069437Y-108614834D01*
X144063773Y-108637443D01*
X144055921Y-108659387D01*
X144045956Y-108680457D01*
X144033974Y-108700448D01*
X144020090Y-108719168D01*
X144004438Y-108736438D01*
X143987168Y-108752090D01*
X143968448Y-108765974D01*
X143948457Y-108777956D01*
X143927387Y-108787921D01*
X143905443Y-108795773D01*
X143882834Y-108801437D01*
X143859779Y-108804856D01*
X143836500Y-108806000D01*
X143236500Y-108806000D01*
X143213221Y-108804856D01*
X143190166Y-108801437D01*
X143167557Y-108795773D01*
X143145613Y-108787921D01*
X143124543Y-108777956D01*
X143104552Y-108765974D01*
X143085832Y-108752090D01*
X143068562Y-108736438D01*
X143052910Y-108719168D01*
X143039026Y-108700448D01*
X143027044Y-108680457D01*
X143017079Y-108659387D01*
X143009227Y-108637443D01*
X143003563Y-108614834D01*
X143000144Y-108591779D01*
X142999000Y-108568500D01*
X142999000Y-108093500D01*
X143000144Y-108070221D01*
X143003563Y-108047166D01*
X143009227Y-108024557D01*
X143017079Y-108002613D01*
X143027044Y-107981543D01*
X143039026Y-107961552D01*
X143052910Y-107942832D01*
X143068562Y-107925562D01*
X143085832Y-107909910D01*
X143104552Y-107896026D01*
X143124543Y-107884044D01*
X143145613Y-107874079D01*
X143167557Y-107866227D01*
X143190166Y-107860563D01*
X143213221Y-107857144D01*
X143236500Y-107856000D01*
X143836500Y-107856000D01*
X143859779Y-107857144D01*
G37*
G04 #@! TD.AperFunction*
G04 #@! TA.AperFunction,SMDPad,CuDef*
G36*
X117062779Y-112302144D02*
G01*
X117085834Y-112305563D01*
X117108443Y-112311227D01*
X117130387Y-112319079D01*
X117151457Y-112329044D01*
X117171448Y-112341026D01*
X117190168Y-112354910D01*
X117207438Y-112370562D01*
X117223090Y-112387832D01*
X117236974Y-112406552D01*
X117248956Y-112426543D01*
X117258921Y-112447613D01*
X117266773Y-112469557D01*
X117272437Y-112492166D01*
X117275856Y-112515221D01*
X117277000Y-112538500D01*
X117277000Y-113013500D01*
X117275856Y-113036779D01*
X117272437Y-113059834D01*
X117266773Y-113082443D01*
X117258921Y-113104387D01*
X117248956Y-113125457D01*
X117236974Y-113145448D01*
X117223090Y-113164168D01*
X117207438Y-113181438D01*
X117190168Y-113197090D01*
X117171448Y-113210974D01*
X117151457Y-113222956D01*
X117130387Y-113232921D01*
X117108443Y-113240773D01*
X117085834Y-113246437D01*
X117062779Y-113249856D01*
X117039500Y-113251000D01*
X116439500Y-113251000D01*
X116416221Y-113249856D01*
X116393166Y-113246437D01*
X116370557Y-113240773D01*
X116348613Y-113232921D01*
X116327543Y-113222956D01*
X116307552Y-113210974D01*
X116288832Y-113197090D01*
X116271562Y-113181438D01*
X116255910Y-113164168D01*
X116242026Y-113145448D01*
X116230044Y-113125457D01*
X116220079Y-113104387D01*
X116212227Y-113082443D01*
X116206563Y-113059834D01*
X116203144Y-113036779D01*
X116202000Y-113013500D01*
X116202000Y-112538500D01*
X116203144Y-112515221D01*
X116206563Y-112492166D01*
X116212227Y-112469557D01*
X116220079Y-112447613D01*
X116230044Y-112426543D01*
X116242026Y-112406552D01*
X116255910Y-112387832D01*
X116271562Y-112370562D01*
X116288832Y-112354910D01*
X116307552Y-112341026D01*
X116327543Y-112329044D01*
X116348613Y-112319079D01*
X116370557Y-112311227D01*
X116393166Y-112305563D01*
X116416221Y-112302144D01*
X116439500Y-112301000D01*
X117039500Y-112301000D01*
X117062779Y-112302144D01*
G37*
G04 #@! TD.AperFunction*
G04 #@! TA.AperFunction,SMDPad,CuDef*
G36*
X118787779Y-112302144D02*
G01*
X118810834Y-112305563D01*
X118833443Y-112311227D01*
X118855387Y-112319079D01*
X118876457Y-112329044D01*
X118896448Y-112341026D01*
X118915168Y-112354910D01*
X118932438Y-112370562D01*
X118948090Y-112387832D01*
X118961974Y-112406552D01*
X118973956Y-112426543D01*
X118983921Y-112447613D01*
X118991773Y-112469557D01*
X118997437Y-112492166D01*
X119000856Y-112515221D01*
X119002000Y-112538500D01*
X119002000Y-113013500D01*
X119000856Y-113036779D01*
X118997437Y-113059834D01*
X118991773Y-113082443D01*
X118983921Y-113104387D01*
X118973956Y-113125457D01*
X118961974Y-113145448D01*
X118948090Y-113164168D01*
X118932438Y-113181438D01*
X118915168Y-113197090D01*
X118896448Y-113210974D01*
X118876457Y-113222956D01*
X118855387Y-113232921D01*
X118833443Y-113240773D01*
X118810834Y-113246437D01*
X118787779Y-113249856D01*
X118764500Y-113251000D01*
X118164500Y-113251000D01*
X118141221Y-113249856D01*
X118118166Y-113246437D01*
X118095557Y-113240773D01*
X118073613Y-113232921D01*
X118052543Y-113222956D01*
X118032552Y-113210974D01*
X118013832Y-113197090D01*
X117996562Y-113181438D01*
X117980910Y-113164168D01*
X117967026Y-113145448D01*
X117955044Y-113125457D01*
X117945079Y-113104387D01*
X117937227Y-113082443D01*
X117931563Y-113059834D01*
X117928144Y-113036779D01*
X117927000Y-113013500D01*
X117927000Y-112538500D01*
X117928144Y-112515221D01*
X117931563Y-112492166D01*
X117937227Y-112469557D01*
X117945079Y-112447613D01*
X117955044Y-112426543D01*
X117967026Y-112406552D01*
X117980910Y-112387832D01*
X117996562Y-112370562D01*
X118013832Y-112354910D01*
X118032552Y-112341026D01*
X118052543Y-112329044D01*
X118073613Y-112319079D01*
X118095557Y-112311227D01*
X118118166Y-112305563D01*
X118141221Y-112302144D01*
X118164500Y-112301000D01*
X118764500Y-112301000D01*
X118787779Y-112302144D01*
G37*
G04 #@! TD.AperFunction*
D13*
X98933000Y-106680000D03*
X100203000Y-109093000D03*
X112141000Y-102870000D03*
X107950000Y-106299000D03*
X102235000Y-97536000D03*
X112903000Y-113411000D03*
X118237000Y-114173000D03*
X134112000Y-112776000D03*
X125984000Y-117475000D03*
X129286000Y-113284000D03*
X129667000Y-103632000D03*
X129667000Y-95504000D03*
X143256000Y-95250000D03*
X145986500Y-109728000D03*
X146558000Y-103759000D03*
X136779000Y-108839000D03*
X178943000Y-95758000D03*
X184150000Y-106680000D03*
X187452000Y-100330000D03*
X175514000Y-113411000D03*
X153543000Y-93218000D03*
X171069000Y-102997000D03*
X157988000Y-111252000D03*
X157861000Y-104267000D03*
X99949000Y-104267000D03*
X103378000Y-107061000D03*
X113030000Y-104394000D03*
X111379000Y-94742000D03*
X104775000Y-97536000D03*
X119761000Y-112903000D03*
X127000000Y-104775000D03*
X139319000Y-113030000D03*
X140335000Y-95250000D03*
X143065500Y-109601000D03*
X185039000Y-100330000D03*
X186436000Y-106680000D03*
X155321000Y-104267000D03*
X178435000Y-92329000D03*
X127000000Y-96774000D03*
X153543000Y-98552000D03*
X164465000Y-105791000D03*
X173355000Y-100457000D03*
X155194000Y-111379000D03*
X140335000Y-93980000D03*
X149225000Y-111633000D03*
X191770000Y-107696000D03*
X178816000Y-107696000D03*
X185293000Y-112903000D03*
X177546000Y-101346000D03*
X142494000Y-97155000D03*
X162179000Y-108331000D03*
X152146000Y-110363000D03*
X112268000Y-110998000D03*
X114681000Y-98806000D03*
X143065500Y-111252000D03*
X157607000Y-101981000D03*
X165481000Y-102362000D03*
X157988000Y-110109000D03*
X164465000Y-110490000D03*
D14*
X114191999Y-91929001D02*
X111778999Y-94342001D01*
X111778999Y-94342001D02*
X111379000Y-94742000D01*
X178435000Y-92329000D02*
X178035001Y-91929001D01*
X138919001Y-112630001D02*
X138919001Y-92818001D01*
X139319000Y-113030000D02*
X138919001Y-112630001D01*
X138919001Y-92818001D02*
X138049000Y-91948000D01*
X145796000Y-115951000D02*
X144526000Y-114681000D01*
X140970000Y-114681000D02*
X139319000Y-113030000D01*
X144526000Y-114681000D02*
X140970000Y-114681000D01*
X108585000Y-97536000D02*
X104775000Y-97536000D01*
X111379000Y-94742000D02*
X108585000Y-97536000D01*
X104367500Y-97943500D02*
X104775000Y-97536000D01*
X104367500Y-98806000D02*
X104367500Y-97943500D01*
X99949000Y-96266000D02*
X99949000Y-104267000D01*
X100330000Y-95885000D02*
X99949000Y-96266000D01*
X103689685Y-95885000D02*
X100330000Y-95885000D01*
X104775000Y-97536000D02*
X104775000Y-96970315D01*
X104775000Y-96970315D02*
X103689685Y-95885000D01*
X118591500Y-112903000D02*
X118464500Y-112776000D01*
X119761000Y-112903000D02*
X118591500Y-112903000D01*
X127000000Y-96774000D02*
X127000000Y-91948000D01*
X138049000Y-91948000D02*
X127000000Y-91948000D01*
X127000000Y-96774000D02*
X127000000Y-104775000D01*
X127000000Y-105664000D02*
X119761000Y-112903000D01*
X127000000Y-104775000D02*
X127000000Y-105664000D01*
X103378000Y-107061000D02*
X102081500Y-107061000D01*
X102081500Y-106399500D02*
X99949000Y-104267000D01*
X102081500Y-107061000D02*
X102081500Y-106399500D01*
X179170500Y-92329000D02*
X179705000Y-92863500D01*
X178435000Y-92329000D02*
X179170500Y-92329000D01*
X173074500Y-100737500D02*
X173355000Y-100457000D01*
X173074500Y-101727000D02*
X173074500Y-100737500D01*
X127000000Y-91948000D02*
X122047000Y-91948000D01*
X122047000Y-91948000D02*
X114191999Y-91929001D01*
X140361500Y-95250000D02*
X141631500Y-93980000D01*
X140335000Y-95250000D02*
X140361500Y-95250000D01*
X141631500Y-92048500D02*
X141732000Y-91948000D01*
X141631500Y-93980000D02*
X141631500Y-92048500D01*
X141732000Y-91948000D02*
X138049000Y-91948000D01*
X150749000Y-97497002D02*
X150749000Y-91948000D01*
X152203997Y-98951999D02*
X150749000Y-97497002D01*
X153143001Y-98951999D02*
X152203997Y-98951999D01*
X153543000Y-98552000D02*
X153143001Y-98951999D01*
X150749000Y-91948000D02*
X141732000Y-91948000D01*
X184371999Y-99662999D02*
X184639001Y-99930001D01*
X184639001Y-99930001D02*
X185039000Y-100330000D01*
X184371999Y-97055499D02*
X184371999Y-99662999D01*
X180180000Y-92863500D02*
X184371999Y-97055499D01*
X179705000Y-92863500D02*
X180180000Y-92863500D01*
X186436000Y-107669500D02*
X186155500Y-107950000D01*
X186436000Y-106680000D02*
X186436000Y-107669500D01*
X186436000Y-101727000D02*
X185039000Y-100330000D01*
X186436000Y-106680000D02*
X186436000Y-101727000D01*
X175927001Y-91980001D02*
X175895000Y-91948000D01*
X175927001Y-97884999D02*
X175927001Y-91980001D01*
X178035001Y-91929001D02*
X175895000Y-91948000D01*
X173355000Y-100457000D02*
X175927001Y-97884999D01*
X154966500Y-111151500D02*
X155194000Y-111379000D01*
X154966500Y-110109000D02*
X154966500Y-111151500D01*
X112802500Y-104621500D02*
X113030000Y-104394000D01*
X111125000Y-104621500D02*
X112802500Y-104621500D01*
X143536500Y-109130000D02*
X143065500Y-109601000D01*
X143536500Y-108331000D02*
X143536500Y-109130000D01*
X141631500Y-94698502D02*
X141631500Y-94455000D01*
X143923001Y-96990003D02*
X141631500Y-94698502D01*
X143923001Y-107469499D02*
X143923001Y-96990003D01*
X141631500Y-94455000D02*
X141631500Y-93980000D01*
X143536500Y-107856000D02*
X143923001Y-107469499D01*
X143536500Y-108331000D02*
X143536500Y-107856000D01*
X155728500Y-104674500D02*
X155321000Y-104267000D01*
X155728500Y-105537000D02*
X155728500Y-104674500D01*
X155728500Y-109884500D02*
X155504000Y-110109000D01*
X155504000Y-110109000D02*
X154966500Y-110109000D01*
X155728500Y-105537000D02*
X155728500Y-109884500D01*
X175895000Y-91948000D02*
X162433000Y-91948000D01*
X162433000Y-91948000D02*
X150749000Y-91948000D01*
X111379000Y-94742000D02*
X113030000Y-96393000D01*
X113030000Y-96393000D02*
X113030000Y-104394000D01*
X173074500Y-102202000D02*
X173074500Y-101727000D01*
X169485500Y-105791000D02*
X173074500Y-102202000D01*
X164465000Y-105791000D02*
X169485500Y-105791000D01*
X164465000Y-105791000D02*
X160655000Y-105791000D01*
X155728500Y-106012000D02*
X155728500Y-105537000D01*
X156053510Y-106337010D02*
X155728500Y-106012000D01*
X160108990Y-106337010D02*
X156053510Y-106337010D01*
X160655000Y-105791000D02*
X160108990Y-106337010D01*
X186563000Y-112903000D02*
X185293000Y-112903000D01*
X191770000Y-107696000D02*
X186563000Y-112903000D01*
X184023000Y-112903000D02*
X185293000Y-112903000D01*
X178816000Y-107696000D02*
X184023000Y-112903000D01*
X177546000Y-106426000D02*
X178816000Y-107696000D01*
X177546000Y-101346000D02*
X177546000Y-106426000D01*
X178181000Y-108331000D02*
X178816000Y-107696000D01*
X139609999Y-95598001D02*
X141166998Y-97155000D01*
X141928315Y-97155000D02*
X142494000Y-97155000D01*
X139609999Y-94705001D02*
X139609999Y-95598001D01*
X141166998Y-97155000D02*
X141928315Y-97155000D01*
X140335000Y-93980000D02*
X139609999Y-94705001D01*
X162179000Y-108331000D02*
X178181000Y-108331000D01*
X142094001Y-97554999D02*
X142494000Y-97155000D01*
X141572999Y-98076001D02*
X142094001Y-97554999D01*
X141572999Y-110961594D02*
X141572999Y-98076001D01*
X142588406Y-111977001D02*
X141572999Y-110961594D01*
X143413501Y-111977001D02*
X142588406Y-111977001D01*
X144157501Y-111233001D02*
X143413501Y-111977001D01*
X148825001Y-111233001D02*
X144157501Y-111233001D01*
X149225000Y-111633000D02*
X148825001Y-111233001D01*
X150876000Y-111633000D02*
X152146000Y-110363000D01*
X149225000Y-111633000D02*
X150876000Y-111633000D01*
X114681000Y-108585000D02*
X112268000Y-110998000D01*
X114681000Y-98806000D02*
X114681000Y-108585000D01*
X143065500Y-111252000D02*
X143065500Y-111442500D01*
X144817490Y-107442000D02*
X148717000Y-107442000D01*
X143065500Y-111252000D02*
X144399000Y-109918500D01*
X144399000Y-109918500D02*
X144399000Y-107860490D01*
X154178000Y-101981000D02*
X157607000Y-101981000D01*
X148717000Y-107442000D02*
X154178000Y-101981000D01*
X144399000Y-107860490D02*
X144817490Y-107442000D01*
X165100000Y-101981000D02*
X165481000Y-102362000D01*
X157607000Y-101981000D02*
X165100000Y-101981000D01*
X160020000Y-112141000D02*
X163957000Y-112141000D01*
X157988000Y-110109000D02*
X160020000Y-112141000D01*
D15*
G36*
X198578001Y-119330000D02*
G01*
X95046000Y-119330000D01*
X95046000Y-115804740D01*
X97575000Y-115804740D01*
X97575000Y-116097260D01*
X97632068Y-116384158D01*
X97744010Y-116654411D01*
X97906525Y-116897632D01*
X98113368Y-117104475D01*
X98356589Y-117266990D01*
X98626842Y-117378932D01*
X98913740Y-117436000D01*
X99206260Y-117436000D01*
X99493158Y-117378932D01*
X99763411Y-117266990D01*
X100006632Y-117104475D01*
X100213475Y-116897632D01*
X100330000Y-116723240D01*
X100446525Y-116897632D01*
X100653368Y-117104475D01*
X100896589Y-117266990D01*
X101166842Y-117378932D01*
X101453740Y-117436000D01*
X101746260Y-117436000D01*
X102033158Y-117378932D01*
X102303411Y-117266990D01*
X102546632Y-117104475D01*
X102753475Y-116897632D01*
X102870000Y-116723240D01*
X102986525Y-116897632D01*
X103193368Y-117104475D01*
X103436589Y-117266990D01*
X103706842Y-117378932D01*
X103993740Y-117436000D01*
X104286260Y-117436000D01*
X104573158Y-117378932D01*
X104843411Y-117266990D01*
X105086632Y-117104475D01*
X105293475Y-116897632D01*
X105410000Y-116723240D01*
X105526525Y-116897632D01*
X105733368Y-117104475D01*
X105976589Y-117266990D01*
X106246842Y-117378932D01*
X106533740Y-117436000D01*
X106826260Y-117436000D01*
X107113158Y-117378932D01*
X107383411Y-117266990D01*
X107626632Y-117104475D01*
X107833475Y-116897632D01*
X107950000Y-116723240D01*
X108066525Y-116897632D01*
X108273368Y-117104475D01*
X108516589Y-117266990D01*
X108786842Y-117378932D01*
X109073740Y-117436000D01*
X109366260Y-117436000D01*
X109653158Y-117378932D01*
X109923411Y-117266990D01*
X110166632Y-117104475D01*
X110298487Y-116972620D01*
X110320498Y-117045180D01*
X110379463Y-117155494D01*
X110458815Y-117252185D01*
X110555506Y-117331537D01*
X110665820Y-117390502D01*
X110785518Y-117426812D01*
X110910000Y-117439072D01*
X112610000Y-117439072D01*
X112734482Y-117426812D01*
X112854180Y-117390502D01*
X112964494Y-117331537D01*
X113061185Y-117252185D01*
X113140537Y-117155494D01*
X113199502Y-117045180D01*
X113235812Y-116925482D01*
X113248072Y-116801000D01*
X113248072Y-115101000D01*
X113235812Y-114976518D01*
X113199502Y-114856820D01*
X113140537Y-114746506D01*
X113061185Y-114649815D01*
X112964494Y-114570463D01*
X112854180Y-114511498D01*
X112734482Y-114475188D01*
X112610000Y-114462928D01*
X110910000Y-114462928D01*
X110785518Y-114475188D01*
X110665820Y-114511498D01*
X110555506Y-114570463D01*
X110458815Y-114649815D01*
X110379463Y-114746506D01*
X110320498Y-114856820D01*
X110298487Y-114929380D01*
X110166632Y-114797525D01*
X109923411Y-114635010D01*
X109653158Y-114523068D01*
X109366260Y-114466000D01*
X109073740Y-114466000D01*
X108786842Y-114523068D01*
X108516589Y-114635010D01*
X108273368Y-114797525D01*
X108066525Y-115004368D01*
X107950000Y-115178760D01*
X107833475Y-115004368D01*
X107626632Y-114797525D01*
X107383411Y-114635010D01*
X107113158Y-114523068D01*
X106826260Y-114466000D01*
X106533740Y-114466000D01*
X106246842Y-114523068D01*
X105976589Y-114635010D01*
X105733368Y-114797525D01*
X105526525Y-115004368D01*
X105410000Y-115178760D01*
X105293475Y-115004368D01*
X105086632Y-114797525D01*
X104843411Y-114635010D01*
X104573158Y-114523068D01*
X104286260Y-114466000D01*
X103993740Y-114466000D01*
X103706842Y-114523068D01*
X103436589Y-114635010D01*
X103193368Y-114797525D01*
X102986525Y-115004368D01*
X102870000Y-115178760D01*
X102753475Y-115004368D01*
X102546632Y-114797525D01*
X102303411Y-114635010D01*
X102033158Y-114523068D01*
X101746260Y-114466000D01*
X101453740Y-114466000D01*
X101166842Y-114523068D01*
X100896589Y-114635010D01*
X100653368Y-114797525D01*
X100446525Y-115004368D01*
X100330000Y-115178760D01*
X100213475Y-115004368D01*
X100006632Y-114797525D01*
X99763411Y-114635010D01*
X99493158Y-114523068D01*
X99206260Y-114466000D01*
X98913740Y-114466000D01*
X98626842Y-114523068D01*
X98356589Y-114635010D01*
X98113368Y-114797525D01*
X97906525Y-115004368D01*
X97744010Y-115247589D01*
X97632068Y-115517842D01*
X97575000Y-115804740D01*
X95046000Y-115804740D01*
X95046000Y-113251000D01*
X115563928Y-113251000D01*
X115576188Y-113375482D01*
X115612498Y-113495180D01*
X115671463Y-113605494D01*
X115750815Y-113702185D01*
X115847506Y-113781537D01*
X115957820Y-113840502D01*
X116077518Y-113876812D01*
X116202000Y-113889072D01*
X116453750Y-113886000D01*
X116612500Y-113727250D01*
X116612500Y-112903000D01*
X115725750Y-112903000D01*
X115567000Y-113061750D01*
X115563928Y-113251000D01*
X95046000Y-113251000D01*
X95046000Y-112301000D01*
X115563928Y-112301000D01*
X115567000Y-112490250D01*
X115725750Y-112649000D01*
X116612500Y-112649000D01*
X116612500Y-111824750D01*
X116453750Y-111666000D01*
X116202000Y-111662928D01*
X116077518Y-111675188D01*
X115957820Y-111711498D01*
X115847506Y-111770463D01*
X115750815Y-111849815D01*
X115671463Y-111946506D01*
X115612498Y-112056820D01*
X115576188Y-112176518D01*
X115563928Y-112301000D01*
X95046000Y-112301000D01*
X95046000Y-107536000D01*
X99180928Y-107536000D01*
X99193188Y-107660482D01*
X99229498Y-107780180D01*
X99288463Y-107890494D01*
X99367815Y-107987185D01*
X99464506Y-108066537D01*
X99574820Y-108125502D01*
X99694518Y-108161812D01*
X99819000Y-108174072D01*
X100070750Y-108171000D01*
X100229500Y-108012250D01*
X100229500Y-107188000D01*
X99342750Y-107188000D01*
X99184000Y-107346750D01*
X99180928Y-107536000D01*
X95046000Y-107536000D01*
X95046000Y-106586000D01*
X99180928Y-106586000D01*
X99184000Y-106775250D01*
X99342750Y-106934000D01*
X100229500Y-106934000D01*
X100229500Y-106109750D01*
X100070750Y-105951000D01*
X99819000Y-105947928D01*
X99694518Y-105960188D01*
X99574820Y-105996498D01*
X99464506Y-106055463D01*
X99367815Y-106134815D01*
X99288463Y-106231506D01*
X99229498Y-106341820D01*
X99193188Y-106461518D01*
X99180928Y-106586000D01*
X95046000Y-106586000D01*
X95046000Y-104165061D01*
X98914000Y-104165061D01*
X98914000Y-104368939D01*
X98953774Y-104568898D01*
X99031795Y-104757256D01*
X99145063Y-104926774D01*
X99289226Y-105070937D01*
X99458744Y-105184205D01*
X99647102Y-105262226D01*
X99847061Y-105302000D01*
X99909199Y-105302000D01*
X100600224Y-105993026D01*
X100483500Y-106109750D01*
X100483500Y-106934000D01*
X100503500Y-106934000D01*
X100503500Y-107188000D01*
X100483500Y-107188000D01*
X100483500Y-108012250D01*
X100642250Y-108171000D01*
X100894000Y-108174072D01*
X101018482Y-108161812D01*
X101138180Y-108125502D01*
X101248494Y-108066537D01*
X101296394Y-108027226D01*
X101446433Y-108107423D01*
X101610684Y-108157248D01*
X101781500Y-108174072D01*
X102381500Y-108174072D01*
X102552316Y-108157248D01*
X102716567Y-108107423D01*
X102867942Y-108026512D01*
X102913702Y-107988957D01*
X103076102Y-108056226D01*
X103276061Y-108096000D01*
X103479939Y-108096000D01*
X103679898Y-108056226D01*
X103868256Y-107978205D01*
X104037774Y-107864937D01*
X104181937Y-107720774D01*
X104295205Y-107551256D01*
X104373226Y-107362898D01*
X104413000Y-107162939D01*
X104413000Y-106959061D01*
X104373226Y-106759102D01*
X104295205Y-106570744D01*
X104181937Y-106401226D01*
X104037774Y-106257063D01*
X103868256Y-106143795D01*
X103679898Y-106065774D01*
X103479939Y-106026000D01*
X103276061Y-106026000D01*
X103076102Y-106065774D01*
X102913702Y-106133043D01*
X102867942Y-106095488D01*
X102745885Y-106030248D01*
X102716474Y-105975224D01*
X102680178Y-105930997D01*
X102645299Y-105888496D01*
X102645295Y-105888492D01*
X102621501Y-105859499D01*
X102592508Y-105835705D01*
X100984000Y-104227199D01*
X100984000Y-104165061D01*
X100944226Y-103965102D01*
X100866205Y-103776744D01*
X100752937Y-103607226D01*
X100709000Y-103563289D01*
X100709000Y-102359000D01*
X110011928Y-102359000D01*
X110015000Y-102610750D01*
X110173750Y-102769500D01*
X110998000Y-102769500D01*
X110998000Y-101882750D01*
X111252000Y-101882750D01*
X111252000Y-102769500D01*
X112076250Y-102769500D01*
X112235000Y-102610750D01*
X112238072Y-102359000D01*
X112225812Y-102234518D01*
X112189502Y-102114820D01*
X112130537Y-102004506D01*
X112051185Y-101907815D01*
X111954494Y-101828463D01*
X111844180Y-101769498D01*
X111724482Y-101733188D01*
X111600000Y-101720928D01*
X111410750Y-101724000D01*
X111252000Y-101882750D01*
X110998000Y-101882750D01*
X110839250Y-101724000D01*
X110650000Y-101720928D01*
X110525518Y-101733188D01*
X110405820Y-101769498D01*
X110295506Y-101828463D01*
X110198815Y-101907815D01*
X110119463Y-102004506D01*
X110060498Y-102114820D01*
X110024188Y-102234518D01*
X110011928Y-102359000D01*
X100709000Y-102359000D01*
X100709000Y-99281000D01*
X101466928Y-99281000D01*
X101479188Y-99405482D01*
X101515498Y-99525180D01*
X101574463Y-99635494D01*
X101653815Y-99732185D01*
X101750506Y-99811537D01*
X101860820Y-99870502D01*
X101980518Y-99906812D01*
X102105000Y-99919072D01*
X102356750Y-99916000D01*
X102515500Y-99757250D01*
X102515500Y-98933000D01*
X101628750Y-98933000D01*
X101470000Y-99091750D01*
X101466928Y-99281000D01*
X100709000Y-99281000D01*
X100709000Y-98331000D01*
X101466928Y-98331000D01*
X101470000Y-98520250D01*
X101628750Y-98679000D01*
X102515500Y-98679000D01*
X102515500Y-97854750D01*
X102356750Y-97696000D01*
X102105000Y-97692928D01*
X101980518Y-97705188D01*
X101860820Y-97741498D01*
X101750506Y-97800463D01*
X101653815Y-97879815D01*
X101574463Y-97976506D01*
X101515498Y-98086820D01*
X101479188Y-98206518D01*
X101466928Y-98331000D01*
X100709000Y-98331000D01*
X100709000Y-96645000D01*
X103374884Y-96645000D01*
X103833729Y-97103845D01*
X103779774Y-97234102D01*
X103740000Y-97434061D01*
X103740000Y-97510117D01*
X103732526Y-97519224D01*
X103661954Y-97651254D01*
X103631698Y-97751000D01*
X103618498Y-97794514D01*
X103615799Y-97821919D01*
X103582394Y-97839774D01*
X103534494Y-97800463D01*
X103424180Y-97741498D01*
X103304482Y-97705188D01*
X103180000Y-97692928D01*
X102928250Y-97696000D01*
X102769500Y-97854750D01*
X102769500Y-98679000D01*
X102789500Y-98679000D01*
X102789500Y-98933000D01*
X102769500Y-98933000D01*
X102769500Y-99757250D01*
X102928250Y-99916000D01*
X103180000Y-99919072D01*
X103304482Y-99906812D01*
X103424180Y-99870502D01*
X103534494Y-99811537D01*
X103582394Y-99772226D01*
X103732433Y-99852423D01*
X103896684Y-99902248D01*
X104067500Y-99919072D01*
X104667500Y-99919072D01*
X104838316Y-99902248D01*
X105002567Y-99852423D01*
X105153942Y-99771512D01*
X105286623Y-99662623D01*
X105395512Y-99529942D01*
X105476423Y-99378567D01*
X105526248Y-99214316D01*
X105543072Y-99043500D01*
X105543072Y-98568500D01*
X105526248Y-98397684D01*
X105495402Y-98296000D01*
X108547678Y-98296000D01*
X108585000Y-98299676D01*
X108622322Y-98296000D01*
X108622333Y-98296000D01*
X108733986Y-98285003D01*
X108877247Y-98241546D01*
X109009276Y-98170974D01*
X109125001Y-98076001D01*
X109148804Y-98046997D01*
X111379000Y-95816802D01*
X112270000Y-96707802D01*
X112270001Y-103690288D01*
X112226063Y-103734226D01*
X112141021Y-103861500D01*
X112104645Y-103861500D01*
X112091226Y-103836394D01*
X112130537Y-103788494D01*
X112189502Y-103678180D01*
X112225812Y-103558482D01*
X112238072Y-103434000D01*
X112235000Y-103182250D01*
X112076250Y-103023500D01*
X111252000Y-103023500D01*
X111252000Y-103043500D01*
X110998000Y-103043500D01*
X110998000Y-103023500D01*
X110173750Y-103023500D01*
X110015000Y-103182250D01*
X110011928Y-103434000D01*
X110024188Y-103558482D01*
X110060498Y-103678180D01*
X110119463Y-103788494D01*
X110158774Y-103836394D01*
X110078577Y-103986433D01*
X110028752Y-104150684D01*
X110011928Y-104321500D01*
X110011928Y-104921500D01*
X110028752Y-105092316D01*
X110078577Y-105256567D01*
X110159488Y-105407942D01*
X110268377Y-105540623D01*
X110401058Y-105649512D01*
X110552433Y-105730423D01*
X110716684Y-105780248D01*
X110887500Y-105797072D01*
X111362500Y-105797072D01*
X111533316Y-105780248D01*
X111697567Y-105730423D01*
X111848942Y-105649512D01*
X111981623Y-105540623D01*
X112090512Y-105407942D01*
X112104645Y-105381500D01*
X112709450Y-105381500D01*
X112728102Y-105389226D01*
X112928061Y-105429000D01*
X113131939Y-105429000D01*
X113331898Y-105389226D01*
X113520256Y-105311205D01*
X113689774Y-105197937D01*
X113833937Y-105053774D01*
X113921001Y-104923474D01*
X113921001Y-108270197D01*
X112228199Y-109963000D01*
X112166061Y-109963000D01*
X111966102Y-110002774D01*
X111777744Y-110080795D01*
X111608226Y-110194063D01*
X111464063Y-110338226D01*
X111350795Y-110507744D01*
X111272774Y-110696102D01*
X111233000Y-110896061D01*
X111233000Y-111099939D01*
X111272774Y-111299898D01*
X111350795Y-111488256D01*
X111464063Y-111657774D01*
X111608226Y-111801937D01*
X111777744Y-111915205D01*
X111966102Y-111993226D01*
X112166061Y-112033000D01*
X112369939Y-112033000D01*
X112569898Y-111993226D01*
X112758256Y-111915205D01*
X112927774Y-111801937D01*
X113071937Y-111657774D01*
X113185205Y-111488256D01*
X113263226Y-111299898D01*
X113303000Y-111099939D01*
X113303000Y-111037801D01*
X114954451Y-109386351D01*
X115051525Y-109531632D01*
X115258368Y-109738475D01*
X115501589Y-109900990D01*
X115771842Y-110012932D01*
X116058740Y-110070000D01*
X116351260Y-110070000D01*
X116638158Y-110012932D01*
X116908411Y-109900990D01*
X117151632Y-109738475D01*
X117283487Y-109606620D01*
X117305498Y-109679180D01*
X117364463Y-109789494D01*
X117443815Y-109886185D01*
X117540506Y-109965537D01*
X117650820Y-110024502D01*
X117770518Y-110060812D01*
X117895000Y-110073072D01*
X119595000Y-110073072D01*
X119719482Y-110060812D01*
X119839180Y-110024502D01*
X119949494Y-109965537D01*
X120046185Y-109886185D01*
X120125537Y-109789494D01*
X120184502Y-109679180D01*
X120220812Y-109559482D01*
X120233072Y-109435000D01*
X120233072Y-107735000D01*
X120220812Y-107610518D01*
X120184502Y-107490820D01*
X120125537Y-107380506D01*
X120046185Y-107283815D01*
X119949494Y-107204463D01*
X119839180Y-107145498D01*
X119766620Y-107123487D01*
X119898475Y-106991632D01*
X120060990Y-106748411D01*
X120172932Y-106478158D01*
X120230000Y-106191260D01*
X120230000Y-105898740D01*
X120172932Y-105611842D01*
X120060990Y-105341589D01*
X119898475Y-105098368D01*
X119691632Y-104891525D01*
X119448411Y-104729010D01*
X119178158Y-104617068D01*
X118891260Y-104560000D01*
X118598740Y-104560000D01*
X118311842Y-104617068D01*
X118041589Y-104729010D01*
X117798368Y-104891525D01*
X117591525Y-105098368D01*
X117475000Y-105272760D01*
X117358475Y-105098368D01*
X117151632Y-104891525D01*
X116908411Y-104729010D01*
X116638158Y-104617068D01*
X116351260Y-104560000D01*
X116058740Y-104560000D01*
X115771842Y-104617068D01*
X115501589Y-104729010D01*
X115441000Y-104769494D01*
X115441000Y-103637506D01*
X115501589Y-103677990D01*
X115771842Y-103789932D01*
X116058740Y-103847000D01*
X116351260Y-103847000D01*
X116638158Y-103789932D01*
X116908411Y-103677990D01*
X117151632Y-103515475D01*
X117358475Y-103308632D01*
X117475000Y-103134240D01*
X117591525Y-103308632D01*
X117798368Y-103515475D01*
X118041589Y-103677990D01*
X118311842Y-103789932D01*
X118598740Y-103847000D01*
X118891260Y-103847000D01*
X119178158Y-103789932D01*
X119448411Y-103677990D01*
X119691632Y-103515475D01*
X119898475Y-103308632D01*
X120060990Y-103065411D01*
X120172932Y-102795158D01*
X120230000Y-102508260D01*
X120230000Y-102215740D01*
X120172932Y-101928842D01*
X120060990Y-101658589D01*
X119898475Y-101415368D01*
X119691632Y-101208525D01*
X119517240Y-101092000D01*
X119691632Y-100975475D01*
X119898475Y-100768632D01*
X120060990Y-100525411D01*
X120172932Y-100255158D01*
X120230000Y-99968260D01*
X120230000Y-99675740D01*
X120172932Y-99388842D01*
X120060990Y-99118589D01*
X119898475Y-98875368D01*
X119691632Y-98668525D01*
X119517240Y-98552000D01*
X119691632Y-98435475D01*
X119898475Y-98228632D01*
X120060990Y-97985411D01*
X120172932Y-97715158D01*
X120230000Y-97428260D01*
X120230000Y-97135740D01*
X120172932Y-96848842D01*
X120060990Y-96578589D01*
X119898475Y-96335368D01*
X119691632Y-96128525D01*
X119517240Y-96012000D01*
X119691632Y-95895475D01*
X119898475Y-95688632D01*
X120060990Y-95445411D01*
X120172932Y-95175158D01*
X120230000Y-94888260D01*
X120230000Y-94595740D01*
X120172932Y-94308842D01*
X120132198Y-94210500D01*
X120933928Y-94210500D01*
X120946188Y-94334982D01*
X120982498Y-94454680D01*
X121041463Y-94564994D01*
X121120815Y-94661685D01*
X121217506Y-94741037D01*
X121327820Y-94800002D01*
X121447518Y-94836312D01*
X121572000Y-94848572D01*
X121761250Y-94845500D01*
X121920000Y-94686750D01*
X121920000Y-93800000D01*
X122174000Y-93800000D01*
X122174000Y-94686750D01*
X122332750Y-94845500D01*
X122522000Y-94848572D01*
X122646482Y-94836312D01*
X122766180Y-94800002D01*
X122876494Y-94741037D01*
X122973185Y-94661685D01*
X123052537Y-94564994D01*
X123111502Y-94454680D01*
X123147812Y-94334982D01*
X123160072Y-94210500D01*
X123157000Y-93958750D01*
X122998250Y-93800000D01*
X122174000Y-93800000D01*
X121920000Y-93800000D01*
X121095750Y-93800000D01*
X120937000Y-93958750D01*
X120933928Y-94210500D01*
X120132198Y-94210500D01*
X120060990Y-94038589D01*
X119898475Y-93795368D01*
X119691632Y-93588525D01*
X119448411Y-93426010D01*
X119178158Y-93314068D01*
X118891260Y-93257000D01*
X118598740Y-93257000D01*
X118311842Y-93314068D01*
X118041589Y-93426010D01*
X117798368Y-93588525D01*
X117666513Y-93720380D01*
X117644502Y-93647820D01*
X117585537Y-93537506D01*
X117506185Y-93440815D01*
X117409494Y-93361463D01*
X117299180Y-93302498D01*
X117179482Y-93266188D01*
X117055000Y-93253928D01*
X115355000Y-93253928D01*
X115230518Y-93266188D01*
X115110820Y-93302498D01*
X115000506Y-93361463D01*
X114903815Y-93440815D01*
X114824463Y-93537506D01*
X114765498Y-93647820D01*
X114729188Y-93767518D01*
X114716928Y-93892000D01*
X114716928Y-95592000D01*
X114729188Y-95716482D01*
X114765498Y-95836180D01*
X114824463Y-95946494D01*
X114903815Y-96043185D01*
X115000506Y-96122537D01*
X115110820Y-96181502D01*
X115183380Y-96203513D01*
X115051525Y-96335368D01*
X114889010Y-96578589D01*
X114777068Y-96848842D01*
X114720000Y-97135740D01*
X114720000Y-97428260D01*
X114777068Y-97715158D01*
X114801748Y-97774741D01*
X114782939Y-97771000D01*
X114579061Y-97771000D01*
X114379102Y-97810774D01*
X114190744Y-97888795D01*
X114021226Y-98002063D01*
X113877063Y-98146226D01*
X113790000Y-98276525D01*
X113790000Y-96430333D01*
X113793677Y-96393000D01*
X113779003Y-96244014D01*
X113735546Y-96100753D01*
X113664974Y-95968724D01*
X113596264Y-95885001D01*
X113570001Y-95852999D01*
X113541004Y-95829202D01*
X112453801Y-94742000D01*
X114506040Y-92689762D01*
X121066088Y-92705630D01*
X121080774Y-92733106D01*
X121041463Y-92781006D01*
X120982498Y-92891320D01*
X120946188Y-93011018D01*
X120933928Y-93135500D01*
X120937000Y-93387250D01*
X121095750Y-93546000D01*
X121920000Y-93546000D01*
X121920000Y-93526000D01*
X122174000Y-93526000D01*
X122174000Y-93546000D01*
X122998250Y-93546000D01*
X123157000Y-93387250D01*
X123160072Y-93135500D01*
X123147812Y-93011018D01*
X123111502Y-92891320D01*
X123052537Y-92781006D01*
X123013226Y-92733106D01*
X123026645Y-92708000D01*
X126240001Y-92708000D01*
X126240000Y-96070289D01*
X126196063Y-96114226D01*
X126082795Y-96283744D01*
X126004774Y-96472102D01*
X125965000Y-96672061D01*
X125965000Y-96875939D01*
X126004774Y-97075898D01*
X126082795Y-97264256D01*
X126196063Y-97433774D01*
X126240000Y-97477711D01*
X126240001Y-104071288D01*
X126196063Y-104115226D01*
X126082795Y-104284744D01*
X126004774Y-104473102D01*
X125965000Y-104673061D01*
X125965000Y-104876939D01*
X126004774Y-105076898D01*
X126082795Y-105265256D01*
X126179385Y-105409813D01*
X119721199Y-111868000D01*
X119659061Y-111868000D01*
X119459102Y-111907774D01*
X119395665Y-111934051D01*
X119383623Y-111919377D01*
X119250942Y-111810488D01*
X119099567Y-111729577D01*
X118935316Y-111679752D01*
X118764500Y-111662928D01*
X118164500Y-111662928D01*
X117993684Y-111679752D01*
X117829433Y-111729577D01*
X117679394Y-111809774D01*
X117631494Y-111770463D01*
X117521180Y-111711498D01*
X117401482Y-111675188D01*
X117277000Y-111662928D01*
X117025250Y-111666000D01*
X116866500Y-111824750D01*
X116866500Y-112649000D01*
X116886500Y-112649000D01*
X116886500Y-112903000D01*
X116866500Y-112903000D01*
X116866500Y-113727250D01*
X117025250Y-113886000D01*
X117277000Y-113889072D01*
X117401482Y-113876812D01*
X117521180Y-113840502D01*
X117631494Y-113781537D01*
X117679394Y-113742226D01*
X117829433Y-113822423D01*
X117993684Y-113872248D01*
X118164500Y-113889072D01*
X118764500Y-113889072D01*
X118935316Y-113872248D01*
X119099567Y-113822423D01*
X119196512Y-113770605D01*
X119270744Y-113820205D01*
X119459102Y-113898226D01*
X119659061Y-113938000D01*
X119862939Y-113938000D01*
X120062898Y-113898226D01*
X120251256Y-113820205D01*
X120420774Y-113706937D01*
X120564937Y-113562774D01*
X120678205Y-113393256D01*
X120756226Y-113204898D01*
X120796000Y-113004939D01*
X120796000Y-112942801D01*
X123844801Y-109894000D01*
X133893928Y-109894000D01*
X133893928Y-111594000D01*
X133906188Y-111718482D01*
X133942498Y-111838180D01*
X134001463Y-111948494D01*
X134080815Y-112045185D01*
X134177506Y-112124537D01*
X134287820Y-112183502D01*
X134407518Y-112219812D01*
X134532000Y-112232072D01*
X136232000Y-112232072D01*
X136356482Y-112219812D01*
X136476180Y-112183502D01*
X136586494Y-112124537D01*
X136683185Y-112045185D01*
X136762537Y-111948494D01*
X136821502Y-111838180D01*
X136857812Y-111718482D01*
X136870072Y-111594000D01*
X136870072Y-109894000D01*
X136857812Y-109769518D01*
X136821502Y-109649820D01*
X136762537Y-109539506D01*
X136683185Y-109442815D01*
X136586494Y-109363463D01*
X136476180Y-109304498D01*
X136403620Y-109282487D01*
X136535475Y-109150632D01*
X136697990Y-108907411D01*
X136809932Y-108637158D01*
X136867000Y-108350260D01*
X136867000Y-108057740D01*
X136809932Y-107770842D01*
X136697990Y-107500589D01*
X136535475Y-107257368D01*
X136328632Y-107050525D01*
X136085411Y-106888010D01*
X135815158Y-106776068D01*
X135528260Y-106719000D01*
X135235740Y-106719000D01*
X134948842Y-106776068D01*
X134678589Y-106888010D01*
X134435368Y-107050525D01*
X134228525Y-107257368D01*
X134066010Y-107500589D01*
X133954068Y-107770842D01*
X133897000Y-108057740D01*
X133897000Y-108350260D01*
X133954068Y-108637158D01*
X134066010Y-108907411D01*
X134228525Y-109150632D01*
X134360380Y-109282487D01*
X134287820Y-109304498D01*
X134177506Y-109363463D01*
X134080815Y-109442815D01*
X134001463Y-109539506D01*
X133942498Y-109649820D01*
X133906188Y-109769518D01*
X133893928Y-109894000D01*
X123844801Y-109894000D01*
X127511003Y-106227799D01*
X127540001Y-106204001D01*
X127566332Y-106171917D01*
X127634974Y-106088277D01*
X127705546Y-105956247D01*
X127713205Y-105930997D01*
X127749003Y-105812986D01*
X127760000Y-105701333D01*
X127760000Y-105701323D01*
X127763676Y-105664000D01*
X127760000Y-105626677D01*
X127760000Y-105478711D01*
X127803937Y-105434774D01*
X127917205Y-105265256D01*
X127995226Y-105076898D01*
X128035000Y-104876939D01*
X128035000Y-104673061D01*
X127995226Y-104473102D01*
X127917205Y-104284744D01*
X127803937Y-104115226D01*
X127760000Y-104071289D01*
X127760000Y-97477711D01*
X127803937Y-97433774D01*
X127917205Y-97264256D01*
X127995226Y-97075898D01*
X128035000Y-96875939D01*
X128035000Y-96672061D01*
X127995226Y-96472102D01*
X127917205Y-96283744D01*
X127803937Y-96114226D01*
X127760000Y-96070289D01*
X127760000Y-92708000D01*
X137734199Y-92708000D01*
X138159002Y-93132804D01*
X138159001Y-112592679D01*
X138155325Y-112630001D01*
X138159001Y-112667323D01*
X138159001Y-112667333D01*
X138169998Y-112778986D01*
X138200948Y-112881015D01*
X138213455Y-112922247D01*
X138284000Y-113054226D01*
X138284000Y-113131939D01*
X138323774Y-113331898D01*
X138401795Y-113520256D01*
X138515063Y-113689774D01*
X138659226Y-113833937D01*
X138828744Y-113947205D01*
X139017102Y-114025226D01*
X139217061Y-114065000D01*
X139279199Y-114065000D01*
X139914649Y-114700451D01*
X139769368Y-114797525D01*
X139562525Y-115004368D01*
X139446000Y-115178760D01*
X139329475Y-115004368D01*
X139122632Y-114797525D01*
X138879411Y-114635010D01*
X138609158Y-114523068D01*
X138322260Y-114466000D01*
X138029740Y-114466000D01*
X137742842Y-114523068D01*
X137472589Y-114635010D01*
X137229368Y-114797525D01*
X137022525Y-115004368D01*
X136906000Y-115178760D01*
X136789475Y-115004368D01*
X136582632Y-114797525D01*
X136339411Y-114635010D01*
X136069158Y-114523068D01*
X135782260Y-114466000D01*
X135489740Y-114466000D01*
X135202842Y-114523068D01*
X134932589Y-114635010D01*
X134689368Y-114797525D01*
X134482525Y-115004368D01*
X134366000Y-115178760D01*
X134249475Y-115004368D01*
X134042632Y-114797525D01*
X133799411Y-114635010D01*
X133529158Y-114523068D01*
X133242260Y-114466000D01*
X132949740Y-114466000D01*
X132662842Y-114523068D01*
X132392589Y-114635010D01*
X132149368Y-114797525D01*
X131942525Y-115004368D01*
X131826000Y-115178760D01*
X131709475Y-115004368D01*
X131502632Y-114797525D01*
X131259411Y-114635010D01*
X130989158Y-114523068D01*
X130702260Y-114466000D01*
X130409740Y-114466000D01*
X130122842Y-114523068D01*
X129852589Y-114635010D01*
X129609368Y-114797525D01*
X129402525Y-115004368D01*
X129240010Y-115247589D01*
X129128068Y-115517842D01*
X129071000Y-115804740D01*
X129071000Y-116097260D01*
X129128068Y-116384158D01*
X129240010Y-116654411D01*
X129402525Y-116897632D01*
X129609368Y-117104475D01*
X129852589Y-117266990D01*
X130122842Y-117378932D01*
X130409740Y-117436000D01*
X130702260Y-117436000D01*
X130989158Y-117378932D01*
X131259411Y-117266990D01*
X131502632Y-117104475D01*
X131709475Y-116897632D01*
X131826000Y-116723240D01*
X131942525Y-116897632D01*
X132149368Y-117104475D01*
X132392589Y-117266990D01*
X132662842Y-117378932D01*
X132949740Y-117436000D01*
X133242260Y-117436000D01*
X133529158Y-117378932D01*
X133799411Y-117266990D01*
X134042632Y-117104475D01*
X134249475Y-116897632D01*
X134366000Y-116723240D01*
X134482525Y-116897632D01*
X134689368Y-117104475D01*
X134932589Y-117266990D01*
X135202842Y-117378932D01*
X135489740Y-117436000D01*
X135782260Y-117436000D01*
X136069158Y-117378932D01*
X136339411Y-117266990D01*
X136582632Y-117104475D01*
X136789475Y-116897632D01*
X136906000Y-116723240D01*
X137022525Y-116897632D01*
X137229368Y-117104475D01*
X137472589Y-117266990D01*
X137742842Y-117378932D01*
X138029740Y-117436000D01*
X138322260Y-117436000D01*
X138609158Y-117378932D01*
X138879411Y-117266990D01*
X139122632Y-117104475D01*
X139329475Y-116897632D01*
X139446000Y-116723240D01*
X139562525Y-116897632D01*
X139769368Y-117104475D01*
X140012589Y-117266990D01*
X140282842Y-117378932D01*
X140569740Y-117436000D01*
X140862260Y-117436000D01*
X141149158Y-117378932D01*
X141419411Y-117266990D01*
X141662632Y-117104475D01*
X141869475Y-116897632D01*
X141986000Y-116723240D01*
X142102525Y-116897632D01*
X142309368Y-117104475D01*
X142552589Y-117266990D01*
X142822842Y-117378932D01*
X143109740Y-117436000D01*
X143402260Y-117436000D01*
X143689158Y-117378932D01*
X143959411Y-117266990D01*
X144202632Y-117104475D01*
X144409475Y-116897632D01*
X144526000Y-116723240D01*
X144642525Y-116897632D01*
X144849368Y-117104475D01*
X145092589Y-117266990D01*
X145362842Y-117378932D01*
X145649740Y-117436000D01*
X145942260Y-117436000D01*
X146229158Y-117378932D01*
X146499411Y-117266990D01*
X146742632Y-117104475D01*
X146874487Y-116972620D01*
X146896498Y-117045180D01*
X146955463Y-117155494D01*
X147034815Y-117252185D01*
X147131506Y-117331537D01*
X147241820Y-117390502D01*
X147361518Y-117426812D01*
X147486000Y-117439072D01*
X148050250Y-117436000D01*
X148209000Y-117277250D01*
X148209000Y-116078000D01*
X148463000Y-116078000D01*
X148463000Y-117277250D01*
X148621750Y-117436000D01*
X149186000Y-117439072D01*
X149310482Y-117426812D01*
X149430180Y-117390502D01*
X149540494Y-117331537D01*
X149637185Y-117252185D01*
X149716537Y-117155494D01*
X149775502Y-117045180D01*
X149811812Y-116925482D01*
X149824072Y-116801000D01*
X149821000Y-116236750D01*
X149662250Y-116078000D01*
X148463000Y-116078000D01*
X148209000Y-116078000D01*
X148189000Y-116078000D01*
X148189000Y-115824000D01*
X148209000Y-115824000D01*
X148209000Y-114624750D01*
X148463000Y-114624750D01*
X148463000Y-115824000D01*
X149662250Y-115824000D01*
X149821000Y-115665250D01*
X149824072Y-115101000D01*
X149811812Y-114976518D01*
X149775502Y-114856820D01*
X149716537Y-114746506D01*
X149637185Y-114649815D01*
X149540494Y-114570463D01*
X149430180Y-114511498D01*
X149310482Y-114475188D01*
X149186000Y-114462928D01*
X148621750Y-114466000D01*
X148463000Y-114624750D01*
X148209000Y-114624750D01*
X148050250Y-114466000D01*
X147486000Y-114462928D01*
X147361518Y-114475188D01*
X147241820Y-114511498D01*
X147131506Y-114570463D01*
X147034815Y-114649815D01*
X146955463Y-114746506D01*
X146896498Y-114856820D01*
X146874487Y-114929380D01*
X146742632Y-114797525D01*
X146499411Y-114635010D01*
X146229158Y-114523068D01*
X145942260Y-114466000D01*
X145649740Y-114466000D01*
X145429592Y-114509791D01*
X145089804Y-114170003D01*
X145066001Y-114140999D01*
X144950276Y-114046026D01*
X144818247Y-113975454D01*
X144674986Y-113931997D01*
X144563333Y-113921000D01*
X144563322Y-113921000D01*
X144526000Y-113917324D01*
X144488678Y-113921000D01*
X141284802Y-113921000D01*
X140354000Y-112990199D01*
X140354000Y-112928061D01*
X140314226Y-112728102D01*
X140236205Y-112539744D01*
X140122937Y-112370226D01*
X139978774Y-112226063D01*
X139809256Y-112112795D01*
X139679001Y-112058841D01*
X139679001Y-96741804D01*
X140603198Y-97666002D01*
X140626997Y-97695001D01*
X140655995Y-97718799D01*
X140742721Y-97789974D01*
X140848387Y-97846454D01*
X140848428Y-97846476D01*
X140848194Y-97847246D01*
X140823997Y-97927015D01*
X140813461Y-98033984D01*
X140809323Y-98076001D01*
X140813000Y-98113333D01*
X140812999Y-110924272D01*
X140809323Y-110961594D01*
X140812999Y-110998916D01*
X140812999Y-110998926D01*
X140823996Y-111110579D01*
X140859614Y-111227998D01*
X140867453Y-111253840D01*
X140938025Y-111385870D01*
X140967903Y-111422276D01*
X141032998Y-111501595D01*
X141062001Y-111525398D01*
X142024607Y-112488004D01*
X142048405Y-112517002D01*
X142164130Y-112611975D01*
X142296159Y-112682547D01*
X142439420Y-112726004D01*
X142551073Y-112737001D01*
X142551082Y-112737001D01*
X142588405Y-112740677D01*
X142625728Y-112737001D01*
X143376179Y-112737001D01*
X143413501Y-112740677D01*
X143450823Y-112737001D01*
X143450834Y-112737001D01*
X143562487Y-112726004D01*
X143705748Y-112682547D01*
X143837777Y-112611975D01*
X143953502Y-112517002D01*
X143977304Y-112487999D01*
X144472303Y-111993001D01*
X148253841Y-111993001D01*
X148307795Y-112123256D01*
X148421063Y-112292774D01*
X148565226Y-112436937D01*
X148734744Y-112550205D01*
X148923102Y-112628226D01*
X149123061Y-112668000D01*
X149326939Y-112668000D01*
X149526898Y-112628226D01*
X149715256Y-112550205D01*
X149884774Y-112436937D01*
X149928711Y-112393000D01*
X150838678Y-112393000D01*
X150876000Y-112396676D01*
X150913322Y-112393000D01*
X150913333Y-112393000D01*
X151024986Y-112382003D01*
X151168247Y-112338546D01*
X151300276Y-112267974D01*
X151416001Y-112173001D01*
X151439804Y-112143997D01*
X152185802Y-111398000D01*
X152247939Y-111398000D01*
X152447898Y-111358226D01*
X152636256Y-111280205D01*
X152805774Y-111166937D01*
X152949937Y-111022774D01*
X153063205Y-110853256D01*
X153141226Y-110664898D01*
X153181000Y-110464939D01*
X153181000Y-110261061D01*
X153141226Y-110061102D01*
X153063205Y-109872744D01*
X152949937Y-109703226D01*
X152805774Y-109559063D01*
X152636256Y-109445795D01*
X152447898Y-109367774D01*
X152247939Y-109328000D01*
X152044061Y-109328000D01*
X151844102Y-109367774D01*
X151655744Y-109445795D01*
X151486226Y-109559063D01*
X151342063Y-109703226D01*
X151228795Y-109872744D01*
X151150774Y-110061102D01*
X151111000Y-110261061D01*
X151111000Y-110323198D01*
X150561199Y-110873000D01*
X149928711Y-110873000D01*
X149884774Y-110829063D01*
X149715256Y-110715795D01*
X149526898Y-110637774D01*
X149326939Y-110598000D01*
X149249226Y-110598000D01*
X149117248Y-110527455D01*
X148973987Y-110483998D01*
X148862334Y-110473001D01*
X148862323Y-110473001D01*
X148825001Y-110469325D01*
X148787679Y-110473001D01*
X144921333Y-110473001D01*
X144939001Y-110458501D01*
X145033974Y-110342776D01*
X145104546Y-110210747D01*
X145148003Y-110067486D01*
X145159000Y-109955833D01*
X145159000Y-109955825D01*
X145162676Y-109918500D01*
X145159000Y-109881175D01*
X145159000Y-108458000D01*
X145388500Y-108458000D01*
X145388500Y-109282250D01*
X145547250Y-109441000D01*
X145799000Y-109444072D01*
X145923482Y-109431812D01*
X146043180Y-109395502D01*
X146153494Y-109336537D01*
X146250185Y-109257185D01*
X146329537Y-109160494D01*
X146388502Y-109050180D01*
X146424812Y-108930482D01*
X146437072Y-108806000D01*
X146434000Y-108616750D01*
X146275250Y-108458000D01*
X145388500Y-108458000D01*
X145159000Y-108458000D01*
X145159000Y-108202000D01*
X145388500Y-108202000D01*
X145388500Y-108204000D01*
X146275250Y-108204000D01*
X146277250Y-108202000D01*
X148679678Y-108202000D01*
X148717000Y-108205676D01*
X148754322Y-108202000D01*
X148754333Y-108202000D01*
X148865986Y-108191003D01*
X149009247Y-108147546D01*
X149141276Y-108076974D01*
X149257001Y-107982001D01*
X149280804Y-107952997D01*
X154492802Y-102741000D01*
X156903289Y-102741000D01*
X156947226Y-102784937D01*
X157116744Y-102898205D01*
X157305102Y-102976226D01*
X157505061Y-103016000D01*
X157708939Y-103016000D01*
X157908898Y-102976226D01*
X158097256Y-102898205D01*
X158266774Y-102784937D01*
X158310711Y-102741000D01*
X164517711Y-102741000D01*
X164563795Y-102852256D01*
X164677063Y-103021774D01*
X164821226Y-103165937D01*
X164990744Y-103279205D01*
X165179102Y-103357226D01*
X165379061Y-103397000D01*
X165582939Y-103397000D01*
X165782898Y-103357226D01*
X165971256Y-103279205D01*
X166140774Y-103165937D01*
X166284937Y-103021774D01*
X166398205Y-102852256D01*
X166476226Y-102663898D01*
X166516000Y-102463939D01*
X166516000Y-102260061D01*
X166504452Y-102202000D01*
X170173928Y-102202000D01*
X170186188Y-102326482D01*
X170222498Y-102446180D01*
X170281463Y-102556494D01*
X170360815Y-102653185D01*
X170457506Y-102732537D01*
X170567820Y-102791502D01*
X170687518Y-102827812D01*
X170812000Y-102840072D01*
X171063750Y-102837000D01*
X171222500Y-102678250D01*
X171222500Y-101854000D01*
X170335750Y-101854000D01*
X170177000Y-102012750D01*
X170173928Y-102202000D01*
X166504452Y-102202000D01*
X166476226Y-102060102D01*
X166398205Y-101871744D01*
X166284937Y-101702226D01*
X166140774Y-101558063D01*
X165971256Y-101444795D01*
X165782898Y-101366774D01*
X165582939Y-101327000D01*
X165488681Y-101327000D01*
X165392247Y-101275454D01*
X165314929Y-101252000D01*
X170173928Y-101252000D01*
X170177000Y-101441250D01*
X170335750Y-101600000D01*
X171222500Y-101600000D01*
X171222500Y-100775750D01*
X171063750Y-100617000D01*
X170812000Y-100613928D01*
X170687518Y-100626188D01*
X170567820Y-100662498D01*
X170457506Y-100721463D01*
X170360815Y-100800815D01*
X170281463Y-100897506D01*
X170222498Y-101007820D01*
X170186188Y-101127518D01*
X170173928Y-101252000D01*
X165314929Y-101252000D01*
X165248986Y-101231997D01*
X165137333Y-101221000D01*
X165137322Y-101221000D01*
X165100000Y-101217324D01*
X165062678Y-101221000D01*
X158310711Y-101221000D01*
X158266774Y-101177063D01*
X158097256Y-101063795D01*
X157908898Y-100985774D01*
X157708939Y-100946000D01*
X157505061Y-100946000D01*
X157305102Y-100985774D01*
X157116744Y-101063795D01*
X156947226Y-101177063D01*
X156903289Y-101221000D01*
X154215322Y-101221000D01*
X154177999Y-101217324D01*
X154140676Y-101221000D01*
X154140667Y-101221000D01*
X154029014Y-101231997D01*
X153885753Y-101275454D01*
X153753724Y-101346026D01*
X153637999Y-101440999D01*
X153614201Y-101469997D01*
X148402199Y-106682000D01*
X144854812Y-106682000D01*
X144817489Y-106678324D01*
X144780166Y-106682000D01*
X144780157Y-106682000D01*
X144683001Y-106691569D01*
X144683001Y-106385753D01*
X144854842Y-106456932D01*
X145141740Y-106514000D01*
X145434260Y-106514000D01*
X145721158Y-106456932D01*
X145991411Y-106344990D01*
X146234632Y-106182475D01*
X146441475Y-105975632D01*
X146603990Y-105732411D01*
X146715932Y-105462158D01*
X146773000Y-105175260D01*
X146773000Y-104882740D01*
X146715932Y-104595842D01*
X146603990Y-104325589D01*
X146441475Y-104082368D01*
X146234632Y-103875525D01*
X145991411Y-103713010D01*
X145721158Y-103601068D01*
X145434260Y-103544000D01*
X145141740Y-103544000D01*
X144854842Y-103601068D01*
X144683001Y-103672247D01*
X144683001Y-97027328D01*
X144686677Y-96990003D01*
X144683001Y-96952678D01*
X144683001Y-96952670D01*
X144672004Y-96841017D01*
X144628547Y-96697756D01*
X144557975Y-96565727D01*
X144463002Y-96450002D01*
X144434004Y-96426204D01*
X143084275Y-95076475D01*
X143229500Y-94931250D01*
X143229500Y-94107000D01*
X143483500Y-94107000D01*
X143483500Y-94931250D01*
X143642250Y-95090000D01*
X143894000Y-95093072D01*
X144018482Y-95080812D01*
X144138180Y-95044502D01*
X144248494Y-94985537D01*
X144345185Y-94906185D01*
X144424537Y-94809494D01*
X144483502Y-94699180D01*
X144519812Y-94579482D01*
X144532072Y-94455000D01*
X144529000Y-94265750D01*
X144370250Y-94107000D01*
X143483500Y-94107000D01*
X143229500Y-94107000D01*
X143209500Y-94107000D01*
X143209500Y-93853000D01*
X143229500Y-93853000D01*
X143229500Y-93028750D01*
X143483500Y-93028750D01*
X143483500Y-93853000D01*
X144370250Y-93853000D01*
X144529000Y-93694250D01*
X144532072Y-93505000D01*
X144519812Y-93380518D01*
X144483502Y-93260820D01*
X144424537Y-93150506D01*
X144345185Y-93053815D01*
X144248494Y-92974463D01*
X144138180Y-92915498D01*
X144018482Y-92879188D01*
X143894000Y-92866928D01*
X143642250Y-92870000D01*
X143483500Y-93028750D01*
X143229500Y-93028750D01*
X143070750Y-92870000D01*
X142819000Y-92866928D01*
X142694518Y-92879188D01*
X142574820Y-92915498D01*
X142464506Y-92974463D01*
X142416606Y-93013774D01*
X142391500Y-93000355D01*
X142391500Y-92708000D01*
X149989001Y-92708000D01*
X149989000Y-97459679D01*
X149985324Y-97497002D01*
X149989000Y-97534324D01*
X149989000Y-97534334D01*
X149999997Y-97645987D01*
X150037919Y-97771000D01*
X150043454Y-97789248D01*
X150114026Y-97921278D01*
X150146031Y-97960276D01*
X150208999Y-98037003D01*
X150238002Y-98060805D01*
X151640202Y-99463007D01*
X151663996Y-99492000D01*
X151692989Y-99515794D01*
X151692993Y-99515798D01*
X151710228Y-99529942D01*
X151779721Y-99586973D01*
X151911750Y-99657545D01*
X152055011Y-99701002D01*
X152166664Y-99711999D01*
X152166673Y-99711999D01*
X152203996Y-99715675D01*
X152241319Y-99711999D01*
X153105679Y-99711999D01*
X153143001Y-99715675D01*
X153180323Y-99711999D01*
X153180334Y-99711999D01*
X153291987Y-99701002D01*
X153435248Y-99657545D01*
X153567226Y-99587000D01*
X153644939Y-99587000D01*
X153844898Y-99547226D01*
X154033256Y-99469205D01*
X154202774Y-99355937D01*
X154346937Y-99211774D01*
X154460205Y-99042256D01*
X154538226Y-98853898D01*
X154578000Y-98653939D01*
X154578000Y-98450061D01*
X154538226Y-98250102D01*
X154460205Y-98061744D01*
X154346937Y-97892226D01*
X154202774Y-97748063D01*
X154033256Y-97634795D01*
X153844898Y-97556774D01*
X153644939Y-97517000D01*
X153588086Y-97517000D01*
X153631000Y-97301260D01*
X153631000Y-97008740D01*
X153573932Y-96721842D01*
X153461990Y-96451589D01*
X153299475Y-96208368D01*
X153167620Y-96076513D01*
X153240180Y-96054502D01*
X153350494Y-95995537D01*
X153447185Y-95916185D01*
X153526537Y-95819494D01*
X153585502Y-95709180D01*
X153621812Y-95589482D01*
X153634072Y-95465000D01*
X153634072Y-94210500D01*
X161192928Y-94210500D01*
X161205188Y-94334982D01*
X161241498Y-94454680D01*
X161300463Y-94564994D01*
X161379815Y-94661685D01*
X161476506Y-94741037D01*
X161586820Y-94800002D01*
X161706518Y-94836312D01*
X161831000Y-94848572D01*
X162020250Y-94845500D01*
X162179000Y-94686750D01*
X162179000Y-93800000D01*
X162433000Y-93800000D01*
X162433000Y-94686750D01*
X162591750Y-94845500D01*
X162781000Y-94848572D01*
X162905482Y-94836312D01*
X163025180Y-94800002D01*
X163135494Y-94741037D01*
X163232185Y-94661685D01*
X163311537Y-94564994D01*
X163370502Y-94454680D01*
X163406812Y-94334982D01*
X163419072Y-94210500D01*
X163416000Y-93958750D01*
X163257250Y-93800000D01*
X162433000Y-93800000D01*
X162179000Y-93800000D01*
X161354750Y-93800000D01*
X161196000Y-93958750D01*
X161192928Y-94210500D01*
X153634072Y-94210500D01*
X153634072Y-93765000D01*
X153621812Y-93640518D01*
X153585502Y-93520820D01*
X153526537Y-93410506D01*
X153447185Y-93313815D01*
X153350494Y-93234463D01*
X153240180Y-93175498D01*
X153120482Y-93139188D01*
X152996000Y-93126928D01*
X151509000Y-93126928D01*
X151509000Y-92708000D01*
X161326355Y-92708000D01*
X161339774Y-92733106D01*
X161300463Y-92781006D01*
X161241498Y-92891320D01*
X161205188Y-93011018D01*
X161192928Y-93135500D01*
X161196000Y-93387250D01*
X161354750Y-93546000D01*
X162179000Y-93546000D01*
X162179000Y-93526000D01*
X162433000Y-93526000D01*
X162433000Y-93546000D01*
X163257250Y-93546000D01*
X163416000Y-93387250D01*
X163419072Y-93135500D01*
X163406812Y-93011018D01*
X163370502Y-92891320D01*
X163311537Y-92781006D01*
X163272226Y-92733106D01*
X163285645Y-92708000D01*
X175167002Y-92708000D01*
X175167002Y-93126928D01*
X173902000Y-93126928D01*
X173777518Y-93139188D01*
X173657820Y-93175498D01*
X173547506Y-93234463D01*
X173450815Y-93313815D01*
X173371463Y-93410506D01*
X173312498Y-93520820D01*
X173290487Y-93593380D01*
X173158632Y-93461525D01*
X172915411Y-93299010D01*
X172645158Y-93187068D01*
X172358260Y-93130000D01*
X172065740Y-93130000D01*
X171778842Y-93187068D01*
X171508589Y-93299010D01*
X171265368Y-93461525D01*
X171058525Y-93668368D01*
X170942000Y-93842760D01*
X170825475Y-93668368D01*
X170618632Y-93461525D01*
X170375411Y-93299010D01*
X170105158Y-93187068D01*
X169818260Y-93130000D01*
X169525740Y-93130000D01*
X169238842Y-93187068D01*
X168968589Y-93299010D01*
X168725368Y-93461525D01*
X168518525Y-93668368D01*
X168356010Y-93911589D01*
X168244068Y-94181842D01*
X168187000Y-94468740D01*
X168187000Y-94761260D01*
X168244068Y-95048158D01*
X168356010Y-95318411D01*
X168518525Y-95561632D01*
X168725368Y-95768475D01*
X168899760Y-95885000D01*
X168725368Y-96001525D01*
X168518525Y-96208368D01*
X168356010Y-96451589D01*
X168244068Y-96721842D01*
X168187000Y-97008740D01*
X168187000Y-97301260D01*
X168244068Y-97588158D01*
X168356010Y-97858411D01*
X168518525Y-98101632D01*
X168725368Y-98308475D01*
X168968589Y-98470990D01*
X169238842Y-98582932D01*
X169525740Y-98640000D01*
X169818260Y-98640000D01*
X170105158Y-98582932D01*
X170375411Y-98470990D01*
X170618632Y-98308475D01*
X170825475Y-98101632D01*
X170942000Y-97927240D01*
X171058525Y-98101632D01*
X171265368Y-98308475D01*
X171508589Y-98470990D01*
X171778842Y-98582932D01*
X172065740Y-98640000D01*
X172358260Y-98640000D01*
X172645158Y-98582932D01*
X172915411Y-98470990D01*
X173158632Y-98308475D01*
X173365475Y-98101632D01*
X173482000Y-97927240D01*
X173598525Y-98101632D01*
X173805368Y-98308475D01*
X174048589Y-98470990D01*
X174202469Y-98534729D01*
X173315199Y-99422000D01*
X173253061Y-99422000D01*
X173053102Y-99461774D01*
X172864744Y-99539795D01*
X172695226Y-99653063D01*
X172551063Y-99797226D01*
X172437795Y-99966744D01*
X172359774Y-100155102D01*
X172320000Y-100355061D01*
X172320000Y-100558939D01*
X172325730Y-100587748D01*
X172325498Y-100588514D01*
X172315874Y-100686226D01*
X172310824Y-100737500D01*
X172311930Y-100748728D01*
X172289394Y-100760774D01*
X172241494Y-100721463D01*
X172131180Y-100662498D01*
X172011482Y-100626188D01*
X171887000Y-100613928D01*
X171635250Y-100617000D01*
X171476500Y-100775750D01*
X171476500Y-101600000D01*
X171496500Y-101600000D01*
X171496500Y-101854000D01*
X171476500Y-101854000D01*
X171476500Y-102678250D01*
X171499974Y-102701724D01*
X169170699Y-105031000D01*
X165168711Y-105031000D01*
X165124774Y-104987063D01*
X164955256Y-104873795D01*
X164766898Y-104795774D01*
X164566939Y-104756000D01*
X164363061Y-104756000D01*
X164163102Y-104795774D01*
X163974744Y-104873795D01*
X163805226Y-104987063D01*
X163761289Y-105031000D01*
X160692325Y-105031000D01*
X160655000Y-105027324D01*
X160617675Y-105031000D01*
X160617667Y-105031000D01*
X160506014Y-105041997D01*
X160362753Y-105085454D01*
X160230724Y-105156026D01*
X160114999Y-105250999D01*
X160091200Y-105279998D01*
X159794189Y-105577010D01*
X157306500Y-105577010D01*
X157306500Y-105410000D01*
X157326500Y-105410000D01*
X157326500Y-104585750D01*
X157580500Y-104585750D01*
X157580500Y-105410000D01*
X158467250Y-105410000D01*
X158626000Y-105251250D01*
X158629072Y-105062000D01*
X158616812Y-104937518D01*
X158580502Y-104817820D01*
X158521537Y-104707506D01*
X158442185Y-104610815D01*
X158345494Y-104531463D01*
X158235180Y-104472498D01*
X158115482Y-104436188D01*
X157991000Y-104423928D01*
X157739250Y-104427000D01*
X157580500Y-104585750D01*
X157326500Y-104585750D01*
X157167750Y-104427000D01*
X156916000Y-104423928D01*
X156791518Y-104436188D01*
X156671820Y-104472498D01*
X156561506Y-104531463D01*
X156513606Y-104570774D01*
X156480202Y-104552919D01*
X156477503Y-104525514D01*
X156434046Y-104382253D01*
X156363474Y-104250224D01*
X156356000Y-104241117D01*
X156356000Y-104165061D01*
X156316226Y-103965102D01*
X156238205Y-103776744D01*
X156124937Y-103607226D01*
X155980774Y-103463063D01*
X155811256Y-103349795D01*
X155622898Y-103271774D01*
X155422939Y-103232000D01*
X155219061Y-103232000D01*
X155019102Y-103271774D01*
X154830744Y-103349795D01*
X154661226Y-103463063D01*
X154517063Y-103607226D01*
X154403795Y-103776744D01*
X154325774Y-103965102D01*
X154286000Y-104165061D01*
X154286000Y-104368939D01*
X154325774Y-104568898D01*
X154403795Y-104757256D01*
X154517063Y-104926774D01*
X154604482Y-105014193D01*
X154569752Y-105128684D01*
X154552928Y-105299500D01*
X154552928Y-105774500D01*
X154569752Y-105945316D01*
X154619577Y-106109567D01*
X154700488Y-106260942D01*
X154809377Y-106393623D01*
X154942058Y-106502512D01*
X154968500Y-106516646D01*
X154968501Y-108995928D01*
X154666500Y-108995928D01*
X154495684Y-109012752D01*
X154331433Y-109062577D01*
X154180058Y-109143488D01*
X154047377Y-109252377D01*
X153938488Y-109385058D01*
X153857577Y-109536433D01*
X153807752Y-109700684D01*
X153790928Y-109871500D01*
X153790928Y-110346500D01*
X153807752Y-110517316D01*
X153857577Y-110681567D01*
X153938488Y-110832942D01*
X154047377Y-110965623D01*
X154180058Y-111074512D01*
X154197441Y-111083803D01*
X154159000Y-111277061D01*
X154159000Y-111480939D01*
X154198774Y-111680898D01*
X154276795Y-111869256D01*
X154390063Y-112038774D01*
X154534226Y-112182937D01*
X154703744Y-112296205D01*
X154892102Y-112374226D01*
X155092061Y-112414000D01*
X155295939Y-112414000D01*
X155495898Y-112374226D01*
X155684256Y-112296205D01*
X155853774Y-112182937D01*
X155997937Y-112038774D01*
X156111205Y-111869256D01*
X156189226Y-111680898D01*
X156229000Y-111480939D01*
X156229000Y-111277061D01*
X156217907Y-111221292D01*
X156405750Y-111219000D01*
X156564500Y-111060250D01*
X156564500Y-110236000D01*
X156544500Y-110236000D01*
X156544500Y-109982000D01*
X156564500Y-109982000D01*
X156564500Y-109157750D01*
X156818500Y-109157750D01*
X156818500Y-109982000D01*
X156838500Y-109982000D01*
X156838500Y-110236000D01*
X156818500Y-110236000D01*
X156818500Y-111060250D01*
X156977250Y-111219000D01*
X157229000Y-111222072D01*
X157353482Y-111209812D01*
X157473180Y-111173502D01*
X157583494Y-111114537D01*
X157626261Y-111079439D01*
X157686102Y-111104226D01*
X157886061Y-111144000D01*
X157948199Y-111144000D01*
X159456201Y-112652003D01*
X159479999Y-112681001D01*
X159508997Y-112704799D01*
X159595723Y-112775974D01*
X159723759Y-112844411D01*
X159727753Y-112846546D01*
X159871014Y-112890003D01*
X159982667Y-112901000D01*
X159982677Y-112901000D01*
X160020000Y-112904676D01*
X160057323Y-112901000D01*
X162468928Y-112901000D01*
X162468928Y-112991000D01*
X162481188Y-113115482D01*
X162517498Y-113235180D01*
X162576463Y-113345494D01*
X162655815Y-113442185D01*
X162752506Y-113521537D01*
X162862820Y-113580502D01*
X162935380Y-113602513D01*
X162803525Y-113734368D01*
X162641010Y-113977589D01*
X162529068Y-114247842D01*
X162472000Y-114534740D01*
X162472000Y-114827260D01*
X162529068Y-115114158D01*
X162641010Y-115384411D01*
X162803525Y-115627632D01*
X163010368Y-115834475D01*
X163184760Y-115951000D01*
X163010368Y-116067525D01*
X162803525Y-116274368D01*
X162641010Y-116517589D01*
X162529068Y-116787842D01*
X162472000Y-117074740D01*
X162472000Y-117367260D01*
X162529068Y-117654158D01*
X162641010Y-117924411D01*
X162803525Y-118167632D01*
X163010368Y-118374475D01*
X163253589Y-118536990D01*
X163523842Y-118648932D01*
X163810740Y-118706000D01*
X164103260Y-118706000D01*
X164390158Y-118648932D01*
X164660411Y-118536990D01*
X164903632Y-118374475D01*
X165110475Y-118167632D01*
X165227000Y-117993240D01*
X165343525Y-118167632D01*
X165550368Y-118374475D01*
X165793589Y-118536990D01*
X166063842Y-118648932D01*
X166350740Y-118706000D01*
X166643260Y-118706000D01*
X166930158Y-118648932D01*
X167200411Y-118536990D01*
X167443632Y-118374475D01*
X167650475Y-118167632D01*
X167812990Y-117924411D01*
X167924932Y-117654158D01*
X167982000Y-117367260D01*
X167982000Y-117074740D01*
X167924932Y-116787842D01*
X167812990Y-116517589D01*
X167650475Y-116274368D01*
X167443632Y-116067525D01*
X167269240Y-115951000D01*
X167443632Y-115834475D01*
X167473367Y-115804740D01*
X175426000Y-115804740D01*
X175426000Y-116097260D01*
X175483068Y-116384158D01*
X175595010Y-116654411D01*
X175757525Y-116897632D01*
X175964368Y-117104475D01*
X176207589Y-117266990D01*
X176477842Y-117378932D01*
X176764740Y-117436000D01*
X177057260Y-117436000D01*
X177344158Y-117378932D01*
X177614411Y-117266990D01*
X177857632Y-117104475D01*
X178064475Y-116897632D01*
X178181000Y-116723240D01*
X178297525Y-116897632D01*
X178504368Y-117104475D01*
X178747589Y-117266990D01*
X179017842Y-117378932D01*
X179304740Y-117436000D01*
X179597260Y-117436000D01*
X179884158Y-117378932D01*
X180154411Y-117266990D01*
X180397632Y-117104475D01*
X180604475Y-116897632D01*
X180721000Y-116723240D01*
X180837525Y-116897632D01*
X181044368Y-117104475D01*
X181287589Y-117266990D01*
X181557842Y-117378932D01*
X181844740Y-117436000D01*
X182137260Y-117436000D01*
X182424158Y-117378932D01*
X182694411Y-117266990D01*
X182937632Y-117104475D01*
X183144475Y-116897632D01*
X183261000Y-116723240D01*
X183377525Y-116897632D01*
X183584368Y-117104475D01*
X183827589Y-117266990D01*
X184097842Y-117378932D01*
X184384740Y-117436000D01*
X184677260Y-117436000D01*
X184964158Y-117378932D01*
X185234411Y-117266990D01*
X185477632Y-117104475D01*
X185684475Y-116897632D01*
X185801000Y-116723240D01*
X185917525Y-116897632D01*
X186124368Y-117104475D01*
X186367589Y-117266990D01*
X186637842Y-117378932D01*
X186924740Y-117436000D01*
X187217260Y-117436000D01*
X187504158Y-117378932D01*
X187774411Y-117266990D01*
X188017632Y-117104475D01*
X188224475Y-116897632D01*
X188341000Y-116723240D01*
X188457525Y-116897632D01*
X188664368Y-117104475D01*
X188907589Y-117266990D01*
X189177842Y-117378932D01*
X189464740Y-117436000D01*
X189757260Y-117436000D01*
X190044158Y-117378932D01*
X190314411Y-117266990D01*
X190557632Y-117104475D01*
X190764475Y-116897632D01*
X190881000Y-116723240D01*
X190997525Y-116897632D01*
X191204368Y-117104475D01*
X191447589Y-117266990D01*
X191717842Y-117378932D01*
X192004740Y-117436000D01*
X192297260Y-117436000D01*
X192584158Y-117378932D01*
X192854411Y-117266990D01*
X193097632Y-117104475D01*
X193229487Y-116972620D01*
X193251498Y-117045180D01*
X193310463Y-117155494D01*
X193389815Y-117252185D01*
X193486506Y-117331537D01*
X193596820Y-117390502D01*
X193716518Y-117426812D01*
X193841000Y-117439072D01*
X195541000Y-117439072D01*
X195665482Y-117426812D01*
X195785180Y-117390502D01*
X195895494Y-117331537D01*
X195992185Y-117252185D01*
X196071537Y-117155494D01*
X196130502Y-117045180D01*
X196166812Y-116925482D01*
X196179072Y-116801000D01*
X196179072Y-115101000D01*
X196166812Y-114976518D01*
X196130502Y-114856820D01*
X196071537Y-114746506D01*
X195992185Y-114649815D01*
X195895494Y-114570463D01*
X195785180Y-114511498D01*
X195665482Y-114475188D01*
X195541000Y-114462928D01*
X193841000Y-114462928D01*
X193716518Y-114475188D01*
X193596820Y-114511498D01*
X193486506Y-114570463D01*
X193389815Y-114649815D01*
X193310463Y-114746506D01*
X193251498Y-114856820D01*
X193229487Y-114929380D01*
X193097632Y-114797525D01*
X192854411Y-114635010D01*
X192584158Y-114523068D01*
X192297260Y-114466000D01*
X192004740Y-114466000D01*
X191717842Y-114523068D01*
X191447589Y-114635010D01*
X191204368Y-114797525D01*
X190997525Y-115004368D01*
X190881000Y-115178760D01*
X190764475Y-115004368D01*
X190557632Y-114797525D01*
X190314411Y-114635010D01*
X190044158Y-114523068D01*
X189757260Y-114466000D01*
X189464740Y-114466000D01*
X189177842Y-114523068D01*
X188907589Y-114635010D01*
X188664368Y-114797525D01*
X188457525Y-115004368D01*
X188341000Y-115178760D01*
X188224475Y-115004368D01*
X188017632Y-114797525D01*
X187774411Y-114635010D01*
X187504158Y-114523068D01*
X187217260Y-114466000D01*
X186924740Y-114466000D01*
X186637842Y-114523068D01*
X186367589Y-114635010D01*
X186124368Y-114797525D01*
X185917525Y-115004368D01*
X185801000Y-115178760D01*
X185684475Y-115004368D01*
X185477632Y-114797525D01*
X185234411Y-114635010D01*
X184964158Y-114523068D01*
X184677260Y-114466000D01*
X184384740Y-114466000D01*
X184097842Y-114523068D01*
X183827589Y-114635010D01*
X183584368Y-114797525D01*
X183377525Y-115004368D01*
X183261000Y-115178760D01*
X183144475Y-115004368D01*
X182937632Y-114797525D01*
X182694411Y-114635010D01*
X182424158Y-114523068D01*
X182137260Y-114466000D01*
X181844740Y-114466000D01*
X181557842Y-114523068D01*
X181287589Y-114635010D01*
X181044368Y-114797525D01*
X180837525Y-115004368D01*
X180721000Y-115178760D01*
X180604475Y-115004368D01*
X180397632Y-114797525D01*
X180154411Y-114635010D01*
X179884158Y-114523068D01*
X179597260Y-114466000D01*
X179304740Y-114466000D01*
X179017842Y-114523068D01*
X178747589Y-114635010D01*
X178504368Y-114797525D01*
X178297525Y-115004368D01*
X178181000Y-115178760D01*
X178064475Y-115004368D01*
X177857632Y-114797525D01*
X177614411Y-114635010D01*
X177344158Y-114523068D01*
X177057260Y-114466000D01*
X176764740Y-114466000D01*
X176477842Y-114523068D01*
X176207589Y-114635010D01*
X175964368Y-114797525D01*
X175757525Y-115004368D01*
X175595010Y-115247589D01*
X175483068Y-115517842D01*
X175426000Y-115804740D01*
X167473367Y-115804740D01*
X167650475Y-115627632D01*
X167812990Y-115384411D01*
X167924932Y-115114158D01*
X167982000Y-114827260D01*
X167982000Y-114534740D01*
X167924932Y-114247842D01*
X167812990Y-113977589D01*
X167650475Y-113734368D01*
X167443632Y-113527525D01*
X167269240Y-113411000D01*
X167443632Y-113294475D01*
X167650475Y-113087632D01*
X167812990Y-112844411D01*
X167924932Y-112574158D01*
X167982000Y-112287260D01*
X167982000Y-111994740D01*
X167924932Y-111707842D01*
X167812990Y-111437589D01*
X167650475Y-111194368D01*
X167443632Y-110987525D01*
X167200411Y-110825010D01*
X166930158Y-110713068D01*
X166643260Y-110656000D01*
X166350740Y-110656000D01*
X166063842Y-110713068D01*
X165793589Y-110825010D01*
X165550368Y-110987525D01*
X165418513Y-111119380D01*
X165396502Y-111046820D01*
X165370381Y-110997952D01*
X165382205Y-110980256D01*
X165460226Y-110791898D01*
X165500000Y-110591939D01*
X165500000Y-110388061D01*
X165460226Y-110188102D01*
X165382205Y-109999744D01*
X165268937Y-109830226D01*
X165124774Y-109686063D01*
X164955256Y-109572795D01*
X164766898Y-109494774D01*
X164566939Y-109455000D01*
X164363061Y-109455000D01*
X164163102Y-109494774D01*
X163974744Y-109572795D01*
X163805226Y-109686063D01*
X163661063Y-109830226D01*
X163547795Y-109999744D01*
X163469774Y-110188102D01*
X163430000Y-110388061D01*
X163430000Y-110591939D01*
X163442131Y-110652928D01*
X163107000Y-110652928D01*
X162982518Y-110665188D01*
X162862820Y-110701498D01*
X162752506Y-110760463D01*
X162655815Y-110839815D01*
X162576463Y-110936506D01*
X162517498Y-111046820D01*
X162481188Y-111166518D01*
X162468928Y-111291000D01*
X162468928Y-111381000D01*
X160334802Y-111381000D01*
X159023000Y-110069199D01*
X159023000Y-110007061D01*
X158983226Y-109807102D01*
X158905205Y-109618744D01*
X158791937Y-109449226D01*
X158647774Y-109305063D01*
X158478256Y-109191795D01*
X158289898Y-109113774D01*
X158089939Y-109074000D01*
X157886061Y-109074000D01*
X157686102Y-109113774D01*
X157626261Y-109138561D01*
X157583494Y-109103463D01*
X157473180Y-109044498D01*
X157353482Y-109008188D01*
X157229000Y-108995928D01*
X156977250Y-108999000D01*
X156818500Y-109157750D01*
X156564500Y-109157750D01*
X156488500Y-109081750D01*
X156488500Y-108229061D01*
X161144000Y-108229061D01*
X161144000Y-108432939D01*
X161183774Y-108632898D01*
X161261795Y-108821256D01*
X161375063Y-108990774D01*
X161519226Y-109134937D01*
X161688744Y-109248205D01*
X161877102Y-109326226D01*
X162077061Y-109366000D01*
X162280939Y-109366000D01*
X162480898Y-109326226D01*
X162669256Y-109248205D01*
X162838774Y-109134937D01*
X162882711Y-109091000D01*
X178143678Y-109091000D01*
X178181000Y-109094676D01*
X178218322Y-109091000D01*
X178218333Y-109091000D01*
X178329986Y-109080003D01*
X178473247Y-109036546D01*
X178605276Y-108965974D01*
X178721001Y-108871001D01*
X178744803Y-108841998D01*
X178816000Y-108770801D01*
X183459201Y-113414003D01*
X183482999Y-113443001D01*
X183511997Y-113466799D01*
X183598723Y-113537974D01*
X183725043Y-113605494D01*
X183730753Y-113608546D01*
X183874014Y-113652003D01*
X183985667Y-113663000D01*
X183985677Y-113663000D01*
X184022999Y-113666676D01*
X184060322Y-113663000D01*
X184589289Y-113663000D01*
X184633226Y-113706937D01*
X184802744Y-113820205D01*
X184991102Y-113898226D01*
X185191061Y-113938000D01*
X185394939Y-113938000D01*
X185594898Y-113898226D01*
X185783256Y-113820205D01*
X185952774Y-113706937D01*
X185996711Y-113663000D01*
X186525678Y-113663000D01*
X186563000Y-113666676D01*
X186600322Y-113663000D01*
X186600333Y-113663000D01*
X186711986Y-113652003D01*
X186855247Y-113608546D01*
X186987276Y-113537974D01*
X187103001Y-113443001D01*
X187126804Y-113413997D01*
X191809802Y-108731000D01*
X191871939Y-108731000D01*
X192071898Y-108691226D01*
X192260256Y-108613205D01*
X192429774Y-108499937D01*
X192573937Y-108355774D01*
X192687205Y-108186256D01*
X192765226Y-107997898D01*
X192805000Y-107797939D01*
X192805000Y-107594061D01*
X192765226Y-107394102D01*
X192687205Y-107205744D01*
X192573937Y-107036226D01*
X192429774Y-106892063D01*
X192260256Y-106778795D01*
X192071898Y-106700774D01*
X191871939Y-106661000D01*
X191668061Y-106661000D01*
X191468102Y-106700774D01*
X191279744Y-106778795D01*
X191110226Y-106892063D01*
X190966063Y-107036226D01*
X190852795Y-107205744D01*
X190774774Y-107394102D01*
X190735000Y-107594061D01*
X190735000Y-107656198D01*
X186248199Y-112143000D01*
X185996711Y-112143000D01*
X185952774Y-112099063D01*
X185783256Y-111985795D01*
X185594898Y-111907774D01*
X185394939Y-111868000D01*
X185191061Y-111868000D01*
X184991102Y-111907774D01*
X184802744Y-111985795D01*
X184633226Y-112099063D01*
X184589289Y-112143000D01*
X184337802Y-112143000D01*
X180619802Y-108425000D01*
X183254928Y-108425000D01*
X183267188Y-108549482D01*
X183303498Y-108669180D01*
X183362463Y-108779494D01*
X183441815Y-108876185D01*
X183538506Y-108955537D01*
X183648820Y-109014502D01*
X183768518Y-109050812D01*
X183893000Y-109063072D01*
X184144750Y-109060000D01*
X184303500Y-108901250D01*
X184303500Y-108077000D01*
X183416750Y-108077000D01*
X183258000Y-108235750D01*
X183254928Y-108425000D01*
X180619802Y-108425000D01*
X179851000Y-107656199D01*
X179851000Y-107594061D01*
X179827318Y-107475000D01*
X183254928Y-107475000D01*
X183258000Y-107664250D01*
X183416750Y-107823000D01*
X184303500Y-107823000D01*
X184303500Y-106998750D01*
X184144750Y-106840000D01*
X183893000Y-106836928D01*
X183768518Y-106849188D01*
X183648820Y-106885498D01*
X183538506Y-106944463D01*
X183441815Y-107023815D01*
X183362463Y-107120506D01*
X183303498Y-107230820D01*
X183267188Y-107350518D01*
X183254928Y-107475000D01*
X179827318Y-107475000D01*
X179811226Y-107394102D01*
X179733205Y-107205744D01*
X179619937Y-107036226D01*
X179475774Y-106892063D01*
X179306256Y-106778795D01*
X179117898Y-106700774D01*
X178917939Y-106661000D01*
X178855802Y-106661000D01*
X178306000Y-106111199D01*
X178306000Y-102049711D01*
X178349937Y-102005774D01*
X178463205Y-101836256D01*
X178541226Y-101647898D01*
X178581000Y-101447939D01*
X178581000Y-101244061D01*
X178541226Y-101044102D01*
X178463205Y-100855744D01*
X178349937Y-100686226D01*
X178205774Y-100542063D01*
X178036256Y-100428795D01*
X177847898Y-100350774D01*
X177647939Y-100311000D01*
X177444061Y-100311000D01*
X177244102Y-100350774D01*
X177055744Y-100428795D01*
X176886226Y-100542063D01*
X176742063Y-100686226D01*
X176628795Y-100855744D01*
X176550774Y-101044102D01*
X176511000Y-101244061D01*
X176511000Y-101447939D01*
X176550774Y-101647898D01*
X176628795Y-101836256D01*
X176742063Y-102005774D01*
X176786000Y-102049711D01*
X176786001Y-106388668D01*
X176782324Y-106426000D01*
X176786001Y-106463333D01*
X176796998Y-106574986D01*
X176810180Y-106618442D01*
X176840454Y-106718246D01*
X176911026Y-106850276D01*
X176976043Y-106929498D01*
X177006000Y-106966001D01*
X177034998Y-106989799D01*
X177616199Y-107571000D01*
X162882711Y-107571000D01*
X162838774Y-107527063D01*
X162669256Y-107413795D01*
X162480898Y-107335774D01*
X162280939Y-107296000D01*
X162077061Y-107296000D01*
X161877102Y-107335774D01*
X161688744Y-107413795D01*
X161519226Y-107527063D01*
X161375063Y-107671226D01*
X161261795Y-107840744D01*
X161183774Y-108029102D01*
X161144000Y-108229061D01*
X156488500Y-108229061D01*
X156488500Y-107097010D01*
X160071668Y-107097010D01*
X160108990Y-107100686D01*
X160146312Y-107097010D01*
X160146323Y-107097010D01*
X160257976Y-107086013D01*
X160401237Y-107042556D01*
X160533266Y-106971984D01*
X160648991Y-106877011D01*
X160672793Y-106848008D01*
X160969802Y-106551000D01*
X163761289Y-106551000D01*
X163805226Y-106594937D01*
X163974744Y-106708205D01*
X164163102Y-106786226D01*
X164363061Y-106826000D01*
X164566939Y-106826000D01*
X164766898Y-106786226D01*
X164955256Y-106708205D01*
X165124774Y-106594937D01*
X165168711Y-106551000D01*
X169448178Y-106551000D01*
X169485500Y-106554676D01*
X169522822Y-106551000D01*
X169522833Y-106551000D01*
X169634486Y-106540003D01*
X169777747Y-106496546D01*
X169909776Y-106425974D01*
X170025501Y-106331001D01*
X170049304Y-106301997D01*
X173526169Y-102825134D01*
X173545316Y-102823248D01*
X173709567Y-102773423D01*
X173860942Y-102692512D01*
X173993623Y-102583623D01*
X174102512Y-102450942D01*
X174183423Y-102299567D01*
X174233248Y-102135316D01*
X174250072Y-101964500D01*
X174250072Y-101489500D01*
X174233248Y-101318684D01*
X174183423Y-101154433D01*
X174161358Y-101113151D01*
X174272205Y-100947256D01*
X174350226Y-100758898D01*
X174390000Y-100558939D01*
X174390000Y-100496801D01*
X176438005Y-98448797D01*
X176467002Y-98425000D01*
X176561975Y-98309275D01*
X176632547Y-98177246D01*
X176676004Y-98033985D01*
X176687001Y-97922332D01*
X176687001Y-97922324D01*
X176690677Y-97884999D01*
X176687001Y-97847674D01*
X176687001Y-95126000D01*
X178591928Y-95126000D01*
X178604188Y-95250482D01*
X178640498Y-95370180D01*
X178699463Y-95480494D01*
X178778815Y-95577185D01*
X178875506Y-95656537D01*
X178985820Y-95715502D01*
X179105518Y-95751812D01*
X179230000Y-95764072D01*
X179419250Y-95761000D01*
X179578000Y-95602250D01*
X179578000Y-94715500D01*
X179832000Y-94715500D01*
X179832000Y-95602250D01*
X179990750Y-95761000D01*
X180180000Y-95764072D01*
X180304482Y-95751812D01*
X180424180Y-95715502D01*
X180534494Y-95656537D01*
X180631185Y-95577185D01*
X180710537Y-95480494D01*
X180769502Y-95370180D01*
X180805812Y-95250482D01*
X180818072Y-95126000D01*
X180815000Y-94874250D01*
X180656250Y-94715500D01*
X179832000Y-94715500D01*
X179578000Y-94715500D01*
X178753750Y-94715500D01*
X178595000Y-94874250D01*
X178591928Y-95126000D01*
X176687001Y-95126000D01*
X176687001Y-92700998D01*
X177465946Y-92694082D01*
X177517795Y-92819256D01*
X177631063Y-92988774D01*
X177775226Y-93132937D01*
X177944744Y-93246205D01*
X178133102Y-93324226D01*
X178333061Y-93364000D01*
X178536939Y-93364000D01*
X178613158Y-93348839D01*
X178658577Y-93498567D01*
X178738774Y-93648606D01*
X178699463Y-93696506D01*
X178640498Y-93806820D01*
X178604188Y-93926518D01*
X178591928Y-94051000D01*
X178595000Y-94302750D01*
X178753750Y-94461500D01*
X179578000Y-94461500D01*
X179578000Y-94441500D01*
X179832000Y-94441500D01*
X179832000Y-94461500D01*
X180656250Y-94461500D01*
X180679724Y-94438026D01*
X183611999Y-97370301D01*
X183612000Y-99625667D01*
X183608323Y-99662999D01*
X183612000Y-99700332D01*
X183622997Y-99811985D01*
X183635264Y-99852423D01*
X183666453Y-99955245D01*
X183737025Y-100087275D01*
X183792690Y-100155102D01*
X183831999Y-100203000D01*
X183860997Y-100226798D01*
X184004000Y-100369801D01*
X184004000Y-100431939D01*
X184043774Y-100631898D01*
X184121795Y-100820256D01*
X184235063Y-100989774D01*
X184379226Y-101133937D01*
X184548744Y-101247205D01*
X184737102Y-101325226D01*
X184937061Y-101365000D01*
X184999199Y-101365000D01*
X185676001Y-102041803D01*
X185676000Y-105976289D01*
X185632063Y-106020226D01*
X185518795Y-106189744D01*
X185440774Y-106378102D01*
X185401000Y-106578061D01*
X185401000Y-106781939D01*
X185434348Y-106949590D01*
X185370394Y-106983774D01*
X185322494Y-106944463D01*
X185212180Y-106885498D01*
X185092482Y-106849188D01*
X184968000Y-106836928D01*
X184716250Y-106840000D01*
X184557500Y-106998750D01*
X184557500Y-107823000D01*
X184577500Y-107823000D01*
X184577500Y-108077000D01*
X184557500Y-108077000D01*
X184557500Y-108901250D01*
X184716250Y-109060000D01*
X184968000Y-109063072D01*
X185092482Y-109050812D01*
X185212180Y-109014502D01*
X185322494Y-108955537D01*
X185370394Y-108916226D01*
X185520433Y-108996423D01*
X185684684Y-109046248D01*
X185855500Y-109063072D01*
X186455500Y-109063072D01*
X186626316Y-109046248D01*
X186790567Y-108996423D01*
X186941942Y-108915512D01*
X187074623Y-108806623D01*
X187183512Y-108673942D01*
X187264423Y-108522567D01*
X187314248Y-108358316D01*
X187331072Y-108187500D01*
X187331072Y-107712500D01*
X187314248Y-107541684D01*
X187264423Y-107377433D01*
X187242358Y-107336151D01*
X187353205Y-107170256D01*
X187431226Y-106981898D01*
X187471000Y-106781939D01*
X187471000Y-106578061D01*
X187431226Y-106378102D01*
X187353205Y-106189744D01*
X187239937Y-106020226D01*
X187196000Y-105976289D01*
X187196000Y-101764322D01*
X187199676Y-101726999D01*
X187196000Y-101689676D01*
X187196000Y-101689667D01*
X187185003Y-101578014D01*
X187141546Y-101434753D01*
X187070974Y-101302724D01*
X186976001Y-101186999D01*
X186947003Y-101163201D01*
X186074000Y-100290199D01*
X186074000Y-100228061D01*
X186067936Y-100197573D01*
X186250411Y-100121990D01*
X186493632Y-99959475D01*
X186700475Y-99752632D01*
X186817000Y-99578240D01*
X186933525Y-99752632D01*
X187140368Y-99959475D01*
X187383589Y-100121990D01*
X187653842Y-100233932D01*
X187940740Y-100291000D01*
X188233260Y-100291000D01*
X188520158Y-100233932D01*
X188790411Y-100121990D01*
X189033632Y-99959475D01*
X189240475Y-99752632D01*
X189357000Y-99578240D01*
X189473525Y-99752632D01*
X189680368Y-99959475D01*
X189923589Y-100121990D01*
X190193842Y-100233932D01*
X190480740Y-100291000D01*
X190773260Y-100291000D01*
X191060158Y-100233932D01*
X191330411Y-100121990D01*
X191573632Y-99959475D01*
X191780475Y-99752632D01*
X191942990Y-99509411D01*
X192054932Y-99239158D01*
X192112000Y-98952260D01*
X192112000Y-98659740D01*
X192054932Y-98372842D01*
X191942990Y-98102589D01*
X191780475Y-97859368D01*
X191648620Y-97727513D01*
X191721180Y-97705502D01*
X191831494Y-97646537D01*
X191928185Y-97567185D01*
X192007537Y-97470494D01*
X192066502Y-97360180D01*
X192102812Y-97240482D01*
X192115072Y-97116000D01*
X192115072Y-95416000D01*
X192102812Y-95291518D01*
X192066502Y-95171820D01*
X192007537Y-95061506D01*
X191928185Y-94964815D01*
X191831494Y-94885463D01*
X191721180Y-94826498D01*
X191601482Y-94790188D01*
X191477000Y-94777928D01*
X189777000Y-94777928D01*
X189652518Y-94790188D01*
X189532820Y-94826498D01*
X189422506Y-94885463D01*
X189325815Y-94964815D01*
X189246463Y-95061506D01*
X189187498Y-95171820D01*
X189165487Y-95244380D01*
X189033632Y-95112525D01*
X188790411Y-94950010D01*
X188520158Y-94838068D01*
X188233260Y-94781000D01*
X187940740Y-94781000D01*
X187653842Y-94838068D01*
X187383589Y-94950010D01*
X187140368Y-95112525D01*
X186933525Y-95319368D01*
X186817000Y-95493760D01*
X186700475Y-95319368D01*
X186493632Y-95112525D01*
X186250411Y-94950010D01*
X185980158Y-94838068D01*
X185693260Y-94781000D01*
X185400740Y-94781000D01*
X185113842Y-94838068D01*
X184843589Y-94950010D01*
X184600368Y-95112525D01*
X184393525Y-95319368D01*
X184231010Y-95562589D01*
X184149844Y-95758542D01*
X180803134Y-92411833D01*
X180801248Y-92392684D01*
X180751423Y-92228433D01*
X180670512Y-92077058D01*
X180561623Y-91944377D01*
X180428942Y-91835488D01*
X180277567Y-91754577D01*
X180113316Y-91704752D01*
X179942500Y-91687928D01*
X179583368Y-91687928D01*
X179462747Y-91623454D01*
X179319486Y-91579997D01*
X179207833Y-91569000D01*
X179207822Y-91569000D01*
X179170500Y-91565324D01*
X179138215Y-91568504D01*
X179094774Y-91525063D01*
X178925256Y-91411795D01*
X178736898Y-91333774D01*
X178536939Y-91294000D01*
X178459226Y-91294000D01*
X178456269Y-91292419D01*
X178453622Y-91290286D01*
X178390369Y-91257194D01*
X178327247Y-91223455D01*
X178323986Y-91222466D01*
X178320972Y-91220889D01*
X178252367Y-91200741D01*
X178183986Y-91179999D01*
X178180602Y-91179666D01*
X178177331Y-91178705D01*
X178106065Y-91172324D01*
X178035001Y-91165325D01*
X177994310Y-91169333D01*
X175928963Y-91187669D01*
X175895000Y-91184324D01*
X175857678Y-91188000D01*
X163285645Y-91188000D01*
X163271512Y-91161558D01*
X163162623Y-91028877D01*
X163029942Y-90919988D01*
X162878567Y-90839077D01*
X162714316Y-90789252D01*
X162543500Y-90772428D01*
X162068500Y-90772428D01*
X161897684Y-90789252D01*
X161733433Y-90839077D01*
X161582058Y-90919988D01*
X161449377Y-91028877D01*
X161340488Y-91161558D01*
X161326355Y-91188000D01*
X150786333Y-91188000D01*
X150749000Y-91184323D01*
X150711667Y-91188000D01*
X141769322Y-91188000D01*
X141731999Y-91184324D01*
X141694677Y-91188000D01*
X138086322Y-91188000D01*
X138049000Y-91184324D01*
X138011678Y-91188000D01*
X127037333Y-91188000D01*
X127000000Y-91184323D01*
X126962667Y-91188000D01*
X123026645Y-91188000D01*
X123012512Y-91161558D01*
X122903623Y-91028877D01*
X122770942Y-90919988D01*
X122619567Y-90839077D01*
X122455316Y-90789252D01*
X122284500Y-90772428D01*
X121809500Y-90772428D01*
X121638684Y-90789252D01*
X121474433Y-90839077D01*
X121323058Y-90919988D01*
X121190377Y-91028877D01*
X121081488Y-91161558D01*
X121068620Y-91185632D01*
X114230238Y-91169091D01*
X114191998Y-91165325D01*
X114118722Y-91172542D01*
X114044826Y-91179640D01*
X114043934Y-91179908D01*
X114043012Y-91179999D01*
X113972313Y-91201445D01*
X113901460Y-91222751D01*
X113900641Y-91223186D01*
X113899752Y-91223456D01*
X113834463Y-91258354D01*
X113769261Y-91293003D01*
X113768544Y-91293589D01*
X113767722Y-91294028D01*
X113710357Y-91341106D01*
X113653306Y-91387696D01*
X113628856Y-91417342D01*
X111339199Y-93707000D01*
X111277061Y-93707000D01*
X111077102Y-93746774D01*
X110888744Y-93824795D01*
X110719226Y-93938063D01*
X110575063Y-94082226D01*
X110461795Y-94251744D01*
X110383774Y-94440102D01*
X110344000Y-94640061D01*
X110344000Y-94702198D01*
X108270199Y-96776000D01*
X105510253Y-96776000D01*
X105480546Y-96678068D01*
X105409974Y-96546039D01*
X105315001Y-96430314D01*
X105286003Y-96406516D01*
X104253489Y-95374002D01*
X104229686Y-95344999D01*
X104113961Y-95250026D01*
X103981932Y-95179454D01*
X103838671Y-95135997D01*
X103727018Y-95125000D01*
X103727007Y-95125000D01*
X103689685Y-95121324D01*
X103652363Y-95125000D01*
X100367322Y-95125000D01*
X100329999Y-95121324D01*
X100292676Y-95125000D01*
X100292667Y-95125000D01*
X100181014Y-95135997D01*
X100037753Y-95179454D01*
X99905724Y-95250026D01*
X99789999Y-95344999D01*
X99766196Y-95374003D01*
X99438003Y-95702196D01*
X99408999Y-95725999D01*
X99367144Y-95777000D01*
X99314026Y-95841724D01*
X99247593Y-95966010D01*
X99243454Y-95973754D01*
X99199997Y-96117015D01*
X99189000Y-96228668D01*
X99189000Y-96228678D01*
X99185324Y-96266000D01*
X99189000Y-96303322D01*
X99189001Y-103563288D01*
X99145063Y-103607226D01*
X99031795Y-103776744D01*
X98953774Y-103965102D01*
X98914000Y-104165061D01*
X95046000Y-104165061D01*
X95046000Y-88061000D01*
X198578000Y-88061000D01*
X198578001Y-119330000D01*
G37*
X198578001Y-119330000D02*
X95046000Y-119330000D01*
X95046000Y-115804740D01*
X97575000Y-115804740D01*
X97575000Y-116097260D01*
X97632068Y-116384158D01*
X97744010Y-116654411D01*
X97906525Y-116897632D01*
X98113368Y-117104475D01*
X98356589Y-117266990D01*
X98626842Y-117378932D01*
X98913740Y-117436000D01*
X99206260Y-117436000D01*
X99493158Y-117378932D01*
X99763411Y-117266990D01*
X100006632Y-117104475D01*
X100213475Y-116897632D01*
X100330000Y-116723240D01*
X100446525Y-116897632D01*
X100653368Y-117104475D01*
X100896589Y-117266990D01*
X101166842Y-117378932D01*
X101453740Y-117436000D01*
X101746260Y-117436000D01*
X102033158Y-117378932D01*
X102303411Y-117266990D01*
X102546632Y-117104475D01*
X102753475Y-116897632D01*
X102870000Y-116723240D01*
X102986525Y-116897632D01*
X103193368Y-117104475D01*
X103436589Y-117266990D01*
X103706842Y-117378932D01*
X103993740Y-117436000D01*
X104286260Y-117436000D01*
X104573158Y-117378932D01*
X104843411Y-117266990D01*
X105086632Y-117104475D01*
X105293475Y-116897632D01*
X105410000Y-116723240D01*
X105526525Y-116897632D01*
X105733368Y-117104475D01*
X105976589Y-117266990D01*
X106246842Y-117378932D01*
X106533740Y-117436000D01*
X106826260Y-117436000D01*
X107113158Y-117378932D01*
X107383411Y-117266990D01*
X107626632Y-117104475D01*
X107833475Y-116897632D01*
X107950000Y-116723240D01*
X108066525Y-116897632D01*
X108273368Y-117104475D01*
X108516589Y-117266990D01*
X108786842Y-117378932D01*
X109073740Y-117436000D01*
X109366260Y-117436000D01*
X109653158Y-117378932D01*
X109923411Y-117266990D01*
X110166632Y-117104475D01*
X110298487Y-116972620D01*
X110320498Y-117045180D01*
X110379463Y-117155494D01*
X110458815Y-117252185D01*
X110555506Y-117331537D01*
X110665820Y-117390502D01*
X110785518Y-117426812D01*
X110910000Y-117439072D01*
X112610000Y-117439072D01*
X112734482Y-117426812D01*
X112854180Y-117390502D01*
X112964494Y-117331537D01*
X113061185Y-117252185D01*
X113140537Y-117155494D01*
X113199502Y-117045180D01*
X113235812Y-116925482D01*
X113248072Y-116801000D01*
X113248072Y-115101000D01*
X113235812Y-114976518D01*
X113199502Y-114856820D01*
X113140537Y-114746506D01*
X113061185Y-114649815D01*
X112964494Y-114570463D01*
X112854180Y-114511498D01*
X112734482Y-114475188D01*
X112610000Y-114462928D01*
X110910000Y-114462928D01*
X110785518Y-114475188D01*
X110665820Y-114511498D01*
X110555506Y-114570463D01*
X110458815Y-114649815D01*
X110379463Y-114746506D01*
X110320498Y-114856820D01*
X110298487Y-114929380D01*
X110166632Y-114797525D01*
X109923411Y-114635010D01*
X109653158Y-114523068D01*
X109366260Y-114466000D01*
X109073740Y-114466000D01*
X108786842Y-114523068D01*
X108516589Y-114635010D01*
X108273368Y-114797525D01*
X108066525Y-115004368D01*
X107950000Y-115178760D01*
X107833475Y-115004368D01*
X107626632Y-114797525D01*
X107383411Y-114635010D01*
X107113158Y-114523068D01*
X106826260Y-114466000D01*
X106533740Y-114466000D01*
X106246842Y-114523068D01*
X105976589Y-114635010D01*
X105733368Y-114797525D01*
X105526525Y-115004368D01*
X105410000Y-115178760D01*
X105293475Y-115004368D01*
X105086632Y-114797525D01*
X104843411Y-114635010D01*
X104573158Y-114523068D01*
X104286260Y-114466000D01*
X103993740Y-114466000D01*
X103706842Y-114523068D01*
X103436589Y-114635010D01*
X103193368Y-114797525D01*
X102986525Y-115004368D01*
X102870000Y-115178760D01*
X102753475Y-115004368D01*
X102546632Y-114797525D01*
X102303411Y-114635010D01*
X102033158Y-114523068D01*
X101746260Y-114466000D01*
X101453740Y-114466000D01*
X101166842Y-114523068D01*
X100896589Y-114635010D01*
X100653368Y-114797525D01*
X100446525Y-115004368D01*
X100330000Y-115178760D01*
X100213475Y-115004368D01*
X100006632Y-114797525D01*
X99763411Y-114635010D01*
X99493158Y-114523068D01*
X99206260Y-114466000D01*
X98913740Y-114466000D01*
X98626842Y-114523068D01*
X98356589Y-114635010D01*
X98113368Y-114797525D01*
X97906525Y-115004368D01*
X97744010Y-115247589D01*
X97632068Y-115517842D01*
X97575000Y-115804740D01*
X95046000Y-115804740D01*
X95046000Y-113251000D01*
X115563928Y-113251000D01*
X115576188Y-113375482D01*
X115612498Y-113495180D01*
X115671463Y-113605494D01*
X115750815Y-113702185D01*
X115847506Y-113781537D01*
X115957820Y-113840502D01*
X116077518Y-113876812D01*
X116202000Y-113889072D01*
X116453750Y-113886000D01*
X116612500Y-113727250D01*
X116612500Y-112903000D01*
X115725750Y-112903000D01*
X115567000Y-113061750D01*
X115563928Y-113251000D01*
X95046000Y-113251000D01*
X95046000Y-112301000D01*
X115563928Y-112301000D01*
X115567000Y-112490250D01*
X115725750Y-112649000D01*
X116612500Y-112649000D01*
X116612500Y-111824750D01*
X116453750Y-111666000D01*
X116202000Y-111662928D01*
X116077518Y-111675188D01*
X115957820Y-111711498D01*
X115847506Y-111770463D01*
X115750815Y-111849815D01*
X115671463Y-111946506D01*
X115612498Y-112056820D01*
X115576188Y-112176518D01*
X115563928Y-112301000D01*
X95046000Y-112301000D01*
X95046000Y-107536000D01*
X99180928Y-107536000D01*
X99193188Y-107660482D01*
X99229498Y-107780180D01*
X99288463Y-107890494D01*
X99367815Y-107987185D01*
X99464506Y-108066537D01*
X99574820Y-108125502D01*
X99694518Y-108161812D01*
X99819000Y-108174072D01*
X100070750Y-108171000D01*
X100229500Y-108012250D01*
X100229500Y-107188000D01*
X99342750Y-107188000D01*
X99184000Y-107346750D01*
X99180928Y-107536000D01*
X95046000Y-107536000D01*
X95046000Y-106586000D01*
X99180928Y-106586000D01*
X99184000Y-106775250D01*
X99342750Y-106934000D01*
X100229500Y-106934000D01*
X100229500Y-106109750D01*
X100070750Y-105951000D01*
X99819000Y-105947928D01*
X99694518Y-105960188D01*
X99574820Y-105996498D01*
X99464506Y-106055463D01*
X99367815Y-106134815D01*
X99288463Y-106231506D01*
X99229498Y-106341820D01*
X99193188Y-106461518D01*
X99180928Y-106586000D01*
X95046000Y-106586000D01*
X95046000Y-104165061D01*
X98914000Y-104165061D01*
X98914000Y-104368939D01*
X98953774Y-104568898D01*
X99031795Y-104757256D01*
X99145063Y-104926774D01*
X99289226Y-105070937D01*
X99458744Y-105184205D01*
X99647102Y-105262226D01*
X99847061Y-105302000D01*
X99909199Y-105302000D01*
X100600224Y-105993026D01*
X100483500Y-106109750D01*
X100483500Y-106934000D01*
X100503500Y-106934000D01*
X100503500Y-107188000D01*
X100483500Y-107188000D01*
X100483500Y-108012250D01*
X100642250Y-108171000D01*
X100894000Y-108174072D01*
X101018482Y-108161812D01*
X101138180Y-108125502D01*
X101248494Y-108066537D01*
X101296394Y-108027226D01*
X101446433Y-108107423D01*
X101610684Y-108157248D01*
X101781500Y-108174072D01*
X102381500Y-108174072D01*
X102552316Y-108157248D01*
X102716567Y-108107423D01*
X102867942Y-108026512D01*
X102913702Y-107988957D01*
X103076102Y-108056226D01*
X103276061Y-108096000D01*
X103479939Y-108096000D01*
X103679898Y-108056226D01*
X103868256Y-107978205D01*
X104037774Y-107864937D01*
X104181937Y-107720774D01*
X104295205Y-107551256D01*
X104373226Y-107362898D01*
X104413000Y-107162939D01*
X104413000Y-106959061D01*
X104373226Y-106759102D01*
X104295205Y-106570744D01*
X104181937Y-106401226D01*
X104037774Y-106257063D01*
X103868256Y-106143795D01*
X103679898Y-106065774D01*
X103479939Y-106026000D01*
X103276061Y-106026000D01*
X103076102Y-106065774D01*
X102913702Y-106133043D01*
X102867942Y-106095488D01*
X102745885Y-106030248D01*
X102716474Y-105975224D01*
X102680178Y-105930997D01*
X102645299Y-105888496D01*
X102645295Y-105888492D01*
X102621501Y-105859499D01*
X102592508Y-105835705D01*
X100984000Y-104227199D01*
X100984000Y-104165061D01*
X100944226Y-103965102D01*
X100866205Y-103776744D01*
X100752937Y-103607226D01*
X100709000Y-103563289D01*
X100709000Y-102359000D01*
X110011928Y-102359000D01*
X110015000Y-102610750D01*
X110173750Y-102769500D01*
X110998000Y-102769500D01*
X110998000Y-101882750D01*
X111252000Y-101882750D01*
X111252000Y-102769500D01*
X112076250Y-102769500D01*
X112235000Y-102610750D01*
X112238072Y-102359000D01*
X112225812Y-102234518D01*
X112189502Y-102114820D01*
X112130537Y-102004506D01*
X112051185Y-101907815D01*
X111954494Y-101828463D01*
X111844180Y-101769498D01*
X111724482Y-101733188D01*
X111600000Y-101720928D01*
X111410750Y-101724000D01*
X111252000Y-101882750D01*
X110998000Y-101882750D01*
X110839250Y-101724000D01*
X110650000Y-101720928D01*
X110525518Y-101733188D01*
X110405820Y-101769498D01*
X110295506Y-101828463D01*
X110198815Y-101907815D01*
X110119463Y-102004506D01*
X110060498Y-102114820D01*
X110024188Y-102234518D01*
X110011928Y-102359000D01*
X100709000Y-102359000D01*
X100709000Y-99281000D01*
X101466928Y-99281000D01*
X101479188Y-99405482D01*
X101515498Y-99525180D01*
X101574463Y-99635494D01*
X101653815Y-99732185D01*
X101750506Y-99811537D01*
X101860820Y-99870502D01*
X101980518Y-99906812D01*
X102105000Y-99919072D01*
X102356750Y-99916000D01*
X102515500Y-99757250D01*
X102515500Y-98933000D01*
X101628750Y-98933000D01*
X101470000Y-99091750D01*
X101466928Y-99281000D01*
X100709000Y-99281000D01*
X100709000Y-98331000D01*
X101466928Y-98331000D01*
X101470000Y-98520250D01*
X101628750Y-98679000D01*
X102515500Y-98679000D01*
X102515500Y-97854750D01*
X102356750Y-97696000D01*
X102105000Y-97692928D01*
X101980518Y-97705188D01*
X101860820Y-97741498D01*
X101750506Y-97800463D01*
X101653815Y-97879815D01*
X101574463Y-97976506D01*
X101515498Y-98086820D01*
X101479188Y-98206518D01*
X101466928Y-98331000D01*
X100709000Y-98331000D01*
X100709000Y-96645000D01*
X103374884Y-96645000D01*
X103833729Y-97103845D01*
X103779774Y-97234102D01*
X103740000Y-97434061D01*
X103740000Y-97510117D01*
X103732526Y-97519224D01*
X103661954Y-97651254D01*
X103631698Y-97751000D01*
X103618498Y-97794514D01*
X103615799Y-97821919D01*
X103582394Y-97839774D01*
X103534494Y-97800463D01*
X103424180Y-97741498D01*
X103304482Y-97705188D01*
X103180000Y-97692928D01*
X102928250Y-97696000D01*
X102769500Y-97854750D01*
X102769500Y-98679000D01*
X102789500Y-98679000D01*
X102789500Y-98933000D01*
X102769500Y-98933000D01*
X102769500Y-99757250D01*
X102928250Y-99916000D01*
X103180000Y-99919072D01*
X103304482Y-99906812D01*
X103424180Y-99870502D01*
X103534494Y-99811537D01*
X103582394Y-99772226D01*
X103732433Y-99852423D01*
X103896684Y-99902248D01*
X104067500Y-99919072D01*
X104667500Y-99919072D01*
X104838316Y-99902248D01*
X105002567Y-99852423D01*
X105153942Y-99771512D01*
X105286623Y-99662623D01*
X105395512Y-99529942D01*
X105476423Y-99378567D01*
X105526248Y-99214316D01*
X105543072Y-99043500D01*
X105543072Y-98568500D01*
X105526248Y-98397684D01*
X105495402Y-98296000D01*
X108547678Y-98296000D01*
X108585000Y-98299676D01*
X108622322Y-98296000D01*
X108622333Y-98296000D01*
X108733986Y-98285003D01*
X108877247Y-98241546D01*
X109009276Y-98170974D01*
X109125001Y-98076001D01*
X109148804Y-98046997D01*
X111379000Y-95816802D01*
X112270000Y-96707802D01*
X112270001Y-103690288D01*
X112226063Y-103734226D01*
X112141021Y-103861500D01*
X112104645Y-103861500D01*
X112091226Y-103836394D01*
X112130537Y-103788494D01*
X112189502Y-103678180D01*
X112225812Y-103558482D01*
X112238072Y-103434000D01*
X112235000Y-103182250D01*
X112076250Y-103023500D01*
X111252000Y-103023500D01*
X111252000Y-103043500D01*
X110998000Y-103043500D01*
X110998000Y-103023500D01*
X110173750Y-103023500D01*
X110015000Y-103182250D01*
X110011928Y-103434000D01*
X110024188Y-103558482D01*
X110060498Y-103678180D01*
X110119463Y-103788494D01*
X110158774Y-103836394D01*
X110078577Y-103986433D01*
X110028752Y-104150684D01*
X110011928Y-104321500D01*
X110011928Y-104921500D01*
X110028752Y-105092316D01*
X110078577Y-105256567D01*
X110159488Y-105407942D01*
X110268377Y-105540623D01*
X110401058Y-105649512D01*
X110552433Y-105730423D01*
X110716684Y-105780248D01*
X110887500Y-105797072D01*
X111362500Y-105797072D01*
X111533316Y-105780248D01*
X111697567Y-105730423D01*
X111848942Y-105649512D01*
X111981623Y-105540623D01*
X112090512Y-105407942D01*
X112104645Y-105381500D01*
X112709450Y-105381500D01*
X112728102Y-105389226D01*
X112928061Y-105429000D01*
X113131939Y-105429000D01*
X113331898Y-105389226D01*
X113520256Y-105311205D01*
X113689774Y-105197937D01*
X113833937Y-105053774D01*
X113921001Y-104923474D01*
X113921001Y-108270197D01*
X112228199Y-109963000D01*
X112166061Y-109963000D01*
X111966102Y-110002774D01*
X111777744Y-110080795D01*
X111608226Y-110194063D01*
X111464063Y-110338226D01*
X111350795Y-110507744D01*
X111272774Y-110696102D01*
X111233000Y-110896061D01*
X111233000Y-111099939D01*
X111272774Y-111299898D01*
X111350795Y-111488256D01*
X111464063Y-111657774D01*
X111608226Y-111801937D01*
X111777744Y-111915205D01*
X111966102Y-111993226D01*
X112166061Y-112033000D01*
X112369939Y-112033000D01*
X112569898Y-111993226D01*
X112758256Y-111915205D01*
X112927774Y-111801937D01*
X113071937Y-111657774D01*
X113185205Y-111488256D01*
X113263226Y-111299898D01*
X113303000Y-111099939D01*
X113303000Y-111037801D01*
X114954451Y-109386351D01*
X115051525Y-109531632D01*
X115258368Y-109738475D01*
X115501589Y-109900990D01*
X115771842Y-110012932D01*
X116058740Y-110070000D01*
X116351260Y-110070000D01*
X116638158Y-110012932D01*
X116908411Y-109900990D01*
X117151632Y-109738475D01*
X117283487Y-109606620D01*
X117305498Y-109679180D01*
X117364463Y-109789494D01*
X117443815Y-109886185D01*
X117540506Y-109965537D01*
X117650820Y-110024502D01*
X117770518Y-110060812D01*
X117895000Y-110073072D01*
X119595000Y-110073072D01*
X119719482Y-110060812D01*
X119839180Y-110024502D01*
X119949494Y-109965537D01*
X120046185Y-109886185D01*
X120125537Y-109789494D01*
X120184502Y-109679180D01*
X120220812Y-109559482D01*
X120233072Y-109435000D01*
X120233072Y-107735000D01*
X120220812Y-107610518D01*
X120184502Y-107490820D01*
X120125537Y-107380506D01*
X120046185Y-107283815D01*
X119949494Y-107204463D01*
X119839180Y-107145498D01*
X119766620Y-107123487D01*
X119898475Y-106991632D01*
X120060990Y-106748411D01*
X120172932Y-106478158D01*
X120230000Y-106191260D01*
X120230000Y-105898740D01*
X120172932Y-105611842D01*
X120060990Y-105341589D01*
X119898475Y-105098368D01*
X119691632Y-104891525D01*
X119448411Y-104729010D01*
X119178158Y-104617068D01*
X118891260Y-104560000D01*
X118598740Y-104560000D01*
X118311842Y-104617068D01*
X118041589Y-104729010D01*
X117798368Y-104891525D01*
X117591525Y-105098368D01*
X117475000Y-105272760D01*
X117358475Y-105098368D01*
X117151632Y-104891525D01*
X116908411Y-104729010D01*
X116638158Y-104617068D01*
X116351260Y-104560000D01*
X116058740Y-104560000D01*
X115771842Y-104617068D01*
X115501589Y-104729010D01*
X115441000Y-104769494D01*
X115441000Y-103637506D01*
X115501589Y-103677990D01*
X115771842Y-103789932D01*
X116058740Y-103847000D01*
X116351260Y-103847000D01*
X116638158Y-103789932D01*
X116908411Y-103677990D01*
X117151632Y-103515475D01*
X117358475Y-103308632D01*
X117475000Y-103134240D01*
X117591525Y-103308632D01*
X117798368Y-103515475D01*
X118041589Y-103677990D01*
X118311842Y-103789932D01*
X118598740Y-103847000D01*
X118891260Y-103847000D01*
X119178158Y-103789932D01*
X119448411Y-103677990D01*
X119691632Y-103515475D01*
X119898475Y-103308632D01*
X120060990Y-103065411D01*
X120172932Y-102795158D01*
X120230000Y-102508260D01*
X120230000Y-102215740D01*
X120172932Y-101928842D01*
X120060990Y-101658589D01*
X119898475Y-101415368D01*
X119691632Y-101208525D01*
X119517240Y-101092000D01*
X119691632Y-100975475D01*
X119898475Y-100768632D01*
X120060990Y-100525411D01*
X120172932Y-100255158D01*
X120230000Y-99968260D01*
X120230000Y-99675740D01*
X120172932Y-99388842D01*
X120060990Y-99118589D01*
X119898475Y-98875368D01*
X119691632Y-98668525D01*
X119517240Y-98552000D01*
X119691632Y-98435475D01*
X119898475Y-98228632D01*
X120060990Y-97985411D01*
X120172932Y-97715158D01*
X120230000Y-97428260D01*
X120230000Y-97135740D01*
X120172932Y-96848842D01*
X120060990Y-96578589D01*
X119898475Y-96335368D01*
X119691632Y-96128525D01*
X119517240Y-96012000D01*
X119691632Y-95895475D01*
X119898475Y-95688632D01*
X120060990Y-95445411D01*
X120172932Y-95175158D01*
X120230000Y-94888260D01*
X120230000Y-94595740D01*
X120172932Y-94308842D01*
X120132198Y-94210500D01*
X120933928Y-94210500D01*
X120946188Y-94334982D01*
X120982498Y-94454680D01*
X121041463Y-94564994D01*
X121120815Y-94661685D01*
X121217506Y-94741037D01*
X121327820Y-94800002D01*
X121447518Y-94836312D01*
X121572000Y-94848572D01*
X121761250Y-94845500D01*
X121920000Y-94686750D01*
X121920000Y-93800000D01*
X122174000Y-93800000D01*
X122174000Y-94686750D01*
X122332750Y-94845500D01*
X122522000Y-94848572D01*
X122646482Y-94836312D01*
X122766180Y-94800002D01*
X122876494Y-94741037D01*
X122973185Y-94661685D01*
X123052537Y-94564994D01*
X123111502Y-94454680D01*
X123147812Y-94334982D01*
X123160072Y-94210500D01*
X123157000Y-93958750D01*
X122998250Y-93800000D01*
X122174000Y-93800000D01*
X121920000Y-93800000D01*
X121095750Y-93800000D01*
X120937000Y-93958750D01*
X120933928Y-94210500D01*
X120132198Y-94210500D01*
X120060990Y-94038589D01*
X119898475Y-93795368D01*
X119691632Y-93588525D01*
X119448411Y-93426010D01*
X119178158Y-93314068D01*
X118891260Y-93257000D01*
X118598740Y-93257000D01*
X118311842Y-93314068D01*
X118041589Y-93426010D01*
X117798368Y-93588525D01*
X117666513Y-93720380D01*
X117644502Y-93647820D01*
X117585537Y-93537506D01*
X117506185Y-93440815D01*
X117409494Y-93361463D01*
X117299180Y-93302498D01*
X117179482Y-93266188D01*
X117055000Y-93253928D01*
X115355000Y-93253928D01*
X115230518Y-93266188D01*
X115110820Y-93302498D01*
X115000506Y-93361463D01*
X114903815Y-93440815D01*
X114824463Y-93537506D01*
X114765498Y-93647820D01*
X114729188Y-93767518D01*
X114716928Y-93892000D01*
X114716928Y-95592000D01*
X114729188Y-95716482D01*
X114765498Y-95836180D01*
X114824463Y-95946494D01*
X114903815Y-96043185D01*
X115000506Y-96122537D01*
X115110820Y-96181502D01*
X115183380Y-96203513D01*
X115051525Y-96335368D01*
X114889010Y-96578589D01*
X114777068Y-96848842D01*
X114720000Y-97135740D01*
X114720000Y-97428260D01*
X114777068Y-97715158D01*
X114801748Y-97774741D01*
X114782939Y-97771000D01*
X114579061Y-97771000D01*
X114379102Y-97810774D01*
X114190744Y-97888795D01*
X114021226Y-98002063D01*
X113877063Y-98146226D01*
X113790000Y-98276525D01*
X113790000Y-96430333D01*
X113793677Y-96393000D01*
X113779003Y-96244014D01*
X113735546Y-96100753D01*
X113664974Y-95968724D01*
X113596264Y-95885001D01*
X113570001Y-95852999D01*
X113541004Y-95829202D01*
X112453801Y-94742000D01*
X114506040Y-92689762D01*
X121066088Y-92705630D01*
X121080774Y-92733106D01*
X121041463Y-92781006D01*
X120982498Y-92891320D01*
X120946188Y-93011018D01*
X120933928Y-93135500D01*
X120937000Y-93387250D01*
X121095750Y-93546000D01*
X121920000Y-93546000D01*
X121920000Y-93526000D01*
X122174000Y-93526000D01*
X122174000Y-93546000D01*
X122998250Y-93546000D01*
X123157000Y-93387250D01*
X123160072Y-93135500D01*
X123147812Y-93011018D01*
X123111502Y-92891320D01*
X123052537Y-92781006D01*
X123013226Y-92733106D01*
X123026645Y-92708000D01*
X126240001Y-92708000D01*
X126240000Y-96070289D01*
X126196063Y-96114226D01*
X126082795Y-96283744D01*
X126004774Y-96472102D01*
X125965000Y-96672061D01*
X125965000Y-96875939D01*
X126004774Y-97075898D01*
X126082795Y-97264256D01*
X126196063Y-97433774D01*
X126240000Y-97477711D01*
X126240001Y-104071288D01*
X126196063Y-104115226D01*
X126082795Y-104284744D01*
X126004774Y-104473102D01*
X125965000Y-104673061D01*
X125965000Y-104876939D01*
X126004774Y-105076898D01*
X126082795Y-105265256D01*
X126179385Y-105409813D01*
X119721199Y-111868000D01*
X119659061Y-111868000D01*
X119459102Y-111907774D01*
X119395665Y-111934051D01*
X119383623Y-111919377D01*
X119250942Y-111810488D01*
X119099567Y-111729577D01*
X118935316Y-111679752D01*
X118764500Y-111662928D01*
X118164500Y-111662928D01*
X117993684Y-111679752D01*
X117829433Y-111729577D01*
X117679394Y-111809774D01*
X117631494Y-111770463D01*
X117521180Y-111711498D01*
X117401482Y-111675188D01*
X117277000Y-111662928D01*
X117025250Y-111666000D01*
X116866500Y-111824750D01*
X116866500Y-112649000D01*
X116886500Y-112649000D01*
X116886500Y-112903000D01*
X116866500Y-112903000D01*
X116866500Y-113727250D01*
X117025250Y-113886000D01*
X117277000Y-113889072D01*
X117401482Y-113876812D01*
X117521180Y-113840502D01*
X117631494Y-113781537D01*
X117679394Y-113742226D01*
X117829433Y-113822423D01*
X117993684Y-113872248D01*
X118164500Y-113889072D01*
X118764500Y-113889072D01*
X118935316Y-113872248D01*
X119099567Y-113822423D01*
X119196512Y-113770605D01*
X119270744Y-113820205D01*
X119459102Y-113898226D01*
X119659061Y-113938000D01*
X119862939Y-113938000D01*
X120062898Y-113898226D01*
X120251256Y-113820205D01*
X120420774Y-113706937D01*
X120564937Y-113562774D01*
X120678205Y-113393256D01*
X120756226Y-113204898D01*
X120796000Y-113004939D01*
X120796000Y-112942801D01*
X123844801Y-109894000D01*
X133893928Y-109894000D01*
X133893928Y-111594000D01*
X133906188Y-111718482D01*
X133942498Y-111838180D01*
X134001463Y-111948494D01*
X134080815Y-112045185D01*
X134177506Y-112124537D01*
X134287820Y-112183502D01*
X134407518Y-112219812D01*
X134532000Y-112232072D01*
X136232000Y-112232072D01*
X136356482Y-112219812D01*
X136476180Y-112183502D01*
X136586494Y-112124537D01*
X136683185Y-112045185D01*
X136762537Y-111948494D01*
X136821502Y-111838180D01*
X136857812Y-111718482D01*
X136870072Y-111594000D01*
X136870072Y-109894000D01*
X136857812Y-109769518D01*
X136821502Y-109649820D01*
X136762537Y-109539506D01*
X136683185Y-109442815D01*
X136586494Y-109363463D01*
X136476180Y-109304498D01*
X136403620Y-109282487D01*
X136535475Y-109150632D01*
X136697990Y-108907411D01*
X136809932Y-108637158D01*
X136867000Y-108350260D01*
X136867000Y-108057740D01*
X136809932Y-107770842D01*
X136697990Y-107500589D01*
X136535475Y-107257368D01*
X136328632Y-107050525D01*
X136085411Y-106888010D01*
X135815158Y-106776068D01*
X135528260Y-106719000D01*
X135235740Y-106719000D01*
X134948842Y-106776068D01*
X134678589Y-106888010D01*
X134435368Y-107050525D01*
X134228525Y-107257368D01*
X134066010Y-107500589D01*
X133954068Y-107770842D01*
X133897000Y-108057740D01*
X133897000Y-108350260D01*
X133954068Y-108637158D01*
X134066010Y-108907411D01*
X134228525Y-109150632D01*
X134360380Y-109282487D01*
X134287820Y-109304498D01*
X134177506Y-109363463D01*
X134080815Y-109442815D01*
X134001463Y-109539506D01*
X133942498Y-109649820D01*
X133906188Y-109769518D01*
X133893928Y-109894000D01*
X123844801Y-109894000D01*
X127511003Y-106227799D01*
X127540001Y-106204001D01*
X127566332Y-106171917D01*
X127634974Y-106088277D01*
X127705546Y-105956247D01*
X127713205Y-105930997D01*
X127749003Y-105812986D01*
X127760000Y-105701333D01*
X127760000Y-105701323D01*
X127763676Y-105664000D01*
X127760000Y-105626677D01*
X127760000Y-105478711D01*
X127803937Y-105434774D01*
X127917205Y-105265256D01*
X127995226Y-105076898D01*
X128035000Y-104876939D01*
X128035000Y-104673061D01*
X127995226Y-104473102D01*
X127917205Y-104284744D01*
X127803937Y-104115226D01*
X127760000Y-104071289D01*
X127760000Y-97477711D01*
X127803937Y-97433774D01*
X127917205Y-97264256D01*
X127995226Y-97075898D01*
X128035000Y-96875939D01*
X128035000Y-96672061D01*
X127995226Y-96472102D01*
X127917205Y-96283744D01*
X127803937Y-96114226D01*
X127760000Y-96070289D01*
X127760000Y-92708000D01*
X137734199Y-92708000D01*
X138159002Y-93132804D01*
X138159001Y-112592679D01*
X138155325Y-112630001D01*
X138159001Y-112667323D01*
X138159001Y-112667333D01*
X138169998Y-112778986D01*
X138200948Y-112881015D01*
X138213455Y-112922247D01*
X138284000Y-113054226D01*
X138284000Y-113131939D01*
X138323774Y-113331898D01*
X138401795Y-113520256D01*
X138515063Y-113689774D01*
X138659226Y-113833937D01*
X138828744Y-113947205D01*
X139017102Y-114025226D01*
X139217061Y-114065000D01*
X139279199Y-114065000D01*
X139914649Y-114700451D01*
X139769368Y-114797525D01*
X139562525Y-115004368D01*
X139446000Y-115178760D01*
X139329475Y-115004368D01*
X139122632Y-114797525D01*
X138879411Y-114635010D01*
X138609158Y-114523068D01*
X138322260Y-114466000D01*
X138029740Y-114466000D01*
X137742842Y-114523068D01*
X137472589Y-114635010D01*
X137229368Y-114797525D01*
X137022525Y-115004368D01*
X136906000Y-115178760D01*
X136789475Y-115004368D01*
X136582632Y-114797525D01*
X136339411Y-114635010D01*
X136069158Y-114523068D01*
X135782260Y-114466000D01*
X135489740Y-114466000D01*
X135202842Y-114523068D01*
X134932589Y-114635010D01*
X134689368Y-114797525D01*
X134482525Y-115004368D01*
X134366000Y-115178760D01*
X134249475Y-115004368D01*
X134042632Y-114797525D01*
X133799411Y-114635010D01*
X133529158Y-114523068D01*
X133242260Y-114466000D01*
X132949740Y-114466000D01*
X132662842Y-114523068D01*
X132392589Y-114635010D01*
X132149368Y-114797525D01*
X131942525Y-115004368D01*
X131826000Y-115178760D01*
X131709475Y-115004368D01*
X131502632Y-114797525D01*
X131259411Y-114635010D01*
X130989158Y-114523068D01*
X130702260Y-114466000D01*
X130409740Y-114466000D01*
X130122842Y-114523068D01*
X129852589Y-114635010D01*
X129609368Y-114797525D01*
X129402525Y-115004368D01*
X129240010Y-115247589D01*
X129128068Y-115517842D01*
X129071000Y-115804740D01*
X129071000Y-116097260D01*
X129128068Y-116384158D01*
X129240010Y-116654411D01*
X129402525Y-116897632D01*
X129609368Y-117104475D01*
X129852589Y-117266990D01*
X130122842Y-117378932D01*
X130409740Y-117436000D01*
X130702260Y-117436000D01*
X130989158Y-117378932D01*
X131259411Y-117266990D01*
X131502632Y-117104475D01*
X131709475Y-116897632D01*
X131826000Y-116723240D01*
X131942525Y-116897632D01*
X132149368Y-117104475D01*
X132392589Y-117266990D01*
X132662842Y-117378932D01*
X132949740Y-117436000D01*
X133242260Y-117436000D01*
X133529158Y-117378932D01*
X133799411Y-117266990D01*
X134042632Y-117104475D01*
X134249475Y-116897632D01*
X134366000Y-116723240D01*
X134482525Y-116897632D01*
X134689368Y-117104475D01*
X134932589Y-117266990D01*
X135202842Y-117378932D01*
X135489740Y-117436000D01*
X135782260Y-117436000D01*
X136069158Y-117378932D01*
X136339411Y-117266990D01*
X136582632Y-117104475D01*
X136789475Y-116897632D01*
X136906000Y-116723240D01*
X137022525Y-116897632D01*
X137229368Y-117104475D01*
X137472589Y-117266990D01*
X137742842Y-117378932D01*
X138029740Y-117436000D01*
X138322260Y-117436000D01*
X138609158Y-117378932D01*
X138879411Y-117266990D01*
X139122632Y-117104475D01*
X139329475Y-116897632D01*
X139446000Y-116723240D01*
X139562525Y-116897632D01*
X139769368Y-117104475D01*
X140012589Y-117266990D01*
X140282842Y-117378932D01*
X140569740Y-117436000D01*
X140862260Y-117436000D01*
X141149158Y-117378932D01*
X141419411Y-117266990D01*
X141662632Y-117104475D01*
X141869475Y-116897632D01*
X141986000Y-116723240D01*
X142102525Y-116897632D01*
X142309368Y-117104475D01*
X142552589Y-117266990D01*
X142822842Y-117378932D01*
X143109740Y-117436000D01*
X143402260Y-117436000D01*
X143689158Y-117378932D01*
X143959411Y-117266990D01*
X144202632Y-117104475D01*
X144409475Y-116897632D01*
X144526000Y-116723240D01*
X144642525Y-116897632D01*
X144849368Y-117104475D01*
X145092589Y-117266990D01*
X145362842Y-117378932D01*
X145649740Y-117436000D01*
X145942260Y-117436000D01*
X146229158Y-117378932D01*
X146499411Y-117266990D01*
X146742632Y-117104475D01*
X146874487Y-116972620D01*
X146896498Y-117045180D01*
X146955463Y-117155494D01*
X147034815Y-117252185D01*
X147131506Y-117331537D01*
X147241820Y-117390502D01*
X147361518Y-117426812D01*
X147486000Y-117439072D01*
X148050250Y-117436000D01*
X148209000Y-117277250D01*
X148209000Y-116078000D01*
X148463000Y-116078000D01*
X148463000Y-117277250D01*
X148621750Y-117436000D01*
X149186000Y-117439072D01*
X149310482Y-117426812D01*
X149430180Y-117390502D01*
X149540494Y-117331537D01*
X149637185Y-117252185D01*
X149716537Y-117155494D01*
X149775502Y-117045180D01*
X149811812Y-116925482D01*
X149824072Y-116801000D01*
X149821000Y-116236750D01*
X149662250Y-116078000D01*
X148463000Y-116078000D01*
X148209000Y-116078000D01*
X148189000Y-116078000D01*
X148189000Y-115824000D01*
X148209000Y-115824000D01*
X148209000Y-114624750D01*
X148463000Y-114624750D01*
X148463000Y-115824000D01*
X149662250Y-115824000D01*
X149821000Y-115665250D01*
X149824072Y-115101000D01*
X149811812Y-114976518D01*
X149775502Y-114856820D01*
X149716537Y-114746506D01*
X149637185Y-114649815D01*
X149540494Y-114570463D01*
X149430180Y-114511498D01*
X149310482Y-114475188D01*
X149186000Y-114462928D01*
X148621750Y-114466000D01*
X148463000Y-114624750D01*
X148209000Y-114624750D01*
X148050250Y-114466000D01*
X147486000Y-114462928D01*
X147361518Y-114475188D01*
X147241820Y-114511498D01*
X147131506Y-114570463D01*
X147034815Y-114649815D01*
X146955463Y-114746506D01*
X146896498Y-114856820D01*
X146874487Y-114929380D01*
X146742632Y-114797525D01*
X146499411Y-114635010D01*
X146229158Y-114523068D01*
X145942260Y-114466000D01*
X145649740Y-114466000D01*
X145429592Y-114509791D01*
X145089804Y-114170003D01*
X145066001Y-114140999D01*
X144950276Y-114046026D01*
X144818247Y-113975454D01*
X144674986Y-113931997D01*
X144563333Y-113921000D01*
X144563322Y-113921000D01*
X144526000Y-113917324D01*
X144488678Y-113921000D01*
X141284802Y-113921000D01*
X140354000Y-112990199D01*
X140354000Y-112928061D01*
X140314226Y-112728102D01*
X140236205Y-112539744D01*
X140122937Y-112370226D01*
X139978774Y-112226063D01*
X139809256Y-112112795D01*
X139679001Y-112058841D01*
X139679001Y-96741804D01*
X140603198Y-97666002D01*
X140626997Y-97695001D01*
X140655995Y-97718799D01*
X140742721Y-97789974D01*
X140848387Y-97846454D01*
X140848428Y-97846476D01*
X140848194Y-97847246D01*
X140823997Y-97927015D01*
X140813461Y-98033984D01*
X140809323Y-98076001D01*
X140813000Y-98113333D01*
X140812999Y-110924272D01*
X140809323Y-110961594D01*
X140812999Y-110998916D01*
X140812999Y-110998926D01*
X140823996Y-111110579D01*
X140859614Y-111227998D01*
X140867453Y-111253840D01*
X140938025Y-111385870D01*
X140967903Y-111422276D01*
X141032998Y-111501595D01*
X141062001Y-111525398D01*
X142024607Y-112488004D01*
X142048405Y-112517002D01*
X142164130Y-112611975D01*
X142296159Y-112682547D01*
X142439420Y-112726004D01*
X142551073Y-112737001D01*
X142551082Y-112737001D01*
X142588405Y-112740677D01*
X142625728Y-112737001D01*
X143376179Y-112737001D01*
X143413501Y-112740677D01*
X143450823Y-112737001D01*
X143450834Y-112737001D01*
X143562487Y-112726004D01*
X143705748Y-112682547D01*
X143837777Y-112611975D01*
X143953502Y-112517002D01*
X143977304Y-112487999D01*
X144472303Y-111993001D01*
X148253841Y-111993001D01*
X148307795Y-112123256D01*
X148421063Y-112292774D01*
X148565226Y-112436937D01*
X148734744Y-112550205D01*
X148923102Y-112628226D01*
X149123061Y-112668000D01*
X149326939Y-112668000D01*
X149526898Y-112628226D01*
X149715256Y-112550205D01*
X149884774Y-112436937D01*
X149928711Y-112393000D01*
X150838678Y-112393000D01*
X150876000Y-112396676D01*
X150913322Y-112393000D01*
X150913333Y-112393000D01*
X151024986Y-112382003D01*
X151168247Y-112338546D01*
X151300276Y-112267974D01*
X151416001Y-112173001D01*
X151439804Y-112143997D01*
X152185802Y-111398000D01*
X152247939Y-111398000D01*
X152447898Y-111358226D01*
X152636256Y-111280205D01*
X152805774Y-111166937D01*
X152949937Y-111022774D01*
X153063205Y-110853256D01*
X153141226Y-110664898D01*
X153181000Y-110464939D01*
X153181000Y-110261061D01*
X153141226Y-110061102D01*
X153063205Y-109872744D01*
X152949937Y-109703226D01*
X152805774Y-109559063D01*
X152636256Y-109445795D01*
X152447898Y-109367774D01*
X152247939Y-109328000D01*
X152044061Y-109328000D01*
X151844102Y-109367774D01*
X151655744Y-109445795D01*
X151486226Y-109559063D01*
X151342063Y-109703226D01*
X151228795Y-109872744D01*
X151150774Y-110061102D01*
X151111000Y-110261061D01*
X151111000Y-110323198D01*
X150561199Y-110873000D01*
X149928711Y-110873000D01*
X149884774Y-110829063D01*
X149715256Y-110715795D01*
X149526898Y-110637774D01*
X149326939Y-110598000D01*
X149249226Y-110598000D01*
X149117248Y-110527455D01*
X148973987Y-110483998D01*
X148862334Y-110473001D01*
X148862323Y-110473001D01*
X148825001Y-110469325D01*
X148787679Y-110473001D01*
X144921333Y-110473001D01*
X144939001Y-110458501D01*
X145033974Y-110342776D01*
X145104546Y-110210747D01*
X145148003Y-110067486D01*
X145159000Y-109955833D01*
X145159000Y-109955825D01*
X145162676Y-109918500D01*
X145159000Y-109881175D01*
X145159000Y-108458000D01*
X145388500Y-108458000D01*
X145388500Y-109282250D01*
X145547250Y-109441000D01*
X145799000Y-109444072D01*
X145923482Y-109431812D01*
X146043180Y-109395502D01*
X146153494Y-109336537D01*
X146250185Y-109257185D01*
X146329537Y-109160494D01*
X146388502Y-109050180D01*
X146424812Y-108930482D01*
X146437072Y-108806000D01*
X146434000Y-108616750D01*
X146275250Y-108458000D01*
X145388500Y-108458000D01*
X145159000Y-108458000D01*
X145159000Y-108202000D01*
X145388500Y-108202000D01*
X145388500Y-108204000D01*
X146275250Y-108204000D01*
X146277250Y-108202000D01*
X148679678Y-108202000D01*
X148717000Y-108205676D01*
X148754322Y-108202000D01*
X148754333Y-108202000D01*
X148865986Y-108191003D01*
X149009247Y-108147546D01*
X149141276Y-108076974D01*
X149257001Y-107982001D01*
X149280804Y-107952997D01*
X154492802Y-102741000D01*
X156903289Y-102741000D01*
X156947226Y-102784937D01*
X157116744Y-102898205D01*
X157305102Y-102976226D01*
X157505061Y-103016000D01*
X157708939Y-103016000D01*
X157908898Y-102976226D01*
X158097256Y-102898205D01*
X158266774Y-102784937D01*
X158310711Y-102741000D01*
X164517711Y-102741000D01*
X164563795Y-102852256D01*
X164677063Y-103021774D01*
X164821226Y-103165937D01*
X164990744Y-103279205D01*
X165179102Y-103357226D01*
X165379061Y-103397000D01*
X165582939Y-103397000D01*
X165782898Y-103357226D01*
X165971256Y-103279205D01*
X166140774Y-103165937D01*
X166284937Y-103021774D01*
X166398205Y-102852256D01*
X166476226Y-102663898D01*
X166516000Y-102463939D01*
X166516000Y-102260061D01*
X166504452Y-102202000D01*
X170173928Y-102202000D01*
X170186188Y-102326482D01*
X170222498Y-102446180D01*
X170281463Y-102556494D01*
X170360815Y-102653185D01*
X170457506Y-102732537D01*
X170567820Y-102791502D01*
X170687518Y-102827812D01*
X170812000Y-102840072D01*
X171063750Y-102837000D01*
X171222500Y-102678250D01*
X171222500Y-101854000D01*
X170335750Y-101854000D01*
X170177000Y-102012750D01*
X170173928Y-102202000D01*
X166504452Y-102202000D01*
X166476226Y-102060102D01*
X166398205Y-101871744D01*
X166284937Y-101702226D01*
X166140774Y-101558063D01*
X165971256Y-101444795D01*
X165782898Y-101366774D01*
X165582939Y-101327000D01*
X165488681Y-101327000D01*
X165392247Y-101275454D01*
X165314929Y-101252000D01*
X170173928Y-101252000D01*
X170177000Y-101441250D01*
X170335750Y-101600000D01*
X171222500Y-101600000D01*
X171222500Y-100775750D01*
X171063750Y-100617000D01*
X170812000Y-100613928D01*
X170687518Y-100626188D01*
X170567820Y-100662498D01*
X170457506Y-100721463D01*
X170360815Y-100800815D01*
X170281463Y-100897506D01*
X170222498Y-101007820D01*
X170186188Y-101127518D01*
X170173928Y-101252000D01*
X165314929Y-101252000D01*
X165248986Y-101231997D01*
X165137333Y-101221000D01*
X165137322Y-101221000D01*
X165100000Y-101217324D01*
X165062678Y-101221000D01*
X158310711Y-101221000D01*
X158266774Y-101177063D01*
X158097256Y-101063795D01*
X157908898Y-100985774D01*
X157708939Y-100946000D01*
X157505061Y-100946000D01*
X157305102Y-100985774D01*
X157116744Y-101063795D01*
X156947226Y-101177063D01*
X156903289Y-101221000D01*
X154215322Y-101221000D01*
X154177999Y-101217324D01*
X154140676Y-101221000D01*
X154140667Y-101221000D01*
X154029014Y-101231997D01*
X153885753Y-101275454D01*
X153753724Y-101346026D01*
X153637999Y-101440999D01*
X153614201Y-101469997D01*
X148402199Y-106682000D01*
X144854812Y-106682000D01*
X144817489Y-106678324D01*
X144780166Y-106682000D01*
X144780157Y-106682000D01*
X144683001Y-106691569D01*
X144683001Y-106385753D01*
X144854842Y-106456932D01*
X145141740Y-106514000D01*
X145434260Y-106514000D01*
X145721158Y-106456932D01*
X145991411Y-106344990D01*
X146234632Y-106182475D01*
X146441475Y-105975632D01*
X146603990Y-105732411D01*
X146715932Y-105462158D01*
X146773000Y-105175260D01*
X146773000Y-104882740D01*
X146715932Y-104595842D01*
X146603990Y-104325589D01*
X146441475Y-104082368D01*
X146234632Y-103875525D01*
X145991411Y-103713010D01*
X145721158Y-103601068D01*
X145434260Y-103544000D01*
X145141740Y-103544000D01*
X144854842Y-103601068D01*
X144683001Y-103672247D01*
X144683001Y-97027328D01*
X144686677Y-96990003D01*
X144683001Y-96952678D01*
X144683001Y-96952670D01*
X144672004Y-96841017D01*
X144628547Y-96697756D01*
X144557975Y-96565727D01*
X144463002Y-96450002D01*
X144434004Y-96426204D01*
X143084275Y-95076475D01*
X143229500Y-94931250D01*
X143229500Y-94107000D01*
X143483500Y-94107000D01*
X143483500Y-94931250D01*
X143642250Y-95090000D01*
X143894000Y-95093072D01*
X144018482Y-95080812D01*
X144138180Y-95044502D01*
X144248494Y-94985537D01*
X144345185Y-94906185D01*
X144424537Y-94809494D01*
X144483502Y-94699180D01*
X144519812Y-94579482D01*
X144532072Y-94455000D01*
X144529000Y-94265750D01*
X144370250Y-94107000D01*
X143483500Y-94107000D01*
X143229500Y-94107000D01*
X143209500Y-94107000D01*
X143209500Y-93853000D01*
X143229500Y-93853000D01*
X143229500Y-93028750D01*
X143483500Y-93028750D01*
X143483500Y-93853000D01*
X144370250Y-93853000D01*
X144529000Y-93694250D01*
X144532072Y-93505000D01*
X144519812Y-93380518D01*
X144483502Y-93260820D01*
X144424537Y-93150506D01*
X144345185Y-93053815D01*
X144248494Y-92974463D01*
X144138180Y-92915498D01*
X144018482Y-92879188D01*
X143894000Y-92866928D01*
X143642250Y-92870000D01*
X143483500Y-93028750D01*
X143229500Y-93028750D01*
X143070750Y-92870000D01*
X142819000Y-92866928D01*
X142694518Y-92879188D01*
X142574820Y-92915498D01*
X142464506Y-92974463D01*
X142416606Y-93013774D01*
X142391500Y-93000355D01*
X142391500Y-92708000D01*
X149989001Y-92708000D01*
X149989000Y-97459679D01*
X149985324Y-97497002D01*
X149989000Y-97534324D01*
X149989000Y-97534334D01*
X149999997Y-97645987D01*
X150037919Y-97771000D01*
X150043454Y-97789248D01*
X150114026Y-97921278D01*
X150146031Y-97960276D01*
X150208999Y-98037003D01*
X150238002Y-98060805D01*
X151640202Y-99463007D01*
X151663996Y-99492000D01*
X151692989Y-99515794D01*
X151692993Y-99515798D01*
X151710228Y-99529942D01*
X151779721Y-99586973D01*
X151911750Y-99657545D01*
X152055011Y-99701002D01*
X152166664Y-99711999D01*
X152166673Y-99711999D01*
X152203996Y-99715675D01*
X152241319Y-99711999D01*
X153105679Y-99711999D01*
X153143001Y-99715675D01*
X153180323Y-99711999D01*
X153180334Y-99711999D01*
X153291987Y-99701002D01*
X153435248Y-99657545D01*
X153567226Y-99587000D01*
X153644939Y-99587000D01*
X153844898Y-99547226D01*
X154033256Y-99469205D01*
X154202774Y-99355937D01*
X154346937Y-99211774D01*
X154460205Y-99042256D01*
X154538226Y-98853898D01*
X154578000Y-98653939D01*
X154578000Y-98450061D01*
X154538226Y-98250102D01*
X154460205Y-98061744D01*
X154346937Y-97892226D01*
X154202774Y-97748063D01*
X154033256Y-97634795D01*
X153844898Y-97556774D01*
X153644939Y-97517000D01*
X153588086Y-97517000D01*
X153631000Y-97301260D01*
X153631000Y-97008740D01*
X153573932Y-96721842D01*
X153461990Y-96451589D01*
X153299475Y-96208368D01*
X153167620Y-96076513D01*
X153240180Y-96054502D01*
X153350494Y-95995537D01*
X153447185Y-95916185D01*
X153526537Y-95819494D01*
X153585502Y-95709180D01*
X153621812Y-95589482D01*
X153634072Y-95465000D01*
X153634072Y-94210500D01*
X161192928Y-94210500D01*
X161205188Y-94334982D01*
X161241498Y-94454680D01*
X161300463Y-94564994D01*
X161379815Y-94661685D01*
X161476506Y-94741037D01*
X161586820Y-94800002D01*
X161706518Y-94836312D01*
X161831000Y-94848572D01*
X162020250Y-94845500D01*
X162179000Y-94686750D01*
X162179000Y-93800000D01*
X162433000Y-93800000D01*
X162433000Y-94686750D01*
X162591750Y-94845500D01*
X162781000Y-94848572D01*
X162905482Y-94836312D01*
X163025180Y-94800002D01*
X163135494Y-94741037D01*
X163232185Y-94661685D01*
X163311537Y-94564994D01*
X163370502Y-94454680D01*
X163406812Y-94334982D01*
X163419072Y-94210500D01*
X163416000Y-93958750D01*
X163257250Y-93800000D01*
X162433000Y-93800000D01*
X162179000Y-93800000D01*
X161354750Y-93800000D01*
X161196000Y-93958750D01*
X161192928Y-94210500D01*
X153634072Y-94210500D01*
X153634072Y-93765000D01*
X153621812Y-93640518D01*
X153585502Y-93520820D01*
X153526537Y-93410506D01*
X153447185Y-93313815D01*
X153350494Y-93234463D01*
X153240180Y-93175498D01*
X153120482Y-93139188D01*
X152996000Y-93126928D01*
X151509000Y-93126928D01*
X151509000Y-92708000D01*
X161326355Y-92708000D01*
X161339774Y-92733106D01*
X161300463Y-92781006D01*
X161241498Y-92891320D01*
X161205188Y-93011018D01*
X161192928Y-93135500D01*
X161196000Y-93387250D01*
X161354750Y-93546000D01*
X162179000Y-93546000D01*
X162179000Y-93526000D01*
X162433000Y-93526000D01*
X162433000Y-93546000D01*
X163257250Y-93546000D01*
X163416000Y-93387250D01*
X163419072Y-93135500D01*
X163406812Y-93011018D01*
X163370502Y-92891320D01*
X163311537Y-92781006D01*
X163272226Y-92733106D01*
X163285645Y-92708000D01*
X175167002Y-92708000D01*
X175167002Y-93126928D01*
X173902000Y-93126928D01*
X173777518Y-93139188D01*
X173657820Y-93175498D01*
X173547506Y-93234463D01*
X173450815Y-93313815D01*
X173371463Y-93410506D01*
X173312498Y-93520820D01*
X173290487Y-93593380D01*
X173158632Y-93461525D01*
X172915411Y-93299010D01*
X172645158Y-93187068D01*
X172358260Y-93130000D01*
X172065740Y-93130000D01*
X171778842Y-93187068D01*
X171508589Y-93299010D01*
X171265368Y-93461525D01*
X171058525Y-93668368D01*
X170942000Y-93842760D01*
X170825475Y-93668368D01*
X170618632Y-93461525D01*
X170375411Y-93299010D01*
X170105158Y-93187068D01*
X169818260Y-93130000D01*
X169525740Y-93130000D01*
X169238842Y-93187068D01*
X168968589Y-93299010D01*
X168725368Y-93461525D01*
X168518525Y-93668368D01*
X168356010Y-93911589D01*
X168244068Y-94181842D01*
X168187000Y-94468740D01*
X168187000Y-94761260D01*
X168244068Y-95048158D01*
X168356010Y-95318411D01*
X168518525Y-95561632D01*
X168725368Y-95768475D01*
X168899760Y-95885000D01*
X168725368Y-96001525D01*
X168518525Y-96208368D01*
X168356010Y-96451589D01*
X168244068Y-96721842D01*
X168187000Y-97008740D01*
X168187000Y-97301260D01*
X168244068Y-97588158D01*
X168356010Y-97858411D01*
X168518525Y-98101632D01*
X168725368Y-98308475D01*
X168968589Y-98470990D01*
X169238842Y-98582932D01*
X169525740Y-98640000D01*
X169818260Y-98640000D01*
X170105158Y-98582932D01*
X170375411Y-98470990D01*
X170618632Y-98308475D01*
X170825475Y-98101632D01*
X170942000Y-97927240D01*
X171058525Y-98101632D01*
X171265368Y-98308475D01*
X171508589Y-98470990D01*
X171778842Y-98582932D01*
X172065740Y-98640000D01*
X172358260Y-98640000D01*
X172645158Y-98582932D01*
X172915411Y-98470990D01*
X173158632Y-98308475D01*
X173365475Y-98101632D01*
X173482000Y-97927240D01*
X173598525Y-98101632D01*
X173805368Y-98308475D01*
X174048589Y-98470990D01*
X174202469Y-98534729D01*
X173315199Y-99422000D01*
X173253061Y-99422000D01*
X173053102Y-99461774D01*
X172864744Y-99539795D01*
X172695226Y-99653063D01*
X172551063Y-99797226D01*
X172437795Y-99966744D01*
X172359774Y-100155102D01*
X172320000Y-100355061D01*
X172320000Y-100558939D01*
X172325730Y-100587748D01*
X172325498Y-100588514D01*
X172315874Y-100686226D01*
X172310824Y-100737500D01*
X172311930Y-100748728D01*
X172289394Y-100760774D01*
X172241494Y-100721463D01*
X172131180Y-100662498D01*
X172011482Y-100626188D01*
X171887000Y-100613928D01*
X171635250Y-100617000D01*
X171476500Y-100775750D01*
X171476500Y-101600000D01*
X171496500Y-101600000D01*
X171496500Y-101854000D01*
X171476500Y-101854000D01*
X171476500Y-102678250D01*
X171499974Y-102701724D01*
X169170699Y-105031000D01*
X165168711Y-105031000D01*
X165124774Y-104987063D01*
X164955256Y-104873795D01*
X164766898Y-104795774D01*
X164566939Y-104756000D01*
X164363061Y-104756000D01*
X164163102Y-104795774D01*
X163974744Y-104873795D01*
X163805226Y-104987063D01*
X163761289Y-105031000D01*
X160692325Y-105031000D01*
X160655000Y-105027324D01*
X160617675Y-105031000D01*
X160617667Y-105031000D01*
X160506014Y-105041997D01*
X160362753Y-105085454D01*
X160230724Y-105156026D01*
X160114999Y-105250999D01*
X160091200Y-105279998D01*
X159794189Y-105577010D01*
X157306500Y-105577010D01*
X157306500Y-105410000D01*
X157326500Y-105410000D01*
X157326500Y-104585750D01*
X157580500Y-104585750D01*
X157580500Y-105410000D01*
X158467250Y-105410000D01*
X158626000Y-105251250D01*
X158629072Y-105062000D01*
X158616812Y-104937518D01*
X158580502Y-104817820D01*
X158521537Y-104707506D01*
X158442185Y-104610815D01*
X158345494Y-104531463D01*
X158235180Y-104472498D01*
X158115482Y-104436188D01*
X157991000Y-104423928D01*
X157739250Y-104427000D01*
X157580500Y-104585750D01*
X157326500Y-104585750D01*
X157167750Y-104427000D01*
X156916000Y-104423928D01*
X156791518Y-104436188D01*
X156671820Y-104472498D01*
X156561506Y-104531463D01*
X156513606Y-104570774D01*
X156480202Y-104552919D01*
X156477503Y-104525514D01*
X156434046Y-104382253D01*
X156363474Y-104250224D01*
X156356000Y-104241117D01*
X156356000Y-104165061D01*
X156316226Y-103965102D01*
X156238205Y-103776744D01*
X156124937Y-103607226D01*
X155980774Y-103463063D01*
X155811256Y-103349795D01*
X155622898Y-103271774D01*
X155422939Y-103232000D01*
X155219061Y-103232000D01*
X155019102Y-103271774D01*
X154830744Y-103349795D01*
X154661226Y-103463063D01*
X154517063Y-103607226D01*
X154403795Y-103776744D01*
X154325774Y-103965102D01*
X154286000Y-104165061D01*
X154286000Y-104368939D01*
X154325774Y-104568898D01*
X154403795Y-104757256D01*
X154517063Y-104926774D01*
X154604482Y-105014193D01*
X154569752Y-105128684D01*
X154552928Y-105299500D01*
X154552928Y-105774500D01*
X154569752Y-105945316D01*
X154619577Y-106109567D01*
X154700488Y-106260942D01*
X154809377Y-106393623D01*
X154942058Y-106502512D01*
X154968500Y-106516646D01*
X154968501Y-108995928D01*
X154666500Y-108995928D01*
X154495684Y-109012752D01*
X154331433Y-109062577D01*
X154180058Y-109143488D01*
X154047377Y-109252377D01*
X153938488Y-109385058D01*
X153857577Y-109536433D01*
X153807752Y-109700684D01*
X153790928Y-109871500D01*
X153790928Y-110346500D01*
X153807752Y-110517316D01*
X153857577Y-110681567D01*
X153938488Y-110832942D01*
X154047377Y-110965623D01*
X154180058Y-111074512D01*
X154197441Y-111083803D01*
X154159000Y-111277061D01*
X154159000Y-111480939D01*
X154198774Y-111680898D01*
X154276795Y-111869256D01*
X154390063Y-112038774D01*
X154534226Y-112182937D01*
X154703744Y-112296205D01*
X154892102Y-112374226D01*
X155092061Y-112414000D01*
X155295939Y-112414000D01*
X155495898Y-112374226D01*
X155684256Y-112296205D01*
X155853774Y-112182937D01*
X155997937Y-112038774D01*
X156111205Y-111869256D01*
X156189226Y-111680898D01*
X156229000Y-111480939D01*
X156229000Y-111277061D01*
X156217907Y-111221292D01*
X156405750Y-111219000D01*
X156564500Y-111060250D01*
X156564500Y-110236000D01*
X156544500Y-110236000D01*
X156544500Y-109982000D01*
X156564500Y-109982000D01*
X156564500Y-109157750D01*
X156818500Y-109157750D01*
X156818500Y-109982000D01*
X156838500Y-109982000D01*
X156838500Y-110236000D01*
X156818500Y-110236000D01*
X156818500Y-111060250D01*
X156977250Y-111219000D01*
X157229000Y-111222072D01*
X157353482Y-111209812D01*
X157473180Y-111173502D01*
X157583494Y-111114537D01*
X157626261Y-111079439D01*
X157686102Y-111104226D01*
X157886061Y-111144000D01*
X157948199Y-111144000D01*
X159456201Y-112652003D01*
X159479999Y-112681001D01*
X159508997Y-112704799D01*
X159595723Y-112775974D01*
X159723759Y-112844411D01*
X159727753Y-112846546D01*
X159871014Y-112890003D01*
X159982667Y-112901000D01*
X159982677Y-112901000D01*
X160020000Y-112904676D01*
X160057323Y-112901000D01*
X162468928Y-112901000D01*
X162468928Y-112991000D01*
X162481188Y-113115482D01*
X162517498Y-113235180D01*
X162576463Y-113345494D01*
X162655815Y-113442185D01*
X162752506Y-113521537D01*
X162862820Y-113580502D01*
X162935380Y-113602513D01*
X162803525Y-113734368D01*
X162641010Y-113977589D01*
X162529068Y-114247842D01*
X162472000Y-114534740D01*
X162472000Y-114827260D01*
X162529068Y-115114158D01*
X162641010Y-115384411D01*
X162803525Y-115627632D01*
X163010368Y-115834475D01*
X163184760Y-115951000D01*
X163010368Y-116067525D01*
X162803525Y-116274368D01*
X162641010Y-116517589D01*
X162529068Y-116787842D01*
X162472000Y-117074740D01*
X162472000Y-117367260D01*
X162529068Y-117654158D01*
X162641010Y-117924411D01*
X162803525Y-118167632D01*
X163010368Y-118374475D01*
X163253589Y-118536990D01*
X163523842Y-118648932D01*
X163810740Y-118706000D01*
X164103260Y-118706000D01*
X164390158Y-118648932D01*
X164660411Y-118536990D01*
X164903632Y-118374475D01*
X165110475Y-118167632D01*
X165227000Y-117993240D01*
X165343525Y-118167632D01*
X165550368Y-118374475D01*
X165793589Y-118536990D01*
X166063842Y-118648932D01*
X166350740Y-118706000D01*
X166643260Y-118706000D01*
X166930158Y-118648932D01*
X167200411Y-118536990D01*
X167443632Y-118374475D01*
X167650475Y-118167632D01*
X167812990Y-117924411D01*
X167924932Y-117654158D01*
X167982000Y-117367260D01*
X167982000Y-117074740D01*
X167924932Y-116787842D01*
X167812990Y-116517589D01*
X167650475Y-116274368D01*
X167443632Y-116067525D01*
X167269240Y-115951000D01*
X167443632Y-115834475D01*
X167473367Y-115804740D01*
X175426000Y-115804740D01*
X175426000Y-116097260D01*
X175483068Y-116384158D01*
X175595010Y-116654411D01*
X175757525Y-116897632D01*
X175964368Y-117104475D01*
X176207589Y-117266990D01*
X176477842Y-117378932D01*
X176764740Y-117436000D01*
X177057260Y-117436000D01*
X177344158Y-117378932D01*
X177614411Y-117266990D01*
X177857632Y-117104475D01*
X178064475Y-116897632D01*
X178181000Y-116723240D01*
X178297525Y-116897632D01*
X178504368Y-117104475D01*
X178747589Y-117266990D01*
X179017842Y-117378932D01*
X179304740Y-117436000D01*
X179597260Y-117436000D01*
X179884158Y-117378932D01*
X180154411Y-117266990D01*
X180397632Y-117104475D01*
X180604475Y-116897632D01*
X180721000Y-116723240D01*
X180837525Y-116897632D01*
X181044368Y-117104475D01*
X181287589Y-117266990D01*
X181557842Y-117378932D01*
X181844740Y-117436000D01*
X182137260Y-117436000D01*
X182424158Y-117378932D01*
X182694411Y-117266990D01*
X182937632Y-117104475D01*
X183144475Y-116897632D01*
X183261000Y-116723240D01*
X183377525Y-116897632D01*
X183584368Y-117104475D01*
X183827589Y-117266990D01*
X184097842Y-117378932D01*
X184384740Y-117436000D01*
X184677260Y-117436000D01*
X184964158Y-117378932D01*
X185234411Y-117266990D01*
X185477632Y-117104475D01*
X185684475Y-116897632D01*
X185801000Y-116723240D01*
X185917525Y-116897632D01*
X186124368Y-117104475D01*
X186367589Y-117266990D01*
X186637842Y-117378932D01*
X186924740Y-117436000D01*
X187217260Y-117436000D01*
X187504158Y-117378932D01*
X187774411Y-117266990D01*
X188017632Y-117104475D01*
X188224475Y-116897632D01*
X188341000Y-116723240D01*
X188457525Y-116897632D01*
X188664368Y-117104475D01*
X188907589Y-117266990D01*
X189177842Y-117378932D01*
X189464740Y-117436000D01*
X189757260Y-117436000D01*
X190044158Y-117378932D01*
X190314411Y-117266990D01*
X190557632Y-117104475D01*
X190764475Y-116897632D01*
X190881000Y-116723240D01*
X190997525Y-116897632D01*
X191204368Y-117104475D01*
X191447589Y-117266990D01*
X191717842Y-117378932D01*
X192004740Y-117436000D01*
X192297260Y-117436000D01*
X192584158Y-117378932D01*
X192854411Y-117266990D01*
X193097632Y-117104475D01*
X193229487Y-116972620D01*
X193251498Y-117045180D01*
X193310463Y-117155494D01*
X193389815Y-117252185D01*
X193486506Y-117331537D01*
X193596820Y-117390502D01*
X193716518Y-117426812D01*
X193841000Y-117439072D01*
X195541000Y-117439072D01*
X195665482Y-117426812D01*
X195785180Y-117390502D01*
X195895494Y-117331537D01*
X195992185Y-117252185D01*
X196071537Y-117155494D01*
X196130502Y-117045180D01*
X196166812Y-116925482D01*
X196179072Y-116801000D01*
X196179072Y-115101000D01*
X196166812Y-114976518D01*
X196130502Y-114856820D01*
X196071537Y-114746506D01*
X195992185Y-114649815D01*
X195895494Y-114570463D01*
X195785180Y-114511498D01*
X195665482Y-114475188D01*
X195541000Y-114462928D01*
X193841000Y-114462928D01*
X193716518Y-114475188D01*
X193596820Y-114511498D01*
X193486506Y-114570463D01*
X193389815Y-114649815D01*
X193310463Y-114746506D01*
X193251498Y-114856820D01*
X193229487Y-114929380D01*
X193097632Y-114797525D01*
X192854411Y-114635010D01*
X192584158Y-114523068D01*
X192297260Y-114466000D01*
X192004740Y-114466000D01*
X191717842Y-114523068D01*
X191447589Y-114635010D01*
X191204368Y-114797525D01*
X190997525Y-115004368D01*
X190881000Y-115178760D01*
X190764475Y-115004368D01*
X190557632Y-114797525D01*
X190314411Y-114635010D01*
X190044158Y-114523068D01*
X189757260Y-114466000D01*
X189464740Y-114466000D01*
X189177842Y-114523068D01*
X188907589Y-114635010D01*
X188664368Y-114797525D01*
X188457525Y-115004368D01*
X188341000Y-115178760D01*
X188224475Y-115004368D01*
X188017632Y-114797525D01*
X187774411Y-114635010D01*
X187504158Y-114523068D01*
X187217260Y-114466000D01*
X186924740Y-114466000D01*
X186637842Y-114523068D01*
X186367589Y-114635010D01*
X186124368Y-114797525D01*
X185917525Y-115004368D01*
X185801000Y-115178760D01*
X185684475Y-115004368D01*
X185477632Y-114797525D01*
X185234411Y-114635010D01*
X184964158Y-114523068D01*
X184677260Y-114466000D01*
X184384740Y-114466000D01*
X184097842Y-114523068D01*
X183827589Y-114635010D01*
X183584368Y-114797525D01*
X183377525Y-115004368D01*
X183261000Y-115178760D01*
X183144475Y-115004368D01*
X182937632Y-114797525D01*
X182694411Y-114635010D01*
X182424158Y-114523068D01*
X182137260Y-114466000D01*
X181844740Y-114466000D01*
X181557842Y-114523068D01*
X181287589Y-114635010D01*
X181044368Y-114797525D01*
X180837525Y-115004368D01*
X180721000Y-115178760D01*
X180604475Y-115004368D01*
X180397632Y-114797525D01*
X180154411Y-114635010D01*
X179884158Y-114523068D01*
X179597260Y-114466000D01*
X179304740Y-114466000D01*
X179017842Y-114523068D01*
X178747589Y-114635010D01*
X178504368Y-114797525D01*
X178297525Y-115004368D01*
X178181000Y-115178760D01*
X178064475Y-115004368D01*
X177857632Y-114797525D01*
X177614411Y-114635010D01*
X177344158Y-114523068D01*
X177057260Y-114466000D01*
X176764740Y-114466000D01*
X176477842Y-114523068D01*
X176207589Y-114635010D01*
X175964368Y-114797525D01*
X175757525Y-115004368D01*
X175595010Y-115247589D01*
X175483068Y-115517842D01*
X175426000Y-115804740D01*
X167473367Y-115804740D01*
X167650475Y-115627632D01*
X167812990Y-115384411D01*
X167924932Y-115114158D01*
X167982000Y-114827260D01*
X167982000Y-114534740D01*
X167924932Y-114247842D01*
X167812990Y-113977589D01*
X167650475Y-113734368D01*
X167443632Y-113527525D01*
X167269240Y-113411000D01*
X167443632Y-113294475D01*
X167650475Y-113087632D01*
X167812990Y-112844411D01*
X167924932Y-112574158D01*
X167982000Y-112287260D01*
X167982000Y-111994740D01*
X167924932Y-111707842D01*
X167812990Y-111437589D01*
X167650475Y-111194368D01*
X167443632Y-110987525D01*
X167200411Y-110825010D01*
X166930158Y-110713068D01*
X166643260Y-110656000D01*
X166350740Y-110656000D01*
X166063842Y-110713068D01*
X165793589Y-110825010D01*
X165550368Y-110987525D01*
X165418513Y-111119380D01*
X165396502Y-111046820D01*
X165370381Y-110997952D01*
X165382205Y-110980256D01*
X165460226Y-110791898D01*
X165500000Y-110591939D01*
X165500000Y-110388061D01*
X165460226Y-110188102D01*
X165382205Y-109999744D01*
X165268937Y-109830226D01*
X165124774Y-109686063D01*
X164955256Y-109572795D01*
X164766898Y-109494774D01*
X164566939Y-109455000D01*
X164363061Y-109455000D01*
X164163102Y-109494774D01*
X163974744Y-109572795D01*
X163805226Y-109686063D01*
X163661063Y-109830226D01*
X163547795Y-109999744D01*
X163469774Y-110188102D01*
X163430000Y-110388061D01*
X163430000Y-110591939D01*
X163442131Y-110652928D01*
X163107000Y-110652928D01*
X162982518Y-110665188D01*
X162862820Y-110701498D01*
X162752506Y-110760463D01*
X162655815Y-110839815D01*
X162576463Y-110936506D01*
X162517498Y-111046820D01*
X162481188Y-111166518D01*
X162468928Y-111291000D01*
X162468928Y-111381000D01*
X160334802Y-111381000D01*
X159023000Y-110069199D01*
X159023000Y-110007061D01*
X158983226Y-109807102D01*
X158905205Y-109618744D01*
X158791937Y-109449226D01*
X158647774Y-109305063D01*
X158478256Y-109191795D01*
X158289898Y-109113774D01*
X158089939Y-109074000D01*
X157886061Y-109074000D01*
X157686102Y-109113774D01*
X157626261Y-109138561D01*
X157583494Y-109103463D01*
X157473180Y-109044498D01*
X157353482Y-109008188D01*
X157229000Y-108995928D01*
X156977250Y-108999000D01*
X156818500Y-109157750D01*
X156564500Y-109157750D01*
X156488500Y-109081750D01*
X156488500Y-108229061D01*
X161144000Y-108229061D01*
X161144000Y-108432939D01*
X161183774Y-108632898D01*
X161261795Y-108821256D01*
X161375063Y-108990774D01*
X161519226Y-109134937D01*
X161688744Y-109248205D01*
X161877102Y-109326226D01*
X162077061Y-109366000D01*
X162280939Y-109366000D01*
X162480898Y-109326226D01*
X162669256Y-109248205D01*
X162838774Y-109134937D01*
X162882711Y-109091000D01*
X178143678Y-109091000D01*
X178181000Y-109094676D01*
X178218322Y-109091000D01*
X178218333Y-109091000D01*
X178329986Y-109080003D01*
X178473247Y-109036546D01*
X178605276Y-108965974D01*
X178721001Y-108871001D01*
X178744803Y-108841998D01*
X178816000Y-108770801D01*
X183459201Y-113414003D01*
X183482999Y-113443001D01*
X183511997Y-113466799D01*
X183598723Y-113537974D01*
X183725043Y-113605494D01*
X183730753Y-113608546D01*
X183874014Y-113652003D01*
X183985667Y-113663000D01*
X183985677Y-113663000D01*
X184022999Y-113666676D01*
X184060322Y-113663000D01*
X184589289Y-113663000D01*
X184633226Y-113706937D01*
X184802744Y-113820205D01*
X184991102Y-113898226D01*
X185191061Y-113938000D01*
X185394939Y-113938000D01*
X185594898Y-113898226D01*
X185783256Y-113820205D01*
X185952774Y-113706937D01*
X185996711Y-113663000D01*
X186525678Y-113663000D01*
X186563000Y-113666676D01*
X186600322Y-113663000D01*
X186600333Y-113663000D01*
X186711986Y-113652003D01*
X186855247Y-113608546D01*
X186987276Y-113537974D01*
X187103001Y-113443001D01*
X187126804Y-113413997D01*
X191809802Y-108731000D01*
X191871939Y-108731000D01*
X192071898Y-108691226D01*
X192260256Y-108613205D01*
X192429774Y-108499937D01*
X192573937Y-108355774D01*
X192687205Y-108186256D01*
X192765226Y-107997898D01*
X192805000Y-107797939D01*
X192805000Y-107594061D01*
X192765226Y-107394102D01*
X192687205Y-107205744D01*
X192573937Y-107036226D01*
X192429774Y-106892063D01*
X192260256Y-106778795D01*
X192071898Y-106700774D01*
X191871939Y-106661000D01*
X191668061Y-106661000D01*
X191468102Y-106700774D01*
X191279744Y-106778795D01*
X191110226Y-106892063D01*
X190966063Y-107036226D01*
X190852795Y-107205744D01*
X190774774Y-107394102D01*
X190735000Y-107594061D01*
X190735000Y-107656198D01*
X186248199Y-112143000D01*
X185996711Y-112143000D01*
X185952774Y-112099063D01*
X185783256Y-111985795D01*
X185594898Y-111907774D01*
X185394939Y-111868000D01*
X185191061Y-111868000D01*
X184991102Y-111907774D01*
X184802744Y-111985795D01*
X184633226Y-112099063D01*
X184589289Y-112143000D01*
X184337802Y-112143000D01*
X180619802Y-108425000D01*
X183254928Y-108425000D01*
X183267188Y-108549482D01*
X183303498Y-108669180D01*
X183362463Y-108779494D01*
X183441815Y-108876185D01*
X183538506Y-108955537D01*
X183648820Y-109014502D01*
X183768518Y-109050812D01*
X183893000Y-109063072D01*
X184144750Y-109060000D01*
X184303500Y-108901250D01*
X184303500Y-108077000D01*
X183416750Y-108077000D01*
X183258000Y-108235750D01*
X183254928Y-108425000D01*
X180619802Y-108425000D01*
X179851000Y-107656199D01*
X179851000Y-107594061D01*
X179827318Y-107475000D01*
X183254928Y-107475000D01*
X183258000Y-107664250D01*
X183416750Y-107823000D01*
X184303500Y-107823000D01*
X184303500Y-106998750D01*
X184144750Y-106840000D01*
X183893000Y-106836928D01*
X183768518Y-106849188D01*
X183648820Y-106885498D01*
X183538506Y-106944463D01*
X183441815Y-107023815D01*
X183362463Y-107120506D01*
X183303498Y-107230820D01*
X183267188Y-107350518D01*
X183254928Y-107475000D01*
X179827318Y-107475000D01*
X179811226Y-107394102D01*
X179733205Y-107205744D01*
X179619937Y-107036226D01*
X179475774Y-106892063D01*
X179306256Y-106778795D01*
X179117898Y-106700774D01*
X178917939Y-106661000D01*
X178855802Y-106661000D01*
X178306000Y-106111199D01*
X178306000Y-102049711D01*
X178349937Y-102005774D01*
X178463205Y-101836256D01*
X178541226Y-101647898D01*
X178581000Y-101447939D01*
X178581000Y-101244061D01*
X178541226Y-101044102D01*
X178463205Y-100855744D01*
X178349937Y-100686226D01*
X178205774Y-100542063D01*
X178036256Y-100428795D01*
X177847898Y-100350774D01*
X177647939Y-100311000D01*
X177444061Y-100311000D01*
X177244102Y-100350774D01*
X177055744Y-100428795D01*
X176886226Y-100542063D01*
X176742063Y-100686226D01*
X176628795Y-100855744D01*
X176550774Y-101044102D01*
X176511000Y-101244061D01*
X176511000Y-101447939D01*
X176550774Y-101647898D01*
X176628795Y-101836256D01*
X176742063Y-102005774D01*
X176786000Y-102049711D01*
X176786001Y-106388668D01*
X176782324Y-106426000D01*
X176786001Y-106463333D01*
X176796998Y-106574986D01*
X176810180Y-106618442D01*
X176840454Y-106718246D01*
X176911026Y-106850276D01*
X176976043Y-106929498D01*
X177006000Y-106966001D01*
X177034998Y-106989799D01*
X177616199Y-107571000D01*
X162882711Y-107571000D01*
X162838774Y-107527063D01*
X162669256Y-107413795D01*
X162480898Y-107335774D01*
X162280939Y-107296000D01*
X162077061Y-107296000D01*
X161877102Y-107335774D01*
X161688744Y-107413795D01*
X161519226Y-107527063D01*
X161375063Y-107671226D01*
X161261795Y-107840744D01*
X161183774Y-108029102D01*
X161144000Y-108229061D01*
X156488500Y-108229061D01*
X156488500Y-107097010D01*
X160071668Y-107097010D01*
X160108990Y-107100686D01*
X160146312Y-107097010D01*
X160146323Y-107097010D01*
X160257976Y-107086013D01*
X160401237Y-107042556D01*
X160533266Y-106971984D01*
X160648991Y-106877011D01*
X160672793Y-106848008D01*
X160969802Y-106551000D01*
X163761289Y-106551000D01*
X163805226Y-106594937D01*
X163974744Y-106708205D01*
X164163102Y-106786226D01*
X164363061Y-106826000D01*
X164566939Y-106826000D01*
X164766898Y-106786226D01*
X164955256Y-106708205D01*
X165124774Y-106594937D01*
X165168711Y-106551000D01*
X169448178Y-106551000D01*
X169485500Y-106554676D01*
X169522822Y-106551000D01*
X169522833Y-106551000D01*
X169634486Y-106540003D01*
X169777747Y-106496546D01*
X169909776Y-106425974D01*
X170025501Y-106331001D01*
X170049304Y-106301997D01*
X173526169Y-102825134D01*
X173545316Y-102823248D01*
X173709567Y-102773423D01*
X173860942Y-102692512D01*
X173993623Y-102583623D01*
X174102512Y-102450942D01*
X174183423Y-102299567D01*
X174233248Y-102135316D01*
X174250072Y-101964500D01*
X174250072Y-101489500D01*
X174233248Y-101318684D01*
X174183423Y-101154433D01*
X174161358Y-101113151D01*
X174272205Y-100947256D01*
X174350226Y-100758898D01*
X174390000Y-100558939D01*
X174390000Y-100496801D01*
X176438005Y-98448797D01*
X176467002Y-98425000D01*
X176561975Y-98309275D01*
X176632547Y-98177246D01*
X176676004Y-98033985D01*
X176687001Y-97922332D01*
X176687001Y-97922324D01*
X176690677Y-97884999D01*
X176687001Y-97847674D01*
X176687001Y-95126000D01*
X178591928Y-95126000D01*
X178604188Y-95250482D01*
X178640498Y-95370180D01*
X178699463Y-95480494D01*
X178778815Y-95577185D01*
X178875506Y-95656537D01*
X178985820Y-95715502D01*
X179105518Y-95751812D01*
X179230000Y-95764072D01*
X179419250Y-95761000D01*
X179578000Y-95602250D01*
X179578000Y-94715500D01*
X179832000Y-94715500D01*
X179832000Y-95602250D01*
X179990750Y-95761000D01*
X180180000Y-95764072D01*
X180304482Y-95751812D01*
X180424180Y-95715502D01*
X180534494Y-95656537D01*
X180631185Y-95577185D01*
X180710537Y-95480494D01*
X180769502Y-95370180D01*
X180805812Y-95250482D01*
X180818072Y-95126000D01*
X180815000Y-94874250D01*
X180656250Y-94715500D01*
X179832000Y-94715500D01*
X179578000Y-94715500D01*
X178753750Y-94715500D01*
X178595000Y-94874250D01*
X178591928Y-95126000D01*
X176687001Y-95126000D01*
X176687001Y-92700998D01*
X177465946Y-92694082D01*
X177517795Y-92819256D01*
X177631063Y-92988774D01*
X177775226Y-93132937D01*
X177944744Y-93246205D01*
X178133102Y-93324226D01*
X178333061Y-93364000D01*
X178536939Y-93364000D01*
X178613158Y-93348839D01*
X178658577Y-93498567D01*
X178738774Y-93648606D01*
X178699463Y-93696506D01*
X178640498Y-93806820D01*
X178604188Y-93926518D01*
X178591928Y-94051000D01*
X178595000Y-94302750D01*
X178753750Y-94461500D01*
X179578000Y-94461500D01*
X179578000Y-94441500D01*
X179832000Y-94441500D01*
X179832000Y-94461500D01*
X180656250Y-94461500D01*
X180679724Y-94438026D01*
X183611999Y-97370301D01*
X183612000Y-99625667D01*
X183608323Y-99662999D01*
X183612000Y-99700332D01*
X183622997Y-99811985D01*
X183635264Y-99852423D01*
X183666453Y-99955245D01*
X183737025Y-100087275D01*
X183792690Y-100155102D01*
X183831999Y-100203000D01*
X183860997Y-100226798D01*
X184004000Y-100369801D01*
X184004000Y-100431939D01*
X184043774Y-100631898D01*
X184121795Y-100820256D01*
X184235063Y-100989774D01*
X184379226Y-101133937D01*
X184548744Y-101247205D01*
X184737102Y-101325226D01*
X184937061Y-101365000D01*
X184999199Y-101365000D01*
X185676001Y-102041803D01*
X185676000Y-105976289D01*
X185632063Y-106020226D01*
X185518795Y-106189744D01*
X185440774Y-106378102D01*
X185401000Y-106578061D01*
X185401000Y-106781939D01*
X185434348Y-106949590D01*
X185370394Y-106983774D01*
X185322494Y-106944463D01*
X185212180Y-106885498D01*
X185092482Y-106849188D01*
X184968000Y-106836928D01*
X184716250Y-106840000D01*
X184557500Y-106998750D01*
X184557500Y-107823000D01*
X184577500Y-107823000D01*
X184577500Y-108077000D01*
X184557500Y-108077000D01*
X184557500Y-108901250D01*
X184716250Y-109060000D01*
X184968000Y-109063072D01*
X185092482Y-109050812D01*
X185212180Y-109014502D01*
X185322494Y-108955537D01*
X185370394Y-108916226D01*
X185520433Y-108996423D01*
X185684684Y-109046248D01*
X185855500Y-109063072D01*
X186455500Y-109063072D01*
X186626316Y-109046248D01*
X186790567Y-108996423D01*
X186941942Y-108915512D01*
X187074623Y-108806623D01*
X187183512Y-108673942D01*
X187264423Y-108522567D01*
X187314248Y-108358316D01*
X187331072Y-108187500D01*
X187331072Y-107712500D01*
X187314248Y-107541684D01*
X187264423Y-107377433D01*
X187242358Y-107336151D01*
X187353205Y-107170256D01*
X187431226Y-106981898D01*
X187471000Y-106781939D01*
X187471000Y-106578061D01*
X187431226Y-106378102D01*
X187353205Y-106189744D01*
X187239937Y-106020226D01*
X187196000Y-105976289D01*
X187196000Y-101764322D01*
X187199676Y-101726999D01*
X187196000Y-101689676D01*
X187196000Y-101689667D01*
X187185003Y-101578014D01*
X187141546Y-101434753D01*
X187070974Y-101302724D01*
X186976001Y-101186999D01*
X186947003Y-101163201D01*
X186074000Y-100290199D01*
X186074000Y-100228061D01*
X186067936Y-100197573D01*
X186250411Y-100121990D01*
X186493632Y-99959475D01*
X186700475Y-99752632D01*
X186817000Y-99578240D01*
X186933525Y-99752632D01*
X187140368Y-99959475D01*
X187383589Y-100121990D01*
X187653842Y-100233932D01*
X187940740Y-100291000D01*
X188233260Y-100291000D01*
X188520158Y-100233932D01*
X188790411Y-100121990D01*
X189033632Y-99959475D01*
X189240475Y-99752632D01*
X189357000Y-99578240D01*
X189473525Y-99752632D01*
X189680368Y-99959475D01*
X189923589Y-100121990D01*
X190193842Y-100233932D01*
X190480740Y-100291000D01*
X190773260Y-100291000D01*
X191060158Y-100233932D01*
X191330411Y-100121990D01*
X191573632Y-99959475D01*
X191780475Y-99752632D01*
X191942990Y-99509411D01*
X192054932Y-99239158D01*
X192112000Y-98952260D01*
X192112000Y-98659740D01*
X192054932Y-98372842D01*
X191942990Y-98102589D01*
X191780475Y-97859368D01*
X191648620Y-97727513D01*
X191721180Y-97705502D01*
X191831494Y-97646537D01*
X191928185Y-97567185D01*
X192007537Y-97470494D01*
X192066502Y-97360180D01*
X192102812Y-97240482D01*
X192115072Y-97116000D01*
X192115072Y-95416000D01*
X192102812Y-95291518D01*
X192066502Y-95171820D01*
X192007537Y-95061506D01*
X191928185Y-94964815D01*
X191831494Y-94885463D01*
X191721180Y-94826498D01*
X191601482Y-94790188D01*
X191477000Y-94777928D01*
X189777000Y-94777928D01*
X189652518Y-94790188D01*
X189532820Y-94826498D01*
X189422506Y-94885463D01*
X189325815Y-94964815D01*
X189246463Y-95061506D01*
X189187498Y-95171820D01*
X189165487Y-95244380D01*
X189033632Y-95112525D01*
X188790411Y-94950010D01*
X188520158Y-94838068D01*
X188233260Y-94781000D01*
X187940740Y-94781000D01*
X187653842Y-94838068D01*
X187383589Y-94950010D01*
X187140368Y-95112525D01*
X186933525Y-95319368D01*
X186817000Y-95493760D01*
X186700475Y-95319368D01*
X186493632Y-95112525D01*
X186250411Y-94950010D01*
X185980158Y-94838068D01*
X185693260Y-94781000D01*
X185400740Y-94781000D01*
X185113842Y-94838068D01*
X184843589Y-94950010D01*
X184600368Y-95112525D01*
X184393525Y-95319368D01*
X184231010Y-95562589D01*
X184149844Y-95758542D01*
X180803134Y-92411833D01*
X180801248Y-92392684D01*
X180751423Y-92228433D01*
X180670512Y-92077058D01*
X180561623Y-91944377D01*
X180428942Y-91835488D01*
X180277567Y-91754577D01*
X180113316Y-91704752D01*
X179942500Y-91687928D01*
X179583368Y-91687928D01*
X179462747Y-91623454D01*
X179319486Y-91579997D01*
X179207833Y-91569000D01*
X179207822Y-91569000D01*
X179170500Y-91565324D01*
X179138215Y-91568504D01*
X179094774Y-91525063D01*
X178925256Y-91411795D01*
X178736898Y-91333774D01*
X178536939Y-91294000D01*
X178459226Y-91294000D01*
X178456269Y-91292419D01*
X178453622Y-91290286D01*
X178390369Y-91257194D01*
X178327247Y-91223455D01*
X178323986Y-91222466D01*
X178320972Y-91220889D01*
X178252367Y-91200741D01*
X178183986Y-91179999D01*
X178180602Y-91179666D01*
X178177331Y-91178705D01*
X178106065Y-91172324D01*
X178035001Y-91165325D01*
X177994310Y-91169333D01*
X175928963Y-91187669D01*
X175895000Y-91184324D01*
X175857678Y-91188000D01*
X163285645Y-91188000D01*
X163271512Y-91161558D01*
X163162623Y-91028877D01*
X163029942Y-90919988D01*
X162878567Y-90839077D01*
X162714316Y-90789252D01*
X162543500Y-90772428D01*
X162068500Y-90772428D01*
X161897684Y-90789252D01*
X161733433Y-90839077D01*
X161582058Y-90919988D01*
X161449377Y-91028877D01*
X161340488Y-91161558D01*
X161326355Y-91188000D01*
X150786333Y-91188000D01*
X150749000Y-91184323D01*
X150711667Y-91188000D01*
X141769322Y-91188000D01*
X141731999Y-91184324D01*
X141694677Y-91188000D01*
X138086322Y-91188000D01*
X138049000Y-91184324D01*
X138011678Y-91188000D01*
X127037333Y-91188000D01*
X127000000Y-91184323D01*
X126962667Y-91188000D01*
X123026645Y-91188000D01*
X123012512Y-91161558D01*
X122903623Y-91028877D01*
X122770942Y-90919988D01*
X122619567Y-90839077D01*
X122455316Y-90789252D01*
X122284500Y-90772428D01*
X121809500Y-90772428D01*
X121638684Y-90789252D01*
X121474433Y-90839077D01*
X121323058Y-90919988D01*
X121190377Y-91028877D01*
X121081488Y-91161558D01*
X121068620Y-91185632D01*
X114230238Y-91169091D01*
X114191998Y-91165325D01*
X114118722Y-91172542D01*
X114044826Y-91179640D01*
X114043934Y-91179908D01*
X114043012Y-91179999D01*
X113972313Y-91201445D01*
X113901460Y-91222751D01*
X113900641Y-91223186D01*
X113899752Y-91223456D01*
X113834463Y-91258354D01*
X113769261Y-91293003D01*
X113768544Y-91293589D01*
X113767722Y-91294028D01*
X113710357Y-91341106D01*
X113653306Y-91387696D01*
X113628856Y-91417342D01*
X111339199Y-93707000D01*
X111277061Y-93707000D01*
X111077102Y-93746774D01*
X110888744Y-93824795D01*
X110719226Y-93938063D01*
X110575063Y-94082226D01*
X110461795Y-94251744D01*
X110383774Y-94440102D01*
X110344000Y-94640061D01*
X110344000Y-94702198D01*
X108270199Y-96776000D01*
X105510253Y-96776000D01*
X105480546Y-96678068D01*
X105409974Y-96546039D01*
X105315001Y-96430314D01*
X105286003Y-96406516D01*
X104253489Y-95374002D01*
X104229686Y-95344999D01*
X104113961Y-95250026D01*
X103981932Y-95179454D01*
X103838671Y-95135997D01*
X103727018Y-95125000D01*
X103727007Y-95125000D01*
X103689685Y-95121324D01*
X103652363Y-95125000D01*
X100367322Y-95125000D01*
X100329999Y-95121324D01*
X100292676Y-95125000D01*
X100292667Y-95125000D01*
X100181014Y-95135997D01*
X100037753Y-95179454D01*
X99905724Y-95250026D01*
X99789999Y-95344999D01*
X99766196Y-95374003D01*
X99438003Y-95702196D01*
X99408999Y-95725999D01*
X99367144Y-95777000D01*
X99314026Y-95841724D01*
X99247593Y-95966010D01*
X99243454Y-95973754D01*
X99199997Y-96117015D01*
X99189000Y-96228668D01*
X99189000Y-96228678D01*
X99185324Y-96266000D01*
X99189000Y-96303322D01*
X99189001Y-103563288D01*
X99145063Y-103607226D01*
X99031795Y-103776744D01*
X98953774Y-103965102D01*
X98914000Y-104165061D01*
X95046000Y-104165061D01*
X95046000Y-88061000D01*
X198578000Y-88061000D01*
X198578001Y-119330000D01*
M02*
