M48
; DRILL file {KiCad (5.1.5)-3} date 3/15/2021 11:50:47
; FORMAT={-:-/ absolute / inch / decimal}
; #@! TF.CreationDate,2021-03-15T11:50:47-05:00
; #@! TF.GenerationSoftware,Kicad,Pcbnew,(5.1.5)-3
FMAT,2
INCH
T1C0.0157
T2C0.0394
%
G90
G05
T1
X3.895Y-4.2
X3.935Y-4.105
X3.945Y-4.295
X4.025Y-3.84
X4.07Y-4.215
X4.125Y-3.84
X4.25Y-4.185
X4.385Y-3.73
X4.415Y-4.05
X4.42Y-4.37
X4.445Y-4.465
X4.45Y-4.11
X4.515Y-3.89
X4.655Y-4.495
X4.715Y-4.445
X4.96Y-4.625
X5.0Y-3.81
X5.0Y-4.125
X5.09Y-4.46
X5.105Y-3.76
X5.105Y-4.08
X5.28Y-4.44
X5.385Y-4.285
X5.485Y-4.45
X5.525Y-3.7
X5.525Y-3.75
X5.61Y-3.825
X5.6325Y-4.315
X5.6325Y-4.38
X5.64Y-3.75
X5.7475Y-4.32
X5.77Y-4.085
X5.875Y-4.395
X5.99Y-4.345
X6.045Y-3.67
X6.045Y-3.88
X6.11Y-4.385
X6.115Y-4.105
X6.205Y-4.015
X6.215Y-4.105
X6.22Y-4.335
X6.22Y-4.38
X6.385Y-4.265
X6.475Y-4.165
X6.475Y-4.35
X6.515Y-4.03
X6.735Y-4.055
X6.825Y-3.955
X6.91Y-4.465
X6.99Y-3.99
X7.025Y-3.635
X7.04Y-4.24
X7.045Y-3.77
X7.25Y-4.2
X7.285Y-3.95
X7.295Y-4.445
X7.34Y-4.2
X7.38Y-3.95
X7.55Y-4.24
T2
X6.68Y-3.725
X6.68Y-3.825
X6.78Y-3.725
X6.78Y-3.825
X6.88Y-3.725
X6.88Y-3.825
X6.455Y-4.415
X6.455Y-4.515
X6.455Y-4.615
X6.555Y-4.415
X6.555Y-4.515
X6.555Y-4.615
X7.305Y-3.79
X7.305Y-3.89
X7.405Y-3.79
X7.405Y-3.89
X7.505Y-3.79
X7.505Y-3.89
X6.965Y-4.565
X7.065Y-4.565
X7.165Y-4.565
X7.265Y-4.565
X7.365Y-4.565
X7.465Y-4.565
X7.565Y-4.565
X7.665Y-4.565
X5.33Y-4.26
X5.33Y-4.36
X4.575Y-3.73
X4.575Y-3.83
X4.575Y-3.93
X4.575Y-4.03
X4.675Y-3.73
X4.675Y-3.83
X4.675Y-3.93
X4.675Y-4.03
X3.9Y-4.565
X4.0Y-4.565
X4.1Y-4.565
X4.2Y-4.565
X4.3Y-4.565
X4.4Y-4.565
X5.14Y-4.565
X5.24Y-4.565
X5.34Y-4.565
X5.44Y-4.565
X5.54Y-4.565
X5.64Y-4.565
X5.74Y-4.565
X5.84Y-4.565
X5.99Y-3.725
X5.99Y-3.825
X4.575Y-4.175
X4.575Y-4.275
X4.675Y-4.175
X4.675Y-4.275
X5.62Y-4.135
X5.72Y-4.135
T0
M30
