G04 #@! TF.GenerationSoftware,KiCad,Pcbnew,(5.1.5)-3*
G04 #@! TF.CreationDate,2021-03-15T11:57:00-05:00*
G04 #@! TF.ProjectId,channel,6368616e-6e65-46c2-9e6b-696361645f70,rev?*
G04 #@! TF.SameCoordinates,Original*
G04 #@! TF.FileFunction,Legend,Bot*
G04 #@! TF.FilePolarity,Positive*
%FSLAX46Y46*%
G04 Gerber Fmt 4.6, Leading zero omitted, Abs format (unit mm)*
G04 Created by KiCad (PCBNEW (5.1.5)-3) date 2021-03-15 11:57:00*
%MOMM*%
%LPD*%
G04 APERTURE LIST*
%ADD10C,0.120000*%
%ADD11C,0.100000*%
%ADD12O,1.801600X1.801600*%
%ADD13R,1.801600X1.801600*%
G04 APERTURE END LIST*
D10*
X162816000Y-92664233D02*
X162816000Y-92956767D01*
X161796000Y-92664233D02*
X161796000Y-92956767D01*
X121537000Y-92664233D02*
X121537000Y-92956767D01*
X122557000Y-92664233D02*
X122557000Y-92956767D01*
X185439267Y-107440000D02*
X185146733Y-107440000D01*
X185439267Y-108460000D02*
X185146733Y-108460000D01*
X155682733Y-109599000D02*
X155975267Y-109599000D01*
X155682733Y-110619000D02*
X155975267Y-110619000D01*
X156444733Y-106047000D02*
X156737267Y-106047000D01*
X156444733Y-105027000D02*
X156737267Y-105027000D01*
X142347733Y-94490000D02*
X142640267Y-94490000D01*
X142347733Y-93470000D02*
X142640267Y-93470000D01*
X103651267Y-98296000D02*
X103358733Y-98296000D01*
X103651267Y-99316000D02*
X103358733Y-99316000D01*
X111635000Y-103905267D02*
X111635000Y-103612733D01*
X110615000Y-103905267D02*
X110615000Y-103612733D01*
X101365267Y-106551000D02*
X101072733Y-106551000D01*
X101365267Y-107571000D02*
X101072733Y-107571000D01*
X179195000Y-93579733D02*
X179195000Y-93872267D01*
X180215000Y-93579733D02*
X180215000Y-93872267D01*
X172358267Y-101217000D02*
X172065733Y-101217000D01*
X172358267Y-102237000D02*
X172065733Y-102237000D01*
X144252733Y-108841000D02*
X144545267Y-108841000D01*
X144252733Y-107821000D02*
X144545267Y-107821000D01*
X117748267Y-112266000D02*
X117455733Y-112266000D01*
X117748267Y-113286000D02*
X117455733Y-113286000D01*
%LPC*%
D11*
G36*
X162594669Y-93085966D02*
G01*
X162620189Y-93089752D01*
X162645216Y-93096020D01*
X162669507Y-93104712D01*
X162692830Y-93115743D01*
X162714959Y-93129007D01*
X162735682Y-93144376D01*
X162754798Y-93161702D01*
X162772124Y-93180818D01*
X162787493Y-93201541D01*
X162800757Y-93223670D01*
X162811788Y-93246993D01*
X162820480Y-93271284D01*
X162826748Y-93296311D01*
X162830534Y-93321831D01*
X162831800Y-93347600D01*
X162831800Y-93998400D01*
X162830534Y-94024169D01*
X162826748Y-94049689D01*
X162820480Y-94074716D01*
X162811788Y-94099007D01*
X162800757Y-94122330D01*
X162787493Y-94144459D01*
X162772124Y-94165182D01*
X162754798Y-94184298D01*
X162735682Y-94201624D01*
X162714959Y-94216993D01*
X162692830Y-94230257D01*
X162669507Y-94241288D01*
X162645216Y-94249980D01*
X162620189Y-94256248D01*
X162594669Y-94260034D01*
X162568900Y-94261300D01*
X162043100Y-94261300D01*
X162017331Y-94260034D01*
X161991811Y-94256248D01*
X161966784Y-94249980D01*
X161942493Y-94241288D01*
X161919170Y-94230257D01*
X161897041Y-94216993D01*
X161876318Y-94201624D01*
X161857202Y-94184298D01*
X161839876Y-94165182D01*
X161824507Y-94144459D01*
X161811243Y-94122330D01*
X161800212Y-94099007D01*
X161791520Y-94074716D01*
X161785252Y-94049689D01*
X161781466Y-94024169D01*
X161780200Y-93998400D01*
X161780200Y-93347600D01*
X161781466Y-93321831D01*
X161785252Y-93296311D01*
X161791520Y-93271284D01*
X161800212Y-93246993D01*
X161811243Y-93223670D01*
X161824507Y-93201541D01*
X161839876Y-93180818D01*
X161857202Y-93161702D01*
X161876318Y-93144376D01*
X161897041Y-93129007D01*
X161919170Y-93115743D01*
X161942493Y-93104712D01*
X161966784Y-93096020D01*
X161991811Y-93089752D01*
X162017331Y-93085966D01*
X162043100Y-93084700D01*
X162568900Y-93084700D01*
X162594669Y-93085966D01*
G37*
G36*
X162594669Y-91360966D02*
G01*
X162620189Y-91364752D01*
X162645216Y-91371020D01*
X162669507Y-91379712D01*
X162692830Y-91390743D01*
X162714959Y-91404007D01*
X162735682Y-91419376D01*
X162754798Y-91436702D01*
X162772124Y-91455818D01*
X162787493Y-91476541D01*
X162800757Y-91498670D01*
X162811788Y-91521993D01*
X162820480Y-91546284D01*
X162826748Y-91571311D01*
X162830534Y-91596831D01*
X162831800Y-91622600D01*
X162831800Y-92273400D01*
X162830534Y-92299169D01*
X162826748Y-92324689D01*
X162820480Y-92349716D01*
X162811788Y-92374007D01*
X162800757Y-92397330D01*
X162787493Y-92419459D01*
X162772124Y-92440182D01*
X162754798Y-92459298D01*
X162735682Y-92476624D01*
X162714959Y-92491993D01*
X162692830Y-92505257D01*
X162669507Y-92516288D01*
X162645216Y-92524980D01*
X162620189Y-92531248D01*
X162594669Y-92535034D01*
X162568900Y-92536300D01*
X162043100Y-92536300D01*
X162017331Y-92535034D01*
X161991811Y-92531248D01*
X161966784Y-92524980D01*
X161942493Y-92516288D01*
X161919170Y-92505257D01*
X161897041Y-92491993D01*
X161876318Y-92476624D01*
X161857202Y-92459298D01*
X161839876Y-92440182D01*
X161824507Y-92419459D01*
X161811243Y-92397330D01*
X161800212Y-92374007D01*
X161791520Y-92349716D01*
X161785252Y-92324689D01*
X161781466Y-92299169D01*
X161780200Y-92273400D01*
X161780200Y-91622600D01*
X161781466Y-91596831D01*
X161785252Y-91571311D01*
X161791520Y-91546284D01*
X161800212Y-91521993D01*
X161811243Y-91498670D01*
X161824507Y-91476541D01*
X161839876Y-91455818D01*
X161857202Y-91436702D01*
X161876318Y-91419376D01*
X161897041Y-91404007D01*
X161919170Y-91390743D01*
X161942493Y-91379712D01*
X161966784Y-91371020D01*
X161991811Y-91364752D01*
X162017331Y-91360966D01*
X162043100Y-91359700D01*
X162568900Y-91359700D01*
X162594669Y-91360966D01*
G37*
D12*
X118745000Y-102362000D03*
X116205000Y-102362000D03*
X118745000Y-99822000D03*
X116205000Y-99822000D03*
X118745000Y-97282000D03*
X116205000Y-97282000D03*
X118745000Y-94742000D03*
D13*
X116205000Y-94742000D03*
D12*
X99060000Y-115951000D03*
X101600000Y-115951000D03*
X104140000Y-115951000D03*
X106680000Y-115951000D03*
X109220000Y-115951000D03*
D13*
X111760000Y-115951000D03*
D12*
X130556000Y-115951000D03*
X133096000Y-115951000D03*
X135636000Y-115951000D03*
X138176000Y-115951000D03*
X140716000Y-115951000D03*
X143256000Y-115951000D03*
X145796000Y-115951000D03*
D13*
X148336000Y-115951000D03*
X190627000Y-96266000D03*
D12*
X190627000Y-98806000D03*
X188087000Y-96266000D03*
X188087000Y-98806000D03*
X185547000Y-96266000D03*
X185547000Y-98806000D03*
D13*
X174752000Y-94615000D03*
D12*
X174752000Y-97155000D03*
X172212000Y-94615000D03*
X172212000Y-97155000D03*
X169672000Y-94615000D03*
X169672000Y-97155000D03*
D13*
X163957000Y-112141000D03*
D12*
X166497000Y-112141000D03*
X163957000Y-114681000D03*
X166497000Y-114681000D03*
X163957000Y-117221000D03*
X166497000Y-117221000D03*
X145288000Y-105029000D03*
D13*
X142748000Y-105029000D03*
D12*
X176911000Y-115951000D03*
X179451000Y-115951000D03*
X181991000Y-115951000D03*
X184531000Y-115951000D03*
X187071000Y-115951000D03*
X189611000Y-115951000D03*
X192151000Y-115951000D03*
D13*
X194691000Y-115951000D03*
X152146000Y-94615000D03*
D12*
X152146000Y-97155000D03*
D11*
G36*
X122335669Y-93085966D02*
G01*
X122361189Y-93089752D01*
X122386216Y-93096020D01*
X122410507Y-93104712D01*
X122433830Y-93115743D01*
X122455959Y-93129007D01*
X122476682Y-93144376D01*
X122495798Y-93161702D01*
X122513124Y-93180818D01*
X122528493Y-93201541D01*
X122541757Y-93223670D01*
X122552788Y-93246993D01*
X122561480Y-93271284D01*
X122567748Y-93296311D01*
X122571534Y-93321831D01*
X122572800Y-93347600D01*
X122572800Y-93998400D01*
X122571534Y-94024169D01*
X122567748Y-94049689D01*
X122561480Y-94074716D01*
X122552788Y-94099007D01*
X122541757Y-94122330D01*
X122528493Y-94144459D01*
X122513124Y-94165182D01*
X122495798Y-94184298D01*
X122476682Y-94201624D01*
X122455959Y-94216993D01*
X122433830Y-94230257D01*
X122410507Y-94241288D01*
X122386216Y-94249980D01*
X122361189Y-94256248D01*
X122335669Y-94260034D01*
X122309900Y-94261300D01*
X121784100Y-94261300D01*
X121758331Y-94260034D01*
X121732811Y-94256248D01*
X121707784Y-94249980D01*
X121683493Y-94241288D01*
X121660170Y-94230257D01*
X121638041Y-94216993D01*
X121617318Y-94201624D01*
X121598202Y-94184298D01*
X121580876Y-94165182D01*
X121565507Y-94144459D01*
X121552243Y-94122330D01*
X121541212Y-94099007D01*
X121532520Y-94074716D01*
X121526252Y-94049689D01*
X121522466Y-94024169D01*
X121521200Y-93998400D01*
X121521200Y-93347600D01*
X121522466Y-93321831D01*
X121526252Y-93296311D01*
X121532520Y-93271284D01*
X121541212Y-93246993D01*
X121552243Y-93223670D01*
X121565507Y-93201541D01*
X121580876Y-93180818D01*
X121598202Y-93161702D01*
X121617318Y-93144376D01*
X121638041Y-93129007D01*
X121660170Y-93115743D01*
X121683493Y-93104712D01*
X121707784Y-93096020D01*
X121732811Y-93089752D01*
X121758331Y-93085966D01*
X121784100Y-93084700D01*
X122309900Y-93084700D01*
X122335669Y-93085966D01*
G37*
G36*
X122335669Y-91360966D02*
G01*
X122361189Y-91364752D01*
X122386216Y-91371020D01*
X122410507Y-91379712D01*
X122433830Y-91390743D01*
X122455959Y-91404007D01*
X122476682Y-91419376D01*
X122495798Y-91436702D01*
X122513124Y-91455818D01*
X122528493Y-91476541D01*
X122541757Y-91498670D01*
X122552788Y-91521993D01*
X122561480Y-91546284D01*
X122567748Y-91571311D01*
X122571534Y-91596831D01*
X122572800Y-91622600D01*
X122572800Y-92273400D01*
X122571534Y-92299169D01*
X122567748Y-92324689D01*
X122561480Y-92349716D01*
X122552788Y-92374007D01*
X122541757Y-92397330D01*
X122528493Y-92419459D01*
X122513124Y-92440182D01*
X122495798Y-92459298D01*
X122476682Y-92476624D01*
X122455959Y-92491993D01*
X122433830Y-92505257D01*
X122410507Y-92516288D01*
X122386216Y-92524980D01*
X122361189Y-92531248D01*
X122335669Y-92535034D01*
X122309900Y-92536300D01*
X121784100Y-92536300D01*
X121758331Y-92535034D01*
X121732811Y-92531248D01*
X121707784Y-92524980D01*
X121683493Y-92516288D01*
X121660170Y-92505257D01*
X121638041Y-92491993D01*
X121617318Y-92476624D01*
X121598202Y-92459298D01*
X121580876Y-92440182D01*
X121565507Y-92419459D01*
X121552243Y-92397330D01*
X121541212Y-92374007D01*
X121532520Y-92349716D01*
X121526252Y-92324689D01*
X121522466Y-92299169D01*
X121521200Y-92273400D01*
X121521200Y-91622600D01*
X121522466Y-91596831D01*
X121526252Y-91571311D01*
X121532520Y-91546284D01*
X121541212Y-91521993D01*
X121552243Y-91498670D01*
X121565507Y-91476541D01*
X121580876Y-91455818D01*
X121598202Y-91436702D01*
X121617318Y-91419376D01*
X121638041Y-91404007D01*
X121660170Y-91390743D01*
X121683493Y-91379712D01*
X121707784Y-91371020D01*
X121732811Y-91364752D01*
X121758331Y-91360966D01*
X121784100Y-91359700D01*
X122309900Y-91359700D01*
X122335669Y-91360966D01*
G37*
D12*
X116205000Y-106045000D03*
X118745000Y-106045000D03*
X116205000Y-108585000D03*
D13*
X118745000Y-108585000D03*
X135382000Y-110744000D03*
D12*
X135382000Y-108204000D03*
D11*
G36*
X184781669Y-107425466D02*
G01*
X184807189Y-107429252D01*
X184832216Y-107435520D01*
X184856507Y-107444212D01*
X184879830Y-107455243D01*
X184901959Y-107468507D01*
X184922682Y-107483876D01*
X184941798Y-107501202D01*
X184959124Y-107520318D01*
X184974493Y-107541041D01*
X184987757Y-107563170D01*
X184998788Y-107586493D01*
X185007480Y-107610784D01*
X185013748Y-107635811D01*
X185017534Y-107661331D01*
X185018800Y-107687100D01*
X185018800Y-108212900D01*
X185017534Y-108238669D01*
X185013748Y-108264189D01*
X185007480Y-108289216D01*
X184998788Y-108313507D01*
X184987757Y-108336830D01*
X184974493Y-108358959D01*
X184959124Y-108379682D01*
X184941798Y-108398798D01*
X184922682Y-108416124D01*
X184901959Y-108431493D01*
X184879830Y-108444757D01*
X184856507Y-108455788D01*
X184832216Y-108464480D01*
X184807189Y-108470748D01*
X184781669Y-108474534D01*
X184755900Y-108475800D01*
X184105100Y-108475800D01*
X184079331Y-108474534D01*
X184053811Y-108470748D01*
X184028784Y-108464480D01*
X184004493Y-108455788D01*
X183981170Y-108444757D01*
X183959041Y-108431493D01*
X183938318Y-108416124D01*
X183919202Y-108398798D01*
X183901876Y-108379682D01*
X183886507Y-108358959D01*
X183873243Y-108336830D01*
X183862212Y-108313507D01*
X183853520Y-108289216D01*
X183847252Y-108264189D01*
X183843466Y-108238669D01*
X183842200Y-108212900D01*
X183842200Y-107687100D01*
X183843466Y-107661331D01*
X183847252Y-107635811D01*
X183853520Y-107610784D01*
X183862212Y-107586493D01*
X183873243Y-107563170D01*
X183886507Y-107541041D01*
X183901876Y-107520318D01*
X183919202Y-107501202D01*
X183938318Y-107483876D01*
X183959041Y-107468507D01*
X183981170Y-107455243D01*
X184004493Y-107444212D01*
X184028784Y-107435520D01*
X184053811Y-107429252D01*
X184079331Y-107425466D01*
X184105100Y-107424200D01*
X184755900Y-107424200D01*
X184781669Y-107425466D01*
G37*
G36*
X186506669Y-107425466D02*
G01*
X186532189Y-107429252D01*
X186557216Y-107435520D01*
X186581507Y-107444212D01*
X186604830Y-107455243D01*
X186626959Y-107468507D01*
X186647682Y-107483876D01*
X186666798Y-107501202D01*
X186684124Y-107520318D01*
X186699493Y-107541041D01*
X186712757Y-107563170D01*
X186723788Y-107586493D01*
X186732480Y-107610784D01*
X186738748Y-107635811D01*
X186742534Y-107661331D01*
X186743800Y-107687100D01*
X186743800Y-108212900D01*
X186742534Y-108238669D01*
X186738748Y-108264189D01*
X186732480Y-108289216D01*
X186723788Y-108313507D01*
X186712757Y-108336830D01*
X186699493Y-108358959D01*
X186684124Y-108379682D01*
X186666798Y-108398798D01*
X186647682Y-108416124D01*
X186626959Y-108431493D01*
X186604830Y-108444757D01*
X186581507Y-108455788D01*
X186557216Y-108464480D01*
X186532189Y-108470748D01*
X186506669Y-108474534D01*
X186480900Y-108475800D01*
X185830100Y-108475800D01*
X185804331Y-108474534D01*
X185778811Y-108470748D01*
X185753784Y-108464480D01*
X185729493Y-108455788D01*
X185706170Y-108444757D01*
X185684041Y-108431493D01*
X185663318Y-108416124D01*
X185644202Y-108398798D01*
X185626876Y-108379682D01*
X185611507Y-108358959D01*
X185598243Y-108336830D01*
X185587212Y-108313507D01*
X185578520Y-108289216D01*
X185572252Y-108264189D01*
X185568466Y-108238669D01*
X185567200Y-108212900D01*
X185567200Y-107687100D01*
X185568466Y-107661331D01*
X185572252Y-107635811D01*
X185578520Y-107610784D01*
X185587212Y-107586493D01*
X185598243Y-107563170D01*
X185611507Y-107541041D01*
X185626876Y-107520318D01*
X185644202Y-107501202D01*
X185663318Y-107483876D01*
X185684041Y-107468507D01*
X185706170Y-107455243D01*
X185729493Y-107444212D01*
X185753784Y-107435520D01*
X185778811Y-107429252D01*
X185804331Y-107425466D01*
X185830100Y-107424200D01*
X186480900Y-107424200D01*
X186506669Y-107425466D01*
G37*
G36*
X155317669Y-109584466D02*
G01*
X155343189Y-109588252D01*
X155368216Y-109594520D01*
X155392507Y-109603212D01*
X155415830Y-109614243D01*
X155437959Y-109627507D01*
X155458682Y-109642876D01*
X155477798Y-109660202D01*
X155495124Y-109679318D01*
X155510493Y-109700041D01*
X155523757Y-109722170D01*
X155534788Y-109745493D01*
X155543480Y-109769784D01*
X155549748Y-109794811D01*
X155553534Y-109820331D01*
X155554800Y-109846100D01*
X155554800Y-110371900D01*
X155553534Y-110397669D01*
X155549748Y-110423189D01*
X155543480Y-110448216D01*
X155534788Y-110472507D01*
X155523757Y-110495830D01*
X155510493Y-110517959D01*
X155495124Y-110538682D01*
X155477798Y-110557798D01*
X155458682Y-110575124D01*
X155437959Y-110590493D01*
X155415830Y-110603757D01*
X155392507Y-110614788D01*
X155368216Y-110623480D01*
X155343189Y-110629748D01*
X155317669Y-110633534D01*
X155291900Y-110634800D01*
X154641100Y-110634800D01*
X154615331Y-110633534D01*
X154589811Y-110629748D01*
X154564784Y-110623480D01*
X154540493Y-110614788D01*
X154517170Y-110603757D01*
X154495041Y-110590493D01*
X154474318Y-110575124D01*
X154455202Y-110557798D01*
X154437876Y-110538682D01*
X154422507Y-110517959D01*
X154409243Y-110495830D01*
X154398212Y-110472507D01*
X154389520Y-110448216D01*
X154383252Y-110423189D01*
X154379466Y-110397669D01*
X154378200Y-110371900D01*
X154378200Y-109846100D01*
X154379466Y-109820331D01*
X154383252Y-109794811D01*
X154389520Y-109769784D01*
X154398212Y-109745493D01*
X154409243Y-109722170D01*
X154422507Y-109700041D01*
X154437876Y-109679318D01*
X154455202Y-109660202D01*
X154474318Y-109642876D01*
X154495041Y-109627507D01*
X154517170Y-109614243D01*
X154540493Y-109603212D01*
X154564784Y-109594520D01*
X154589811Y-109588252D01*
X154615331Y-109584466D01*
X154641100Y-109583200D01*
X155291900Y-109583200D01*
X155317669Y-109584466D01*
G37*
G36*
X157042669Y-109584466D02*
G01*
X157068189Y-109588252D01*
X157093216Y-109594520D01*
X157117507Y-109603212D01*
X157140830Y-109614243D01*
X157162959Y-109627507D01*
X157183682Y-109642876D01*
X157202798Y-109660202D01*
X157220124Y-109679318D01*
X157235493Y-109700041D01*
X157248757Y-109722170D01*
X157259788Y-109745493D01*
X157268480Y-109769784D01*
X157274748Y-109794811D01*
X157278534Y-109820331D01*
X157279800Y-109846100D01*
X157279800Y-110371900D01*
X157278534Y-110397669D01*
X157274748Y-110423189D01*
X157268480Y-110448216D01*
X157259788Y-110472507D01*
X157248757Y-110495830D01*
X157235493Y-110517959D01*
X157220124Y-110538682D01*
X157202798Y-110557798D01*
X157183682Y-110575124D01*
X157162959Y-110590493D01*
X157140830Y-110603757D01*
X157117507Y-110614788D01*
X157093216Y-110623480D01*
X157068189Y-110629748D01*
X157042669Y-110633534D01*
X157016900Y-110634800D01*
X156366100Y-110634800D01*
X156340331Y-110633534D01*
X156314811Y-110629748D01*
X156289784Y-110623480D01*
X156265493Y-110614788D01*
X156242170Y-110603757D01*
X156220041Y-110590493D01*
X156199318Y-110575124D01*
X156180202Y-110557798D01*
X156162876Y-110538682D01*
X156147507Y-110517959D01*
X156134243Y-110495830D01*
X156123212Y-110472507D01*
X156114520Y-110448216D01*
X156108252Y-110423189D01*
X156104466Y-110397669D01*
X156103200Y-110371900D01*
X156103200Y-109846100D01*
X156104466Y-109820331D01*
X156108252Y-109794811D01*
X156114520Y-109769784D01*
X156123212Y-109745493D01*
X156134243Y-109722170D01*
X156147507Y-109700041D01*
X156162876Y-109679318D01*
X156180202Y-109660202D01*
X156199318Y-109642876D01*
X156220041Y-109627507D01*
X156242170Y-109614243D01*
X156265493Y-109603212D01*
X156289784Y-109594520D01*
X156314811Y-109588252D01*
X156340331Y-109584466D01*
X156366100Y-109583200D01*
X157016900Y-109583200D01*
X157042669Y-109584466D01*
G37*
G36*
X157804669Y-105012466D02*
G01*
X157830189Y-105016252D01*
X157855216Y-105022520D01*
X157879507Y-105031212D01*
X157902830Y-105042243D01*
X157924959Y-105055507D01*
X157945682Y-105070876D01*
X157964798Y-105088202D01*
X157982124Y-105107318D01*
X157997493Y-105128041D01*
X158010757Y-105150170D01*
X158021788Y-105173493D01*
X158030480Y-105197784D01*
X158036748Y-105222811D01*
X158040534Y-105248331D01*
X158041800Y-105274100D01*
X158041800Y-105799900D01*
X158040534Y-105825669D01*
X158036748Y-105851189D01*
X158030480Y-105876216D01*
X158021788Y-105900507D01*
X158010757Y-105923830D01*
X157997493Y-105945959D01*
X157982124Y-105966682D01*
X157964798Y-105985798D01*
X157945682Y-106003124D01*
X157924959Y-106018493D01*
X157902830Y-106031757D01*
X157879507Y-106042788D01*
X157855216Y-106051480D01*
X157830189Y-106057748D01*
X157804669Y-106061534D01*
X157778900Y-106062800D01*
X157128100Y-106062800D01*
X157102331Y-106061534D01*
X157076811Y-106057748D01*
X157051784Y-106051480D01*
X157027493Y-106042788D01*
X157004170Y-106031757D01*
X156982041Y-106018493D01*
X156961318Y-106003124D01*
X156942202Y-105985798D01*
X156924876Y-105966682D01*
X156909507Y-105945959D01*
X156896243Y-105923830D01*
X156885212Y-105900507D01*
X156876520Y-105876216D01*
X156870252Y-105851189D01*
X156866466Y-105825669D01*
X156865200Y-105799900D01*
X156865200Y-105274100D01*
X156866466Y-105248331D01*
X156870252Y-105222811D01*
X156876520Y-105197784D01*
X156885212Y-105173493D01*
X156896243Y-105150170D01*
X156909507Y-105128041D01*
X156924876Y-105107318D01*
X156942202Y-105088202D01*
X156961318Y-105070876D01*
X156982041Y-105055507D01*
X157004170Y-105042243D01*
X157027493Y-105031212D01*
X157051784Y-105022520D01*
X157076811Y-105016252D01*
X157102331Y-105012466D01*
X157128100Y-105011200D01*
X157778900Y-105011200D01*
X157804669Y-105012466D01*
G37*
G36*
X156079669Y-105012466D02*
G01*
X156105189Y-105016252D01*
X156130216Y-105022520D01*
X156154507Y-105031212D01*
X156177830Y-105042243D01*
X156199959Y-105055507D01*
X156220682Y-105070876D01*
X156239798Y-105088202D01*
X156257124Y-105107318D01*
X156272493Y-105128041D01*
X156285757Y-105150170D01*
X156296788Y-105173493D01*
X156305480Y-105197784D01*
X156311748Y-105222811D01*
X156315534Y-105248331D01*
X156316800Y-105274100D01*
X156316800Y-105799900D01*
X156315534Y-105825669D01*
X156311748Y-105851189D01*
X156305480Y-105876216D01*
X156296788Y-105900507D01*
X156285757Y-105923830D01*
X156272493Y-105945959D01*
X156257124Y-105966682D01*
X156239798Y-105985798D01*
X156220682Y-106003124D01*
X156199959Y-106018493D01*
X156177830Y-106031757D01*
X156154507Y-106042788D01*
X156130216Y-106051480D01*
X156105189Y-106057748D01*
X156079669Y-106061534D01*
X156053900Y-106062800D01*
X155403100Y-106062800D01*
X155377331Y-106061534D01*
X155351811Y-106057748D01*
X155326784Y-106051480D01*
X155302493Y-106042788D01*
X155279170Y-106031757D01*
X155257041Y-106018493D01*
X155236318Y-106003124D01*
X155217202Y-105985798D01*
X155199876Y-105966682D01*
X155184507Y-105945959D01*
X155171243Y-105923830D01*
X155160212Y-105900507D01*
X155151520Y-105876216D01*
X155145252Y-105851189D01*
X155141466Y-105825669D01*
X155140200Y-105799900D01*
X155140200Y-105274100D01*
X155141466Y-105248331D01*
X155145252Y-105222811D01*
X155151520Y-105197784D01*
X155160212Y-105173493D01*
X155171243Y-105150170D01*
X155184507Y-105128041D01*
X155199876Y-105107318D01*
X155217202Y-105088202D01*
X155236318Y-105070876D01*
X155257041Y-105055507D01*
X155279170Y-105042243D01*
X155302493Y-105031212D01*
X155326784Y-105022520D01*
X155351811Y-105016252D01*
X155377331Y-105012466D01*
X155403100Y-105011200D01*
X156053900Y-105011200D01*
X156079669Y-105012466D01*
G37*
G36*
X143707669Y-93455466D02*
G01*
X143733189Y-93459252D01*
X143758216Y-93465520D01*
X143782507Y-93474212D01*
X143805830Y-93485243D01*
X143827959Y-93498507D01*
X143848682Y-93513876D01*
X143867798Y-93531202D01*
X143885124Y-93550318D01*
X143900493Y-93571041D01*
X143913757Y-93593170D01*
X143924788Y-93616493D01*
X143933480Y-93640784D01*
X143939748Y-93665811D01*
X143943534Y-93691331D01*
X143944800Y-93717100D01*
X143944800Y-94242900D01*
X143943534Y-94268669D01*
X143939748Y-94294189D01*
X143933480Y-94319216D01*
X143924788Y-94343507D01*
X143913757Y-94366830D01*
X143900493Y-94388959D01*
X143885124Y-94409682D01*
X143867798Y-94428798D01*
X143848682Y-94446124D01*
X143827959Y-94461493D01*
X143805830Y-94474757D01*
X143782507Y-94485788D01*
X143758216Y-94494480D01*
X143733189Y-94500748D01*
X143707669Y-94504534D01*
X143681900Y-94505800D01*
X143031100Y-94505800D01*
X143005331Y-94504534D01*
X142979811Y-94500748D01*
X142954784Y-94494480D01*
X142930493Y-94485788D01*
X142907170Y-94474757D01*
X142885041Y-94461493D01*
X142864318Y-94446124D01*
X142845202Y-94428798D01*
X142827876Y-94409682D01*
X142812507Y-94388959D01*
X142799243Y-94366830D01*
X142788212Y-94343507D01*
X142779520Y-94319216D01*
X142773252Y-94294189D01*
X142769466Y-94268669D01*
X142768200Y-94242900D01*
X142768200Y-93717100D01*
X142769466Y-93691331D01*
X142773252Y-93665811D01*
X142779520Y-93640784D01*
X142788212Y-93616493D01*
X142799243Y-93593170D01*
X142812507Y-93571041D01*
X142827876Y-93550318D01*
X142845202Y-93531202D01*
X142864318Y-93513876D01*
X142885041Y-93498507D01*
X142907170Y-93485243D01*
X142930493Y-93474212D01*
X142954784Y-93465520D01*
X142979811Y-93459252D01*
X143005331Y-93455466D01*
X143031100Y-93454200D01*
X143681900Y-93454200D01*
X143707669Y-93455466D01*
G37*
G36*
X141982669Y-93455466D02*
G01*
X142008189Y-93459252D01*
X142033216Y-93465520D01*
X142057507Y-93474212D01*
X142080830Y-93485243D01*
X142102959Y-93498507D01*
X142123682Y-93513876D01*
X142142798Y-93531202D01*
X142160124Y-93550318D01*
X142175493Y-93571041D01*
X142188757Y-93593170D01*
X142199788Y-93616493D01*
X142208480Y-93640784D01*
X142214748Y-93665811D01*
X142218534Y-93691331D01*
X142219800Y-93717100D01*
X142219800Y-94242900D01*
X142218534Y-94268669D01*
X142214748Y-94294189D01*
X142208480Y-94319216D01*
X142199788Y-94343507D01*
X142188757Y-94366830D01*
X142175493Y-94388959D01*
X142160124Y-94409682D01*
X142142798Y-94428798D01*
X142123682Y-94446124D01*
X142102959Y-94461493D01*
X142080830Y-94474757D01*
X142057507Y-94485788D01*
X142033216Y-94494480D01*
X142008189Y-94500748D01*
X141982669Y-94504534D01*
X141956900Y-94505800D01*
X141306100Y-94505800D01*
X141280331Y-94504534D01*
X141254811Y-94500748D01*
X141229784Y-94494480D01*
X141205493Y-94485788D01*
X141182170Y-94474757D01*
X141160041Y-94461493D01*
X141139318Y-94446124D01*
X141120202Y-94428798D01*
X141102876Y-94409682D01*
X141087507Y-94388959D01*
X141074243Y-94366830D01*
X141063212Y-94343507D01*
X141054520Y-94319216D01*
X141048252Y-94294189D01*
X141044466Y-94268669D01*
X141043200Y-94242900D01*
X141043200Y-93717100D01*
X141044466Y-93691331D01*
X141048252Y-93665811D01*
X141054520Y-93640784D01*
X141063212Y-93616493D01*
X141074243Y-93593170D01*
X141087507Y-93571041D01*
X141102876Y-93550318D01*
X141120202Y-93531202D01*
X141139318Y-93513876D01*
X141160041Y-93498507D01*
X141182170Y-93485243D01*
X141205493Y-93474212D01*
X141229784Y-93465520D01*
X141254811Y-93459252D01*
X141280331Y-93455466D01*
X141306100Y-93454200D01*
X141956900Y-93454200D01*
X141982669Y-93455466D01*
G37*
G36*
X102993669Y-98281466D02*
G01*
X103019189Y-98285252D01*
X103044216Y-98291520D01*
X103068507Y-98300212D01*
X103091830Y-98311243D01*
X103113959Y-98324507D01*
X103134682Y-98339876D01*
X103153798Y-98357202D01*
X103171124Y-98376318D01*
X103186493Y-98397041D01*
X103199757Y-98419170D01*
X103210788Y-98442493D01*
X103219480Y-98466784D01*
X103225748Y-98491811D01*
X103229534Y-98517331D01*
X103230800Y-98543100D01*
X103230800Y-99068900D01*
X103229534Y-99094669D01*
X103225748Y-99120189D01*
X103219480Y-99145216D01*
X103210788Y-99169507D01*
X103199757Y-99192830D01*
X103186493Y-99214959D01*
X103171124Y-99235682D01*
X103153798Y-99254798D01*
X103134682Y-99272124D01*
X103113959Y-99287493D01*
X103091830Y-99300757D01*
X103068507Y-99311788D01*
X103044216Y-99320480D01*
X103019189Y-99326748D01*
X102993669Y-99330534D01*
X102967900Y-99331800D01*
X102317100Y-99331800D01*
X102291331Y-99330534D01*
X102265811Y-99326748D01*
X102240784Y-99320480D01*
X102216493Y-99311788D01*
X102193170Y-99300757D01*
X102171041Y-99287493D01*
X102150318Y-99272124D01*
X102131202Y-99254798D01*
X102113876Y-99235682D01*
X102098507Y-99214959D01*
X102085243Y-99192830D01*
X102074212Y-99169507D01*
X102065520Y-99145216D01*
X102059252Y-99120189D01*
X102055466Y-99094669D01*
X102054200Y-99068900D01*
X102054200Y-98543100D01*
X102055466Y-98517331D01*
X102059252Y-98491811D01*
X102065520Y-98466784D01*
X102074212Y-98442493D01*
X102085243Y-98419170D01*
X102098507Y-98397041D01*
X102113876Y-98376318D01*
X102131202Y-98357202D01*
X102150318Y-98339876D01*
X102171041Y-98324507D01*
X102193170Y-98311243D01*
X102216493Y-98300212D01*
X102240784Y-98291520D01*
X102265811Y-98285252D01*
X102291331Y-98281466D01*
X102317100Y-98280200D01*
X102967900Y-98280200D01*
X102993669Y-98281466D01*
G37*
G36*
X104718669Y-98281466D02*
G01*
X104744189Y-98285252D01*
X104769216Y-98291520D01*
X104793507Y-98300212D01*
X104816830Y-98311243D01*
X104838959Y-98324507D01*
X104859682Y-98339876D01*
X104878798Y-98357202D01*
X104896124Y-98376318D01*
X104911493Y-98397041D01*
X104924757Y-98419170D01*
X104935788Y-98442493D01*
X104944480Y-98466784D01*
X104950748Y-98491811D01*
X104954534Y-98517331D01*
X104955800Y-98543100D01*
X104955800Y-99068900D01*
X104954534Y-99094669D01*
X104950748Y-99120189D01*
X104944480Y-99145216D01*
X104935788Y-99169507D01*
X104924757Y-99192830D01*
X104911493Y-99214959D01*
X104896124Y-99235682D01*
X104878798Y-99254798D01*
X104859682Y-99272124D01*
X104838959Y-99287493D01*
X104816830Y-99300757D01*
X104793507Y-99311788D01*
X104769216Y-99320480D01*
X104744189Y-99326748D01*
X104718669Y-99330534D01*
X104692900Y-99331800D01*
X104042100Y-99331800D01*
X104016331Y-99330534D01*
X103990811Y-99326748D01*
X103965784Y-99320480D01*
X103941493Y-99311788D01*
X103918170Y-99300757D01*
X103896041Y-99287493D01*
X103875318Y-99272124D01*
X103856202Y-99254798D01*
X103838876Y-99235682D01*
X103823507Y-99214959D01*
X103810243Y-99192830D01*
X103799212Y-99169507D01*
X103790520Y-99145216D01*
X103784252Y-99120189D01*
X103780466Y-99094669D01*
X103779200Y-99068900D01*
X103779200Y-98543100D01*
X103780466Y-98517331D01*
X103784252Y-98491811D01*
X103790520Y-98466784D01*
X103799212Y-98442493D01*
X103810243Y-98419170D01*
X103823507Y-98397041D01*
X103838876Y-98376318D01*
X103856202Y-98357202D01*
X103875318Y-98339876D01*
X103896041Y-98324507D01*
X103918170Y-98311243D01*
X103941493Y-98300212D01*
X103965784Y-98291520D01*
X103990811Y-98285252D01*
X104016331Y-98281466D01*
X104042100Y-98280200D01*
X104692900Y-98280200D01*
X104718669Y-98281466D01*
G37*
G36*
X111413669Y-102309466D02*
G01*
X111439189Y-102313252D01*
X111464216Y-102319520D01*
X111488507Y-102328212D01*
X111511830Y-102339243D01*
X111533959Y-102352507D01*
X111554682Y-102367876D01*
X111573798Y-102385202D01*
X111591124Y-102404318D01*
X111606493Y-102425041D01*
X111619757Y-102447170D01*
X111630788Y-102470493D01*
X111639480Y-102494784D01*
X111645748Y-102519811D01*
X111649534Y-102545331D01*
X111650800Y-102571100D01*
X111650800Y-103221900D01*
X111649534Y-103247669D01*
X111645748Y-103273189D01*
X111639480Y-103298216D01*
X111630788Y-103322507D01*
X111619757Y-103345830D01*
X111606493Y-103367959D01*
X111591124Y-103388682D01*
X111573798Y-103407798D01*
X111554682Y-103425124D01*
X111533959Y-103440493D01*
X111511830Y-103453757D01*
X111488507Y-103464788D01*
X111464216Y-103473480D01*
X111439189Y-103479748D01*
X111413669Y-103483534D01*
X111387900Y-103484800D01*
X110862100Y-103484800D01*
X110836331Y-103483534D01*
X110810811Y-103479748D01*
X110785784Y-103473480D01*
X110761493Y-103464788D01*
X110738170Y-103453757D01*
X110716041Y-103440493D01*
X110695318Y-103425124D01*
X110676202Y-103407798D01*
X110658876Y-103388682D01*
X110643507Y-103367959D01*
X110630243Y-103345830D01*
X110619212Y-103322507D01*
X110610520Y-103298216D01*
X110604252Y-103273189D01*
X110600466Y-103247669D01*
X110599200Y-103221900D01*
X110599200Y-102571100D01*
X110600466Y-102545331D01*
X110604252Y-102519811D01*
X110610520Y-102494784D01*
X110619212Y-102470493D01*
X110630243Y-102447170D01*
X110643507Y-102425041D01*
X110658876Y-102404318D01*
X110676202Y-102385202D01*
X110695318Y-102367876D01*
X110716041Y-102352507D01*
X110738170Y-102339243D01*
X110761493Y-102328212D01*
X110785784Y-102319520D01*
X110810811Y-102313252D01*
X110836331Y-102309466D01*
X110862100Y-102308200D01*
X111387900Y-102308200D01*
X111413669Y-102309466D01*
G37*
G36*
X111413669Y-104034466D02*
G01*
X111439189Y-104038252D01*
X111464216Y-104044520D01*
X111488507Y-104053212D01*
X111511830Y-104064243D01*
X111533959Y-104077507D01*
X111554682Y-104092876D01*
X111573798Y-104110202D01*
X111591124Y-104129318D01*
X111606493Y-104150041D01*
X111619757Y-104172170D01*
X111630788Y-104195493D01*
X111639480Y-104219784D01*
X111645748Y-104244811D01*
X111649534Y-104270331D01*
X111650800Y-104296100D01*
X111650800Y-104946900D01*
X111649534Y-104972669D01*
X111645748Y-104998189D01*
X111639480Y-105023216D01*
X111630788Y-105047507D01*
X111619757Y-105070830D01*
X111606493Y-105092959D01*
X111591124Y-105113682D01*
X111573798Y-105132798D01*
X111554682Y-105150124D01*
X111533959Y-105165493D01*
X111511830Y-105178757D01*
X111488507Y-105189788D01*
X111464216Y-105198480D01*
X111439189Y-105204748D01*
X111413669Y-105208534D01*
X111387900Y-105209800D01*
X110862100Y-105209800D01*
X110836331Y-105208534D01*
X110810811Y-105204748D01*
X110785784Y-105198480D01*
X110761493Y-105189788D01*
X110738170Y-105178757D01*
X110716041Y-105165493D01*
X110695318Y-105150124D01*
X110676202Y-105132798D01*
X110658876Y-105113682D01*
X110643507Y-105092959D01*
X110630243Y-105070830D01*
X110619212Y-105047507D01*
X110610520Y-105023216D01*
X110604252Y-104998189D01*
X110600466Y-104972669D01*
X110599200Y-104946900D01*
X110599200Y-104296100D01*
X110600466Y-104270331D01*
X110604252Y-104244811D01*
X110610520Y-104219784D01*
X110619212Y-104195493D01*
X110630243Y-104172170D01*
X110643507Y-104150041D01*
X110658876Y-104129318D01*
X110676202Y-104110202D01*
X110695318Y-104092876D01*
X110716041Y-104077507D01*
X110738170Y-104064243D01*
X110761493Y-104053212D01*
X110785784Y-104044520D01*
X110810811Y-104038252D01*
X110836331Y-104034466D01*
X110862100Y-104033200D01*
X111387900Y-104033200D01*
X111413669Y-104034466D01*
G37*
G36*
X100707669Y-106536466D02*
G01*
X100733189Y-106540252D01*
X100758216Y-106546520D01*
X100782507Y-106555212D01*
X100805830Y-106566243D01*
X100827959Y-106579507D01*
X100848682Y-106594876D01*
X100867798Y-106612202D01*
X100885124Y-106631318D01*
X100900493Y-106652041D01*
X100913757Y-106674170D01*
X100924788Y-106697493D01*
X100933480Y-106721784D01*
X100939748Y-106746811D01*
X100943534Y-106772331D01*
X100944800Y-106798100D01*
X100944800Y-107323900D01*
X100943534Y-107349669D01*
X100939748Y-107375189D01*
X100933480Y-107400216D01*
X100924788Y-107424507D01*
X100913757Y-107447830D01*
X100900493Y-107469959D01*
X100885124Y-107490682D01*
X100867798Y-107509798D01*
X100848682Y-107527124D01*
X100827959Y-107542493D01*
X100805830Y-107555757D01*
X100782507Y-107566788D01*
X100758216Y-107575480D01*
X100733189Y-107581748D01*
X100707669Y-107585534D01*
X100681900Y-107586800D01*
X100031100Y-107586800D01*
X100005331Y-107585534D01*
X99979811Y-107581748D01*
X99954784Y-107575480D01*
X99930493Y-107566788D01*
X99907170Y-107555757D01*
X99885041Y-107542493D01*
X99864318Y-107527124D01*
X99845202Y-107509798D01*
X99827876Y-107490682D01*
X99812507Y-107469959D01*
X99799243Y-107447830D01*
X99788212Y-107424507D01*
X99779520Y-107400216D01*
X99773252Y-107375189D01*
X99769466Y-107349669D01*
X99768200Y-107323900D01*
X99768200Y-106798100D01*
X99769466Y-106772331D01*
X99773252Y-106746811D01*
X99779520Y-106721784D01*
X99788212Y-106697493D01*
X99799243Y-106674170D01*
X99812507Y-106652041D01*
X99827876Y-106631318D01*
X99845202Y-106612202D01*
X99864318Y-106594876D01*
X99885041Y-106579507D01*
X99907170Y-106566243D01*
X99930493Y-106555212D01*
X99954784Y-106546520D01*
X99979811Y-106540252D01*
X100005331Y-106536466D01*
X100031100Y-106535200D01*
X100681900Y-106535200D01*
X100707669Y-106536466D01*
G37*
G36*
X102432669Y-106536466D02*
G01*
X102458189Y-106540252D01*
X102483216Y-106546520D01*
X102507507Y-106555212D01*
X102530830Y-106566243D01*
X102552959Y-106579507D01*
X102573682Y-106594876D01*
X102592798Y-106612202D01*
X102610124Y-106631318D01*
X102625493Y-106652041D01*
X102638757Y-106674170D01*
X102649788Y-106697493D01*
X102658480Y-106721784D01*
X102664748Y-106746811D01*
X102668534Y-106772331D01*
X102669800Y-106798100D01*
X102669800Y-107323900D01*
X102668534Y-107349669D01*
X102664748Y-107375189D01*
X102658480Y-107400216D01*
X102649788Y-107424507D01*
X102638757Y-107447830D01*
X102625493Y-107469959D01*
X102610124Y-107490682D01*
X102592798Y-107509798D01*
X102573682Y-107527124D01*
X102552959Y-107542493D01*
X102530830Y-107555757D01*
X102507507Y-107566788D01*
X102483216Y-107575480D01*
X102458189Y-107581748D01*
X102432669Y-107585534D01*
X102406900Y-107586800D01*
X101756100Y-107586800D01*
X101730331Y-107585534D01*
X101704811Y-107581748D01*
X101679784Y-107575480D01*
X101655493Y-107566788D01*
X101632170Y-107555757D01*
X101610041Y-107542493D01*
X101589318Y-107527124D01*
X101570202Y-107509798D01*
X101552876Y-107490682D01*
X101537507Y-107469959D01*
X101524243Y-107447830D01*
X101513212Y-107424507D01*
X101504520Y-107400216D01*
X101498252Y-107375189D01*
X101494466Y-107349669D01*
X101493200Y-107323900D01*
X101493200Y-106798100D01*
X101494466Y-106772331D01*
X101498252Y-106746811D01*
X101504520Y-106721784D01*
X101513212Y-106697493D01*
X101524243Y-106674170D01*
X101537507Y-106652041D01*
X101552876Y-106631318D01*
X101570202Y-106612202D01*
X101589318Y-106594876D01*
X101610041Y-106579507D01*
X101632170Y-106566243D01*
X101655493Y-106555212D01*
X101679784Y-106546520D01*
X101704811Y-106540252D01*
X101730331Y-106536466D01*
X101756100Y-106535200D01*
X102406900Y-106535200D01*
X102432669Y-106536466D01*
G37*
G36*
X179993669Y-94001466D02*
G01*
X180019189Y-94005252D01*
X180044216Y-94011520D01*
X180068507Y-94020212D01*
X180091830Y-94031243D01*
X180113959Y-94044507D01*
X180134682Y-94059876D01*
X180153798Y-94077202D01*
X180171124Y-94096318D01*
X180186493Y-94117041D01*
X180199757Y-94139170D01*
X180210788Y-94162493D01*
X180219480Y-94186784D01*
X180225748Y-94211811D01*
X180229534Y-94237331D01*
X180230800Y-94263100D01*
X180230800Y-94913900D01*
X180229534Y-94939669D01*
X180225748Y-94965189D01*
X180219480Y-94990216D01*
X180210788Y-95014507D01*
X180199757Y-95037830D01*
X180186493Y-95059959D01*
X180171124Y-95080682D01*
X180153798Y-95099798D01*
X180134682Y-95117124D01*
X180113959Y-95132493D01*
X180091830Y-95145757D01*
X180068507Y-95156788D01*
X180044216Y-95165480D01*
X180019189Y-95171748D01*
X179993669Y-95175534D01*
X179967900Y-95176800D01*
X179442100Y-95176800D01*
X179416331Y-95175534D01*
X179390811Y-95171748D01*
X179365784Y-95165480D01*
X179341493Y-95156788D01*
X179318170Y-95145757D01*
X179296041Y-95132493D01*
X179275318Y-95117124D01*
X179256202Y-95099798D01*
X179238876Y-95080682D01*
X179223507Y-95059959D01*
X179210243Y-95037830D01*
X179199212Y-95014507D01*
X179190520Y-94990216D01*
X179184252Y-94965189D01*
X179180466Y-94939669D01*
X179179200Y-94913900D01*
X179179200Y-94263100D01*
X179180466Y-94237331D01*
X179184252Y-94211811D01*
X179190520Y-94186784D01*
X179199212Y-94162493D01*
X179210243Y-94139170D01*
X179223507Y-94117041D01*
X179238876Y-94096318D01*
X179256202Y-94077202D01*
X179275318Y-94059876D01*
X179296041Y-94044507D01*
X179318170Y-94031243D01*
X179341493Y-94020212D01*
X179365784Y-94011520D01*
X179390811Y-94005252D01*
X179416331Y-94001466D01*
X179442100Y-94000200D01*
X179967900Y-94000200D01*
X179993669Y-94001466D01*
G37*
G36*
X179993669Y-92276466D02*
G01*
X180019189Y-92280252D01*
X180044216Y-92286520D01*
X180068507Y-92295212D01*
X180091830Y-92306243D01*
X180113959Y-92319507D01*
X180134682Y-92334876D01*
X180153798Y-92352202D01*
X180171124Y-92371318D01*
X180186493Y-92392041D01*
X180199757Y-92414170D01*
X180210788Y-92437493D01*
X180219480Y-92461784D01*
X180225748Y-92486811D01*
X180229534Y-92512331D01*
X180230800Y-92538100D01*
X180230800Y-93188900D01*
X180229534Y-93214669D01*
X180225748Y-93240189D01*
X180219480Y-93265216D01*
X180210788Y-93289507D01*
X180199757Y-93312830D01*
X180186493Y-93334959D01*
X180171124Y-93355682D01*
X180153798Y-93374798D01*
X180134682Y-93392124D01*
X180113959Y-93407493D01*
X180091830Y-93420757D01*
X180068507Y-93431788D01*
X180044216Y-93440480D01*
X180019189Y-93446748D01*
X179993669Y-93450534D01*
X179967900Y-93451800D01*
X179442100Y-93451800D01*
X179416331Y-93450534D01*
X179390811Y-93446748D01*
X179365784Y-93440480D01*
X179341493Y-93431788D01*
X179318170Y-93420757D01*
X179296041Y-93407493D01*
X179275318Y-93392124D01*
X179256202Y-93374798D01*
X179238876Y-93355682D01*
X179223507Y-93334959D01*
X179210243Y-93312830D01*
X179199212Y-93289507D01*
X179190520Y-93265216D01*
X179184252Y-93240189D01*
X179180466Y-93214669D01*
X179179200Y-93188900D01*
X179179200Y-92538100D01*
X179180466Y-92512331D01*
X179184252Y-92486811D01*
X179190520Y-92461784D01*
X179199212Y-92437493D01*
X179210243Y-92414170D01*
X179223507Y-92392041D01*
X179238876Y-92371318D01*
X179256202Y-92352202D01*
X179275318Y-92334876D01*
X179296041Y-92319507D01*
X179318170Y-92306243D01*
X179341493Y-92295212D01*
X179365784Y-92286520D01*
X179390811Y-92280252D01*
X179416331Y-92276466D01*
X179442100Y-92275200D01*
X179967900Y-92275200D01*
X179993669Y-92276466D01*
G37*
G36*
X171700669Y-101202466D02*
G01*
X171726189Y-101206252D01*
X171751216Y-101212520D01*
X171775507Y-101221212D01*
X171798830Y-101232243D01*
X171820959Y-101245507D01*
X171841682Y-101260876D01*
X171860798Y-101278202D01*
X171878124Y-101297318D01*
X171893493Y-101318041D01*
X171906757Y-101340170D01*
X171917788Y-101363493D01*
X171926480Y-101387784D01*
X171932748Y-101412811D01*
X171936534Y-101438331D01*
X171937800Y-101464100D01*
X171937800Y-101989900D01*
X171936534Y-102015669D01*
X171932748Y-102041189D01*
X171926480Y-102066216D01*
X171917788Y-102090507D01*
X171906757Y-102113830D01*
X171893493Y-102135959D01*
X171878124Y-102156682D01*
X171860798Y-102175798D01*
X171841682Y-102193124D01*
X171820959Y-102208493D01*
X171798830Y-102221757D01*
X171775507Y-102232788D01*
X171751216Y-102241480D01*
X171726189Y-102247748D01*
X171700669Y-102251534D01*
X171674900Y-102252800D01*
X171024100Y-102252800D01*
X170998331Y-102251534D01*
X170972811Y-102247748D01*
X170947784Y-102241480D01*
X170923493Y-102232788D01*
X170900170Y-102221757D01*
X170878041Y-102208493D01*
X170857318Y-102193124D01*
X170838202Y-102175798D01*
X170820876Y-102156682D01*
X170805507Y-102135959D01*
X170792243Y-102113830D01*
X170781212Y-102090507D01*
X170772520Y-102066216D01*
X170766252Y-102041189D01*
X170762466Y-102015669D01*
X170761200Y-101989900D01*
X170761200Y-101464100D01*
X170762466Y-101438331D01*
X170766252Y-101412811D01*
X170772520Y-101387784D01*
X170781212Y-101363493D01*
X170792243Y-101340170D01*
X170805507Y-101318041D01*
X170820876Y-101297318D01*
X170838202Y-101278202D01*
X170857318Y-101260876D01*
X170878041Y-101245507D01*
X170900170Y-101232243D01*
X170923493Y-101221212D01*
X170947784Y-101212520D01*
X170972811Y-101206252D01*
X170998331Y-101202466D01*
X171024100Y-101201200D01*
X171674900Y-101201200D01*
X171700669Y-101202466D01*
G37*
G36*
X173425669Y-101202466D02*
G01*
X173451189Y-101206252D01*
X173476216Y-101212520D01*
X173500507Y-101221212D01*
X173523830Y-101232243D01*
X173545959Y-101245507D01*
X173566682Y-101260876D01*
X173585798Y-101278202D01*
X173603124Y-101297318D01*
X173618493Y-101318041D01*
X173631757Y-101340170D01*
X173642788Y-101363493D01*
X173651480Y-101387784D01*
X173657748Y-101412811D01*
X173661534Y-101438331D01*
X173662800Y-101464100D01*
X173662800Y-101989900D01*
X173661534Y-102015669D01*
X173657748Y-102041189D01*
X173651480Y-102066216D01*
X173642788Y-102090507D01*
X173631757Y-102113830D01*
X173618493Y-102135959D01*
X173603124Y-102156682D01*
X173585798Y-102175798D01*
X173566682Y-102193124D01*
X173545959Y-102208493D01*
X173523830Y-102221757D01*
X173500507Y-102232788D01*
X173476216Y-102241480D01*
X173451189Y-102247748D01*
X173425669Y-102251534D01*
X173399900Y-102252800D01*
X172749100Y-102252800D01*
X172723331Y-102251534D01*
X172697811Y-102247748D01*
X172672784Y-102241480D01*
X172648493Y-102232788D01*
X172625170Y-102221757D01*
X172603041Y-102208493D01*
X172582318Y-102193124D01*
X172563202Y-102175798D01*
X172545876Y-102156682D01*
X172530507Y-102135959D01*
X172517243Y-102113830D01*
X172506212Y-102090507D01*
X172497520Y-102066216D01*
X172491252Y-102041189D01*
X172487466Y-102015669D01*
X172486200Y-101989900D01*
X172486200Y-101464100D01*
X172487466Y-101438331D01*
X172491252Y-101412811D01*
X172497520Y-101387784D01*
X172506212Y-101363493D01*
X172517243Y-101340170D01*
X172530507Y-101318041D01*
X172545876Y-101297318D01*
X172563202Y-101278202D01*
X172582318Y-101260876D01*
X172603041Y-101245507D01*
X172625170Y-101232243D01*
X172648493Y-101221212D01*
X172672784Y-101212520D01*
X172697811Y-101206252D01*
X172723331Y-101202466D01*
X172749100Y-101201200D01*
X173399900Y-101201200D01*
X173425669Y-101202466D01*
G37*
G36*
X145612669Y-107806466D02*
G01*
X145638189Y-107810252D01*
X145663216Y-107816520D01*
X145687507Y-107825212D01*
X145710830Y-107836243D01*
X145732959Y-107849507D01*
X145753682Y-107864876D01*
X145772798Y-107882202D01*
X145790124Y-107901318D01*
X145805493Y-107922041D01*
X145818757Y-107944170D01*
X145829788Y-107967493D01*
X145838480Y-107991784D01*
X145844748Y-108016811D01*
X145848534Y-108042331D01*
X145849800Y-108068100D01*
X145849800Y-108593900D01*
X145848534Y-108619669D01*
X145844748Y-108645189D01*
X145838480Y-108670216D01*
X145829788Y-108694507D01*
X145818757Y-108717830D01*
X145805493Y-108739959D01*
X145790124Y-108760682D01*
X145772798Y-108779798D01*
X145753682Y-108797124D01*
X145732959Y-108812493D01*
X145710830Y-108825757D01*
X145687507Y-108836788D01*
X145663216Y-108845480D01*
X145638189Y-108851748D01*
X145612669Y-108855534D01*
X145586900Y-108856800D01*
X144936100Y-108856800D01*
X144910331Y-108855534D01*
X144884811Y-108851748D01*
X144859784Y-108845480D01*
X144835493Y-108836788D01*
X144812170Y-108825757D01*
X144790041Y-108812493D01*
X144769318Y-108797124D01*
X144750202Y-108779798D01*
X144732876Y-108760682D01*
X144717507Y-108739959D01*
X144704243Y-108717830D01*
X144693212Y-108694507D01*
X144684520Y-108670216D01*
X144678252Y-108645189D01*
X144674466Y-108619669D01*
X144673200Y-108593900D01*
X144673200Y-108068100D01*
X144674466Y-108042331D01*
X144678252Y-108016811D01*
X144684520Y-107991784D01*
X144693212Y-107967493D01*
X144704243Y-107944170D01*
X144717507Y-107922041D01*
X144732876Y-107901318D01*
X144750202Y-107882202D01*
X144769318Y-107864876D01*
X144790041Y-107849507D01*
X144812170Y-107836243D01*
X144835493Y-107825212D01*
X144859784Y-107816520D01*
X144884811Y-107810252D01*
X144910331Y-107806466D01*
X144936100Y-107805200D01*
X145586900Y-107805200D01*
X145612669Y-107806466D01*
G37*
G36*
X143887669Y-107806466D02*
G01*
X143913189Y-107810252D01*
X143938216Y-107816520D01*
X143962507Y-107825212D01*
X143985830Y-107836243D01*
X144007959Y-107849507D01*
X144028682Y-107864876D01*
X144047798Y-107882202D01*
X144065124Y-107901318D01*
X144080493Y-107922041D01*
X144093757Y-107944170D01*
X144104788Y-107967493D01*
X144113480Y-107991784D01*
X144119748Y-108016811D01*
X144123534Y-108042331D01*
X144124800Y-108068100D01*
X144124800Y-108593900D01*
X144123534Y-108619669D01*
X144119748Y-108645189D01*
X144113480Y-108670216D01*
X144104788Y-108694507D01*
X144093757Y-108717830D01*
X144080493Y-108739959D01*
X144065124Y-108760682D01*
X144047798Y-108779798D01*
X144028682Y-108797124D01*
X144007959Y-108812493D01*
X143985830Y-108825757D01*
X143962507Y-108836788D01*
X143938216Y-108845480D01*
X143913189Y-108851748D01*
X143887669Y-108855534D01*
X143861900Y-108856800D01*
X143211100Y-108856800D01*
X143185331Y-108855534D01*
X143159811Y-108851748D01*
X143134784Y-108845480D01*
X143110493Y-108836788D01*
X143087170Y-108825757D01*
X143065041Y-108812493D01*
X143044318Y-108797124D01*
X143025202Y-108779798D01*
X143007876Y-108760682D01*
X142992507Y-108739959D01*
X142979243Y-108717830D01*
X142968212Y-108694507D01*
X142959520Y-108670216D01*
X142953252Y-108645189D01*
X142949466Y-108619669D01*
X142948200Y-108593900D01*
X142948200Y-108068100D01*
X142949466Y-108042331D01*
X142953252Y-108016811D01*
X142959520Y-107991784D01*
X142968212Y-107967493D01*
X142979243Y-107944170D01*
X142992507Y-107922041D01*
X143007876Y-107901318D01*
X143025202Y-107882202D01*
X143044318Y-107864876D01*
X143065041Y-107849507D01*
X143087170Y-107836243D01*
X143110493Y-107825212D01*
X143134784Y-107816520D01*
X143159811Y-107810252D01*
X143185331Y-107806466D01*
X143211100Y-107805200D01*
X143861900Y-107805200D01*
X143887669Y-107806466D01*
G37*
G36*
X117090669Y-112251466D02*
G01*
X117116189Y-112255252D01*
X117141216Y-112261520D01*
X117165507Y-112270212D01*
X117188830Y-112281243D01*
X117210959Y-112294507D01*
X117231682Y-112309876D01*
X117250798Y-112327202D01*
X117268124Y-112346318D01*
X117283493Y-112367041D01*
X117296757Y-112389170D01*
X117307788Y-112412493D01*
X117316480Y-112436784D01*
X117322748Y-112461811D01*
X117326534Y-112487331D01*
X117327800Y-112513100D01*
X117327800Y-113038900D01*
X117326534Y-113064669D01*
X117322748Y-113090189D01*
X117316480Y-113115216D01*
X117307788Y-113139507D01*
X117296757Y-113162830D01*
X117283493Y-113184959D01*
X117268124Y-113205682D01*
X117250798Y-113224798D01*
X117231682Y-113242124D01*
X117210959Y-113257493D01*
X117188830Y-113270757D01*
X117165507Y-113281788D01*
X117141216Y-113290480D01*
X117116189Y-113296748D01*
X117090669Y-113300534D01*
X117064900Y-113301800D01*
X116414100Y-113301800D01*
X116388331Y-113300534D01*
X116362811Y-113296748D01*
X116337784Y-113290480D01*
X116313493Y-113281788D01*
X116290170Y-113270757D01*
X116268041Y-113257493D01*
X116247318Y-113242124D01*
X116228202Y-113224798D01*
X116210876Y-113205682D01*
X116195507Y-113184959D01*
X116182243Y-113162830D01*
X116171212Y-113139507D01*
X116162520Y-113115216D01*
X116156252Y-113090189D01*
X116152466Y-113064669D01*
X116151200Y-113038900D01*
X116151200Y-112513100D01*
X116152466Y-112487331D01*
X116156252Y-112461811D01*
X116162520Y-112436784D01*
X116171212Y-112412493D01*
X116182243Y-112389170D01*
X116195507Y-112367041D01*
X116210876Y-112346318D01*
X116228202Y-112327202D01*
X116247318Y-112309876D01*
X116268041Y-112294507D01*
X116290170Y-112281243D01*
X116313493Y-112270212D01*
X116337784Y-112261520D01*
X116362811Y-112255252D01*
X116388331Y-112251466D01*
X116414100Y-112250200D01*
X117064900Y-112250200D01*
X117090669Y-112251466D01*
G37*
G36*
X118815669Y-112251466D02*
G01*
X118841189Y-112255252D01*
X118866216Y-112261520D01*
X118890507Y-112270212D01*
X118913830Y-112281243D01*
X118935959Y-112294507D01*
X118956682Y-112309876D01*
X118975798Y-112327202D01*
X118993124Y-112346318D01*
X119008493Y-112367041D01*
X119021757Y-112389170D01*
X119032788Y-112412493D01*
X119041480Y-112436784D01*
X119047748Y-112461811D01*
X119051534Y-112487331D01*
X119052800Y-112513100D01*
X119052800Y-113038900D01*
X119051534Y-113064669D01*
X119047748Y-113090189D01*
X119041480Y-113115216D01*
X119032788Y-113139507D01*
X119021757Y-113162830D01*
X119008493Y-113184959D01*
X118993124Y-113205682D01*
X118975798Y-113224798D01*
X118956682Y-113242124D01*
X118935959Y-113257493D01*
X118913830Y-113270757D01*
X118890507Y-113281788D01*
X118866216Y-113290480D01*
X118841189Y-113296748D01*
X118815669Y-113300534D01*
X118789900Y-113301800D01*
X118139100Y-113301800D01*
X118113331Y-113300534D01*
X118087811Y-113296748D01*
X118062784Y-113290480D01*
X118038493Y-113281788D01*
X118015170Y-113270757D01*
X117993041Y-113257493D01*
X117972318Y-113242124D01*
X117953202Y-113224798D01*
X117935876Y-113205682D01*
X117920507Y-113184959D01*
X117907243Y-113162830D01*
X117896212Y-113139507D01*
X117887520Y-113115216D01*
X117881252Y-113090189D01*
X117877466Y-113064669D01*
X117876200Y-113038900D01*
X117876200Y-112513100D01*
X117877466Y-112487331D01*
X117881252Y-112461811D01*
X117887520Y-112436784D01*
X117896212Y-112412493D01*
X117907243Y-112389170D01*
X117920507Y-112367041D01*
X117935876Y-112346318D01*
X117953202Y-112327202D01*
X117972318Y-112309876D01*
X117993041Y-112294507D01*
X118015170Y-112281243D01*
X118038493Y-112270212D01*
X118062784Y-112261520D01*
X118087811Y-112255252D01*
X118113331Y-112251466D01*
X118139100Y-112250200D01*
X118789900Y-112250200D01*
X118815669Y-112251466D01*
G37*
M02*
